G04 EAGLE Gerber RS-274X export*
G75*
%MOMM*%
%FSLAX34Y34*%
%LPD*%
%INTop Copper*%
%IPPOS*%
%AMOC8*
5,1,8,0,0,1.08239X$1,22.5*%
G01*
%ADD10P,1.429621X8X202.500000*%
%ADD11P,1.429621X8X22.500000*%
%ADD12P,1.429621X8X292.500000*%
%ADD13P,1.429621X8X112.500000*%
%ADD14C,1.320800*%
%ADD15C,1.879600*%
%ADD16C,1.408000*%
%ADD17C,0.406400*%
%ADD18C,0.756400*%


D10*
X161290Y130810D03*
X135890Y130810D03*
D11*
X317500Y228600D03*
X342900Y228600D03*
D12*
X330200Y431800D03*
X330200Y406400D03*
X388620Y482600D03*
X388620Y457200D03*
X130810Y482600D03*
X130810Y457200D03*
D13*
X373380Y361950D03*
X373380Y438150D03*
X144780Y361950D03*
X144780Y438150D03*
D12*
X403860Y438150D03*
X403860Y361950D03*
X116840Y438150D03*
X116840Y361950D03*
D14*
X196596Y431800D02*
X209804Y431800D01*
X209804Y406400D02*
X196596Y406400D01*
X196596Y381000D02*
X209804Y381000D01*
X209804Y355600D02*
X196596Y355600D01*
X196596Y330200D02*
X209804Y330200D01*
X209804Y304800D02*
X196596Y304800D01*
X196596Y279400D02*
X209804Y279400D01*
X209804Y254000D02*
X196596Y254000D01*
X196596Y228600D02*
X209804Y228600D01*
X209804Y203200D02*
X196596Y203200D01*
X196596Y177800D02*
X209804Y177800D01*
X209804Y152400D02*
X196596Y152400D01*
X196596Y127000D02*
X209804Y127000D01*
X209804Y101600D02*
X196596Y101600D01*
X272796Y101600D02*
X286004Y101600D01*
X286004Y127000D02*
X272796Y127000D01*
X272796Y152400D02*
X286004Y152400D01*
X286004Y177800D02*
X272796Y177800D01*
X272796Y203200D02*
X286004Y203200D01*
X286004Y228600D02*
X272796Y228600D01*
X272796Y254000D02*
X286004Y254000D01*
X286004Y279400D02*
X272796Y279400D01*
X272796Y304800D02*
X286004Y304800D01*
X286004Y330200D02*
X272796Y330200D01*
X272796Y355600D02*
X286004Y355600D01*
X286004Y381000D02*
X272796Y381000D01*
X272796Y406400D02*
X286004Y406400D01*
X286004Y431800D02*
X272796Y431800D01*
D15*
X393700Y127000D03*
X393700Y101600D03*
X469900Y419100D03*
X469900Y393700D03*
X469900Y368300D03*
X469900Y342900D03*
X469900Y317500D03*
X469900Y290830D03*
X469900Y265430D03*
X469900Y240030D03*
X469900Y214630D03*
X469900Y189230D03*
X25400Y292100D03*
X25400Y266700D03*
X25400Y241300D03*
X25400Y215900D03*
X25400Y190500D03*
X25400Y419100D03*
X25400Y393700D03*
X25400Y368300D03*
X25400Y342900D03*
X25400Y317500D03*
X25400Y76200D03*
X25400Y25400D03*
X25400Y50800D03*
X139700Y25400D03*
X139700Y50800D03*
D16*
X220980Y20330D03*
X195980Y20330D03*
X245980Y20330D03*
X246480Y53330D03*
X220980Y53330D03*
X195980Y53330D03*
D15*
X114300Y25400D03*
X114300Y50800D03*
X114300Y76200D03*
X114300Y101600D03*
X194310Y480060D03*
X219710Y480060D03*
X245110Y480060D03*
X270510Y480060D03*
X295910Y480060D03*
X410210Y26670D03*
X384810Y26670D03*
X359410Y26670D03*
X334010Y26670D03*
X308610Y26670D03*
X283210Y26670D03*
X429260Y471170D03*
X480060Y471170D03*
X71120Y471170D03*
X20320Y471170D03*
X444500Y25400D03*
X444500Y50800D03*
X444500Y76200D03*
X444500Y101600D03*
D17*
X142230Y53330D02*
X139700Y50800D01*
X142230Y53330D02*
X195980Y53330D01*
X50800Y25400D02*
X25400Y25400D01*
X50800Y25400D02*
X114300Y25400D01*
X330200Y482600D02*
X388620Y482600D01*
D18*
X330200Y482600D03*
D17*
X199390Y130810D02*
X203200Y127000D01*
X199390Y130810D02*
X161290Y130810D01*
D18*
X50800Y25400D03*
X46990Y241300D03*
D17*
X25400Y241300D01*
X279400Y431800D02*
X330200Y431800D01*
X139700Y152400D02*
X161290Y130810D01*
X139700Y152400D02*
X50800Y152400D01*
D18*
X50800Y152400D03*
D17*
X245110Y469900D02*
X245110Y480060D01*
X245110Y469900D02*
X245110Y466090D01*
X279400Y431800D01*
X245110Y469900D02*
X232410Y457200D01*
X165100Y457200D01*
X330200Y431800D02*
X355600Y431800D01*
X368300Y419100D01*
D18*
X406400Y419100D03*
D17*
X368300Y419100D01*
X469900Y214630D02*
X487808Y196722D01*
X487808Y76200D02*
X462408Y50800D01*
X444500Y50800D01*
X487808Y76200D02*
X487808Y196722D01*
D18*
X73660Y361950D03*
D17*
X116840Y361950D01*
D18*
X165100Y457200D03*
D17*
X468630Y215900D02*
X469900Y214630D01*
X359400Y53330D02*
X246480Y53330D01*
X359400Y53330D02*
X359410Y53340D01*
X358775Y53975D01*
D18*
X358775Y53975D03*
D17*
X114300Y76200D02*
X76200Y76200D01*
X114300Y76200D02*
X222250Y76200D01*
D18*
X222250Y76200D03*
D17*
X76200Y76200D02*
X25400Y76200D01*
D18*
X76200Y76200D03*
X76200Y266700D03*
D17*
X25400Y266700D01*
X222250Y76200D02*
X368300Y76200D01*
D18*
X368300Y76200D03*
X368300Y179070D03*
D17*
X408940Y179070D01*
X469900Y240030D01*
X373380Y438150D02*
X388620Y453390D01*
X388620Y457200D01*
X144780Y438150D02*
X130810Y452120D01*
X130810Y457200D01*
X279400Y228600D02*
X317500Y228600D01*
X403860Y445770D02*
X429260Y471170D01*
X403860Y445770D02*
X403860Y438150D01*
X83820Y471170D02*
X71120Y471170D01*
X83820Y471170D02*
X92710Y462280D01*
D18*
X92710Y462280D03*
D17*
X116840Y438150D01*
D18*
X92710Y175260D03*
D17*
X95250Y177800D01*
X203200Y177800D01*
X393700Y127000D02*
X419100Y127000D01*
X444500Y101600D01*
X342900Y177800D02*
X279400Y177800D01*
X342900Y177800D02*
X393700Y127000D01*
X393700Y101600D02*
X419100Y101600D01*
X444500Y76200D01*
X330200Y152400D02*
X279400Y152400D01*
X330200Y152400D02*
X381000Y101600D01*
X393700Y101600D01*
D18*
X317500Y203200D03*
D17*
X304800Y215900D01*
X215900Y215900D02*
X203200Y228600D01*
X215900Y215900D02*
X304800Y215900D01*
X355600Y406400D02*
X431800Y406400D01*
X444500Y419100D01*
X469900Y419100D01*
X330200Y381000D02*
X279400Y381000D01*
X330200Y381000D02*
X355600Y406400D01*
X330200Y355600D02*
X279400Y355600D01*
X330200Y355600D02*
X355600Y381000D01*
X431800Y381000D01*
X444500Y393700D01*
X469900Y393700D01*
X469900Y368300D02*
X431800Y330200D01*
X279400Y330200D01*
X279400Y304800D02*
X431800Y304800D01*
X469900Y342900D01*
X431800Y279400D02*
X279400Y279400D01*
X431800Y279400D02*
X469900Y317500D01*
X431800Y254000D02*
X279400Y254000D01*
X468630Y290830D02*
X469900Y290830D01*
X468630Y290830D02*
X431800Y254000D01*
X342900Y127000D02*
X279400Y127000D01*
D18*
X342900Y127000D03*
X342900Y203200D03*
D17*
X407670Y203200D02*
X469900Y265430D01*
X407670Y203200D02*
X342900Y203200D01*
X152400Y292100D02*
X25400Y292100D01*
D18*
X152400Y292100D03*
X152400Y158750D03*
D17*
X171450Y139700D01*
X224790Y139700D01*
D18*
X224790Y139700D03*
X224790Y101600D03*
D17*
X279400Y101600D01*
X203200Y101600D02*
X139700Y101600D01*
X114300Y127000D01*
D18*
X114300Y127000D03*
X114300Y317500D03*
D17*
X25400Y317500D01*
X25400Y368300D02*
X50800Y368300D01*
X76200Y342900D01*
X139700Y342900D01*
X177800Y304800D01*
X203200Y304800D01*
X190500Y393700D02*
X25400Y393700D01*
X190500Y393700D02*
X203200Y381000D01*
X190500Y419100D02*
X25400Y419100D01*
X190500Y419100D02*
X203200Y406400D01*
M02*
