G04 EAGLE Gerber RS-274X export*
G75*
%MOMM*%
%FSLAX34Y34*%
%LPD*%
%INBottom Copper*%
%IPPOS*%
%AMOC8*
5,1,8,0,0,1.08239X$1,22.5*%
G01*
%ADD10P,1.429621X8X202.500000*%
%ADD11P,1.429621X8X22.500000*%
%ADD12P,1.429621X8X292.500000*%
%ADD13P,1.429621X8X112.500000*%
%ADD14C,1.320800*%
%ADD15C,1.879600*%
%ADD16C,1.408000*%
%ADD17C,0.406400*%
%ADD18C,0.756400*%

G36*
X188678Y10172D02*
X188678Y10172D01*
X188749Y10174D01*
X188798Y10192D01*
X188850Y10200D01*
X188913Y10234D01*
X188980Y10259D01*
X189021Y10291D01*
X189067Y10316D01*
X189116Y10368D01*
X189172Y10412D01*
X189201Y10456D01*
X189237Y10494D01*
X189267Y10559D01*
X189305Y10619D01*
X189318Y10670D01*
X189340Y10717D01*
X189348Y10788D01*
X189366Y10858D01*
X189361Y10910D01*
X189367Y10961D01*
X189352Y11032D01*
X189346Y11103D01*
X189326Y11151D01*
X189315Y11202D01*
X189278Y11263D01*
X189250Y11329D01*
X189205Y11385D01*
X189189Y11413D01*
X189171Y11428D01*
X189145Y11460D01*
X186566Y14040D01*
X184875Y18121D01*
X184875Y22539D01*
X186566Y26620D01*
X189660Y29715D01*
X189713Y29789D01*
X189773Y29858D01*
X189785Y29888D01*
X189804Y29915D01*
X189831Y30001D01*
X189865Y30086D01*
X189869Y30127D01*
X189876Y30150D01*
X189875Y30182D01*
X189883Y30253D01*
X189883Y43407D01*
X189869Y43497D01*
X189861Y43588D01*
X189849Y43618D01*
X189844Y43650D01*
X189801Y43730D01*
X189765Y43814D01*
X189739Y43846D01*
X189728Y43867D01*
X189705Y43889D01*
X189660Y43945D01*
X186566Y47040D01*
X184875Y51121D01*
X184875Y55539D01*
X186566Y59620D01*
X189690Y62744D01*
X193771Y64435D01*
X198189Y64435D01*
X202270Y62744D01*
X205394Y59620D01*
X207085Y55539D01*
X207085Y51121D01*
X205394Y47040D01*
X202300Y43945D01*
X202247Y43871D01*
X202187Y43802D01*
X202175Y43772D01*
X202156Y43745D01*
X202129Y43659D01*
X202095Y43574D01*
X202091Y43533D01*
X202084Y43510D01*
X202085Y43478D01*
X202077Y43407D01*
X202077Y30253D01*
X202091Y30163D01*
X202099Y30072D01*
X202111Y30042D01*
X202116Y30010D01*
X202159Y29930D01*
X202195Y29846D01*
X202221Y29814D01*
X202232Y29793D01*
X202255Y29771D01*
X202300Y29715D01*
X205394Y26620D01*
X207085Y22539D01*
X207085Y18121D01*
X205394Y14040D01*
X202815Y11460D01*
X202773Y11402D01*
X202723Y11350D01*
X202702Y11303D01*
X202671Y11261D01*
X202650Y11192D01*
X202620Y11127D01*
X202614Y11075D01*
X202599Y11025D01*
X202601Y10954D01*
X202593Y10883D01*
X202604Y10832D01*
X202605Y10780D01*
X202630Y10712D01*
X202645Y10642D01*
X202672Y10597D01*
X202690Y10549D01*
X202734Y10493D01*
X202771Y10431D01*
X202811Y10397D01*
X202843Y10357D01*
X202904Y10318D01*
X202958Y10271D01*
X203006Y10252D01*
X203050Y10224D01*
X203120Y10206D01*
X203186Y10179D01*
X203258Y10171D01*
X203289Y10163D01*
X203312Y10165D01*
X203353Y10161D01*
X213607Y10161D01*
X213678Y10172D01*
X213749Y10174D01*
X213798Y10192D01*
X213850Y10200D01*
X213913Y10234D01*
X213980Y10259D01*
X214021Y10291D01*
X214067Y10316D01*
X214116Y10368D01*
X214172Y10412D01*
X214201Y10456D01*
X214237Y10494D01*
X214267Y10559D01*
X214305Y10619D01*
X214318Y10670D01*
X214340Y10717D01*
X214348Y10788D01*
X214366Y10858D01*
X214361Y10910D01*
X214367Y10961D01*
X214352Y11032D01*
X214346Y11103D01*
X214326Y11151D01*
X214315Y11202D01*
X214278Y11263D01*
X214250Y11329D01*
X214205Y11385D01*
X214189Y11413D01*
X214171Y11428D01*
X214145Y11460D01*
X211566Y14040D01*
X209875Y18121D01*
X209875Y22539D01*
X211566Y26620D01*
X214660Y29715D01*
X214713Y29789D01*
X214773Y29858D01*
X214785Y29888D01*
X214804Y29914D01*
X214831Y30001D01*
X214865Y30086D01*
X214869Y30127D01*
X214876Y30150D01*
X214875Y30182D01*
X214883Y30253D01*
X214883Y43407D01*
X214869Y43497D01*
X214861Y43588D01*
X214849Y43618D01*
X214844Y43650D01*
X214801Y43730D01*
X214765Y43814D01*
X214739Y43846D01*
X214728Y43867D01*
X214705Y43889D01*
X214660Y43945D01*
X211566Y47040D01*
X209875Y51121D01*
X209875Y55539D01*
X211566Y59620D01*
X214690Y62744D01*
X215683Y63156D01*
X215783Y63217D01*
X215883Y63277D01*
X215887Y63282D01*
X215892Y63285D01*
X215967Y63375D01*
X216043Y63464D01*
X216045Y63470D01*
X216049Y63475D01*
X216091Y63583D01*
X216135Y63692D01*
X216136Y63700D01*
X216137Y63704D01*
X216138Y63723D01*
X216153Y63859D01*
X216153Y70884D01*
X216139Y70975D01*
X216131Y71065D01*
X216119Y71095D01*
X216114Y71127D01*
X216071Y71208D01*
X216035Y71292D01*
X216009Y71324D01*
X215998Y71345D01*
X215975Y71367D01*
X215930Y71423D01*
X215598Y71755D01*
X214403Y74639D01*
X214403Y77761D01*
X215598Y80645D01*
X217805Y82852D01*
X220689Y84047D01*
X223811Y84047D01*
X226695Y82852D01*
X228902Y80645D01*
X230097Y77761D01*
X230097Y74639D01*
X228902Y71755D01*
X228570Y71423D01*
X228517Y71349D01*
X228457Y71279D01*
X228445Y71249D01*
X228426Y71223D01*
X228399Y71136D01*
X228365Y71051D01*
X228361Y71010D01*
X228354Y70988D01*
X228355Y70956D01*
X228347Y70884D01*
X228347Y61983D01*
X228361Y61893D01*
X228369Y61802D01*
X228381Y61772D01*
X228386Y61740D01*
X228429Y61660D01*
X228465Y61576D01*
X228491Y61544D01*
X228502Y61523D01*
X228525Y61501D01*
X228570Y61445D01*
X230394Y59620D01*
X232085Y55539D01*
X232085Y51121D01*
X230394Y47040D01*
X227300Y43945D01*
X227247Y43871D01*
X227187Y43802D01*
X227175Y43772D01*
X227156Y43745D01*
X227129Y43659D01*
X227095Y43574D01*
X227091Y43533D01*
X227084Y43510D01*
X227085Y43478D01*
X227077Y43407D01*
X227077Y30253D01*
X227091Y30163D01*
X227099Y30072D01*
X227111Y30042D01*
X227116Y30010D01*
X227159Y29930D01*
X227195Y29846D01*
X227221Y29814D01*
X227232Y29793D01*
X227255Y29771D01*
X227300Y29715D01*
X230394Y26620D01*
X232085Y22539D01*
X232085Y18121D01*
X230394Y14040D01*
X227815Y11460D01*
X227773Y11402D01*
X227723Y11350D01*
X227702Y11303D01*
X227671Y11261D01*
X227650Y11192D01*
X227620Y11127D01*
X227614Y11075D01*
X227599Y11025D01*
X227601Y10954D01*
X227593Y10883D01*
X227604Y10832D01*
X227605Y10780D01*
X227630Y10712D01*
X227645Y10642D01*
X227672Y10597D01*
X227690Y10549D01*
X227734Y10493D01*
X227771Y10431D01*
X227811Y10397D01*
X227843Y10357D01*
X227904Y10318D01*
X227958Y10271D01*
X228006Y10252D01*
X228050Y10224D01*
X228120Y10206D01*
X228186Y10179D01*
X228258Y10171D01*
X228289Y10163D01*
X228312Y10165D01*
X228353Y10161D01*
X238607Y10161D01*
X238678Y10172D01*
X238749Y10174D01*
X238798Y10192D01*
X238850Y10200D01*
X238913Y10234D01*
X238980Y10259D01*
X239021Y10291D01*
X239067Y10316D01*
X239116Y10368D01*
X239172Y10412D01*
X239201Y10456D01*
X239237Y10494D01*
X239267Y10559D01*
X239305Y10619D01*
X239318Y10670D01*
X239340Y10717D01*
X239348Y10788D01*
X239366Y10858D01*
X239361Y10910D01*
X239367Y10961D01*
X239352Y11032D01*
X239346Y11103D01*
X239326Y11151D01*
X239315Y11202D01*
X239278Y11263D01*
X239250Y11329D01*
X239205Y11385D01*
X239189Y11413D01*
X239171Y11428D01*
X239145Y11460D01*
X236566Y14040D01*
X234875Y18121D01*
X234875Y22539D01*
X236566Y26620D01*
X239660Y29715D01*
X239713Y29789D01*
X239773Y29858D01*
X239785Y29888D01*
X239804Y29915D01*
X239831Y30001D01*
X239865Y30086D01*
X239869Y30127D01*
X239876Y30150D01*
X239875Y30182D01*
X239883Y30253D01*
X239883Y43907D01*
X239869Y43997D01*
X239861Y44088D01*
X239849Y44118D01*
X239844Y44150D01*
X239801Y44230D01*
X239765Y44314D01*
X239739Y44346D01*
X239728Y44367D01*
X239705Y44389D01*
X239660Y44445D01*
X237066Y47040D01*
X235375Y51121D01*
X235375Y55539D01*
X237066Y59620D01*
X240190Y62744D01*
X244271Y64435D01*
X248689Y64435D01*
X252770Y62744D01*
X255894Y59620D01*
X257585Y55539D01*
X257585Y51121D01*
X255894Y47040D01*
X252770Y43916D01*
X252547Y43823D01*
X252447Y43762D01*
X252347Y43702D01*
X252343Y43697D01*
X252338Y43694D01*
X252263Y43604D01*
X252187Y43515D01*
X252185Y43509D01*
X252181Y43504D01*
X252139Y43396D01*
X252095Y43287D01*
X252094Y43279D01*
X252093Y43275D01*
X252092Y43256D01*
X252077Y43120D01*
X252077Y30253D01*
X252091Y30163D01*
X252099Y30072D01*
X252111Y30042D01*
X252116Y30010D01*
X252159Y29930D01*
X252195Y29846D01*
X252221Y29814D01*
X252232Y29793D01*
X252255Y29771D01*
X252300Y29715D01*
X255394Y26620D01*
X257085Y22539D01*
X257085Y18121D01*
X255394Y14040D01*
X252815Y11460D01*
X252773Y11402D01*
X252723Y11350D01*
X252702Y11303D01*
X252671Y11261D01*
X252650Y11192D01*
X252620Y11127D01*
X252614Y11075D01*
X252599Y11025D01*
X252601Y10954D01*
X252593Y10883D01*
X252604Y10832D01*
X252605Y10780D01*
X252630Y10712D01*
X252645Y10642D01*
X252672Y10597D01*
X252690Y10549D01*
X252734Y10493D01*
X252771Y10431D01*
X252811Y10397D01*
X252843Y10357D01*
X252904Y10318D01*
X252958Y10271D01*
X253006Y10252D01*
X253050Y10224D01*
X253120Y10206D01*
X253186Y10179D01*
X253258Y10171D01*
X253289Y10163D01*
X253312Y10165D01*
X253353Y10161D01*
X489078Y10161D01*
X489098Y10164D01*
X489117Y10162D01*
X489219Y10184D01*
X489321Y10200D01*
X489338Y10210D01*
X489358Y10214D01*
X489447Y10267D01*
X489538Y10316D01*
X489552Y10330D01*
X489569Y10340D01*
X489636Y10419D01*
X489708Y10494D01*
X489716Y10512D01*
X489729Y10527D01*
X489768Y10623D01*
X489811Y10717D01*
X489813Y10737D01*
X489821Y10755D01*
X489839Y10922D01*
X489839Y462228D01*
X489828Y462298D01*
X489826Y462370D01*
X489808Y462419D01*
X489800Y462470D01*
X489766Y462534D01*
X489741Y462601D01*
X489709Y462642D01*
X489684Y462688D01*
X489632Y462737D01*
X489588Y462793D01*
X489544Y462821D01*
X489506Y462857D01*
X489441Y462887D01*
X489381Y462926D01*
X489330Y462939D01*
X489283Y462961D01*
X489212Y462969D01*
X489142Y462986D01*
X489090Y462982D01*
X489039Y462988D01*
X488968Y462973D01*
X488897Y462967D01*
X488849Y462947D01*
X488798Y462936D01*
X488737Y462899D01*
X488671Y462871D01*
X488615Y462826D01*
X488587Y462809D01*
X488572Y462792D01*
X488540Y462766D01*
X487838Y462064D01*
X486317Y460959D01*
X484643Y460106D01*
X482856Y459525D01*
X481583Y459324D01*
X481583Y470408D01*
X481580Y470428D01*
X481582Y470447D01*
X481560Y470549D01*
X481543Y470651D01*
X481534Y470668D01*
X481530Y470688D01*
X481477Y470777D01*
X481428Y470868D01*
X481414Y470882D01*
X481404Y470899D01*
X481325Y470966D01*
X481250Y471037D01*
X481232Y471046D01*
X481217Y471059D01*
X481121Y471097D01*
X481027Y471141D01*
X481007Y471143D01*
X480989Y471151D01*
X480822Y471169D01*
X480059Y471169D01*
X480059Y471171D01*
X480822Y471171D01*
X480842Y471174D01*
X480861Y471172D01*
X480963Y471194D01*
X481065Y471211D01*
X481082Y471220D01*
X481102Y471224D01*
X481191Y471277D01*
X481282Y471326D01*
X481296Y471340D01*
X481313Y471350D01*
X481380Y471429D01*
X481451Y471504D01*
X481460Y471522D01*
X481473Y471537D01*
X481512Y471633D01*
X481555Y471727D01*
X481557Y471747D01*
X481565Y471765D01*
X481583Y471932D01*
X481583Y483016D01*
X482856Y482815D01*
X484643Y482234D01*
X486317Y481381D01*
X487838Y480276D01*
X488540Y479574D01*
X488598Y479532D01*
X488650Y479483D01*
X488697Y479461D01*
X488739Y479431D01*
X488808Y479410D01*
X488873Y479379D01*
X488925Y479374D01*
X488975Y479358D01*
X489046Y479360D01*
X489117Y479352D01*
X489168Y479363D01*
X489220Y479365D01*
X489288Y479389D01*
X489358Y479404D01*
X489403Y479431D01*
X489451Y479449D01*
X489507Y479494D01*
X489569Y479531D01*
X489603Y479570D01*
X489643Y479603D01*
X489682Y479663D01*
X489729Y479718D01*
X489748Y479766D01*
X489776Y479810D01*
X489794Y479879D01*
X489821Y479946D01*
X489829Y480017D01*
X489837Y480048D01*
X489835Y480072D01*
X489839Y480112D01*
X489839Y489078D01*
X489836Y489098D01*
X489838Y489117D01*
X489816Y489219D01*
X489800Y489321D01*
X489790Y489338D01*
X489786Y489358D01*
X489733Y489447D01*
X489684Y489538D01*
X489670Y489552D01*
X489660Y489569D01*
X489581Y489636D01*
X489506Y489708D01*
X489488Y489716D01*
X489473Y489729D01*
X489377Y489768D01*
X489283Y489811D01*
X489263Y489813D01*
X489245Y489821D01*
X489078Y489839D01*
X398306Y489839D01*
X398236Y489828D01*
X398164Y489826D01*
X398115Y489808D01*
X398064Y489800D01*
X398000Y489766D01*
X397933Y489741D01*
X397892Y489709D01*
X397846Y489684D01*
X397797Y489632D01*
X397741Y489588D01*
X397713Y489544D01*
X397677Y489506D01*
X397647Y489441D01*
X397608Y489381D01*
X397595Y489330D01*
X397573Y489283D01*
X397565Y489212D01*
X397548Y489142D01*
X397552Y489090D01*
X397546Y489039D01*
X397561Y488968D01*
X397567Y488897D01*
X397587Y488849D01*
X397598Y488798D01*
X397635Y488737D01*
X397663Y488671D01*
X397708Y488615D01*
X397725Y488587D01*
X397742Y488572D01*
X397768Y488540D01*
X399289Y487019D01*
X399289Y478181D01*
X393039Y471931D01*
X384201Y471931D01*
X377951Y478181D01*
X377951Y487019D01*
X379472Y488540D01*
X379514Y488598D01*
X379563Y488650D01*
X379585Y488697D01*
X379615Y488739D01*
X379637Y488808D01*
X379667Y488873D01*
X379672Y488925D01*
X379688Y488975D01*
X379686Y489046D01*
X379694Y489117D01*
X379683Y489168D01*
X379681Y489220D01*
X379657Y489288D01*
X379642Y489358D01*
X379615Y489403D01*
X379597Y489451D01*
X379552Y489507D01*
X379515Y489569D01*
X379476Y489603D01*
X379443Y489643D01*
X379383Y489682D01*
X379328Y489729D01*
X379280Y489748D01*
X379236Y489776D01*
X379167Y489794D01*
X379100Y489821D01*
X379029Y489829D01*
X378998Y489837D01*
X378975Y489835D01*
X378934Y489839D01*
X335895Y489839D01*
X335825Y489828D01*
X335753Y489826D01*
X335704Y489808D01*
X335653Y489800D01*
X335589Y489766D01*
X335522Y489741D01*
X335481Y489709D01*
X335435Y489684D01*
X335386Y489632D01*
X335330Y489588D01*
X335302Y489544D01*
X335266Y489506D01*
X335236Y489441D01*
X335197Y489381D01*
X335184Y489330D01*
X335162Y489283D01*
X335154Y489212D01*
X335137Y489142D01*
X335141Y489090D01*
X335135Y489039D01*
X335151Y488968D01*
X335156Y488897D01*
X335176Y488849D01*
X335188Y488798D01*
X335224Y488737D01*
X335252Y488671D01*
X335297Y488615D01*
X335314Y488587D01*
X335331Y488572D01*
X335357Y488540D01*
X336852Y487045D01*
X338047Y484161D01*
X338047Y481039D01*
X336852Y478155D01*
X336520Y477823D01*
X336467Y477749D01*
X336407Y477679D01*
X336395Y477649D01*
X336376Y477623D01*
X336349Y477536D01*
X336315Y477451D01*
X336311Y477410D01*
X336304Y477388D01*
X336305Y477356D01*
X336297Y477284D01*
X336297Y441106D01*
X336311Y441016D01*
X336319Y440925D01*
X336331Y440896D01*
X336336Y440864D01*
X336379Y440783D01*
X336415Y440699D01*
X336441Y440667D01*
X336452Y440646D01*
X336475Y440624D01*
X336520Y440568D01*
X340869Y436219D01*
X340869Y427381D01*
X334619Y421131D01*
X325781Y421131D01*
X319531Y427381D01*
X319531Y436219D01*
X323880Y440568D01*
X323933Y440642D01*
X323993Y440712D01*
X324005Y440742D01*
X324024Y440768D01*
X324051Y440855D01*
X324085Y440940D01*
X324089Y440981D01*
X324096Y441003D01*
X324095Y441035D01*
X324103Y441106D01*
X324103Y477284D01*
X324089Y477375D01*
X324081Y477465D01*
X324069Y477495D01*
X324064Y477527D01*
X324021Y477608D01*
X323985Y477692D01*
X323959Y477724D01*
X323948Y477745D01*
X323925Y477767D01*
X323880Y477823D01*
X323548Y478155D01*
X322353Y481039D01*
X322353Y484161D01*
X323548Y487045D01*
X325043Y488540D01*
X325085Y488598D01*
X325134Y488650D01*
X325156Y488697D01*
X325186Y488739D01*
X325207Y488808D01*
X325238Y488873D01*
X325243Y488925D01*
X325259Y488975D01*
X325257Y489046D01*
X325265Y489117D01*
X325254Y489168D01*
X325252Y489220D01*
X325228Y489288D01*
X325212Y489358D01*
X325186Y489403D01*
X325168Y489451D01*
X325123Y489507D01*
X325086Y489569D01*
X325047Y489603D01*
X325014Y489643D01*
X324954Y489682D01*
X324899Y489729D01*
X324851Y489748D01*
X324807Y489776D01*
X324738Y489794D01*
X324671Y489821D01*
X324600Y489829D01*
X324569Y489837D01*
X324545Y489835D01*
X324505Y489839D01*
X307008Y489839D01*
X306937Y489828D01*
X306865Y489826D01*
X306816Y489808D01*
X306765Y489800D01*
X306702Y489766D01*
X306634Y489741D01*
X306594Y489709D01*
X306548Y489684D01*
X306498Y489632D01*
X306442Y489588D01*
X306414Y489544D01*
X306378Y489506D01*
X306348Y489441D01*
X306309Y489381D01*
X306297Y489330D01*
X306275Y489283D01*
X306267Y489212D01*
X306249Y489142D01*
X306253Y489090D01*
X306247Y489039D01*
X306263Y488968D01*
X306268Y488897D01*
X306289Y488849D01*
X306300Y488798D01*
X306337Y488737D01*
X306365Y488671D01*
X306409Y488615D01*
X306426Y488587D01*
X306444Y488572D01*
X306469Y488540D01*
X307323Y487686D01*
X309373Y482738D01*
X309373Y477382D01*
X307323Y472434D01*
X303536Y468647D01*
X298588Y466597D01*
X293232Y466597D01*
X292173Y467036D01*
X292060Y467063D01*
X291946Y467091D01*
X291939Y467091D01*
X291933Y467092D01*
X291817Y467081D01*
X291700Y467072D01*
X291695Y467070D01*
X291688Y467069D01*
X291580Y467021D01*
X291474Y466976D01*
X291468Y466971D01*
X291464Y466969D01*
X291450Y466956D01*
X291343Y466871D01*
X267007Y442535D01*
X266950Y442456D01*
X266888Y442381D01*
X266879Y442357D01*
X266864Y442335D01*
X266835Y442242D01*
X266800Y442152D01*
X266799Y442125D01*
X266791Y442100D01*
X266794Y442003D01*
X266790Y441906D01*
X266797Y441881D01*
X266798Y441854D01*
X266831Y441763D01*
X266858Y441670D01*
X266873Y441648D01*
X266882Y441623D01*
X266943Y441547D01*
X266999Y441467D01*
X267020Y441452D01*
X267036Y441431D01*
X267118Y441379D01*
X267196Y441321D01*
X267221Y441313D01*
X267243Y441298D01*
X267337Y441275D01*
X267430Y441245D01*
X267456Y441245D01*
X267481Y441238D01*
X267578Y441246D01*
X267676Y441247D01*
X267707Y441256D01*
X267727Y441258D01*
X267757Y441270D01*
X267837Y441294D01*
X270674Y442469D01*
X288126Y442469D01*
X292047Y440845D01*
X295049Y437843D01*
X296673Y433922D01*
X296673Y429678D01*
X295049Y425757D01*
X292047Y422755D01*
X288126Y421131D01*
X270674Y421131D01*
X266753Y422755D01*
X263751Y425757D01*
X262127Y429678D01*
X262127Y433922D01*
X263302Y436759D01*
X263325Y436854D01*
X263353Y436947D01*
X263353Y436973D01*
X263359Y436999D01*
X263349Y437095D01*
X263347Y437193D01*
X263338Y437217D01*
X263335Y437243D01*
X263296Y437332D01*
X263262Y437424D01*
X263246Y437444D01*
X263235Y437468D01*
X263170Y437540D01*
X263109Y437616D01*
X263087Y437630D01*
X263069Y437649D01*
X262984Y437696D01*
X262902Y437749D01*
X262876Y437755D01*
X262854Y437768D01*
X262758Y437785D01*
X262663Y437809D01*
X262637Y437807D01*
X262611Y437812D01*
X262515Y437797D01*
X262418Y437790D01*
X262394Y437780D01*
X262368Y437776D01*
X262281Y437732D01*
X262192Y437694D01*
X262166Y437673D01*
X262149Y437664D01*
X262126Y437641D01*
X262061Y437589D01*
X260320Y435848D01*
X260267Y435774D01*
X260207Y435704D01*
X260195Y435674D01*
X260176Y435648D01*
X260149Y435561D01*
X260115Y435476D01*
X260111Y435435D01*
X260104Y435413D01*
X260105Y435381D01*
X260097Y435309D01*
X260097Y328987D01*
X259169Y326746D01*
X257454Y325031D01*
X255213Y324103D01*
X219110Y324103D01*
X219020Y324089D01*
X218929Y324081D01*
X218900Y324069D01*
X218868Y324064D01*
X218787Y324021D01*
X218703Y323985D01*
X218671Y323959D01*
X218650Y323948D01*
X218628Y323925D01*
X218572Y323880D01*
X215847Y321155D01*
X211926Y319531D01*
X194474Y319531D01*
X190553Y321155D01*
X187551Y324157D01*
X185927Y328078D01*
X185927Y332322D01*
X187551Y336243D01*
X190553Y339245D01*
X194474Y340869D01*
X211926Y340869D01*
X215847Y339245D01*
X218572Y336520D01*
X218646Y336467D01*
X218716Y336407D01*
X218746Y336395D01*
X218772Y336376D01*
X218859Y336349D01*
X218944Y336315D01*
X218985Y336311D01*
X219007Y336304D01*
X219039Y336305D01*
X219110Y336297D01*
X247142Y336297D01*
X247162Y336300D01*
X247181Y336298D01*
X247283Y336320D01*
X247385Y336336D01*
X247402Y336346D01*
X247422Y336350D01*
X247511Y336403D01*
X247602Y336452D01*
X247616Y336466D01*
X247633Y336476D01*
X247700Y336555D01*
X247772Y336630D01*
X247780Y336648D01*
X247793Y336663D01*
X247832Y336759D01*
X247875Y336853D01*
X247877Y336873D01*
X247885Y336891D01*
X247903Y337058D01*
X247903Y439363D01*
X248831Y441604D01*
X250654Y443426D01*
X272526Y465298D01*
X272567Y465356D01*
X272617Y465408D01*
X272639Y465455D01*
X272669Y465497D01*
X272690Y465566D01*
X272721Y465631D01*
X272726Y465683D01*
X272742Y465733D01*
X272740Y465804D01*
X272748Y465875D01*
X272737Y465926D01*
X272735Y465978D01*
X272711Y466046D01*
X272695Y466116D01*
X272669Y466161D01*
X272651Y466209D01*
X272606Y466265D01*
X272569Y466327D01*
X272530Y466361D01*
X272497Y466401D01*
X272437Y466440D01*
X272382Y466487D01*
X272334Y466506D01*
X272290Y466534D01*
X272221Y466552D01*
X272154Y466579D01*
X272083Y466587D01*
X272052Y466595D01*
X272028Y466593D01*
X271987Y466597D01*
X267832Y466597D01*
X266773Y467036D01*
X266660Y467063D01*
X266546Y467091D01*
X266539Y467091D01*
X266533Y467092D01*
X266417Y467081D01*
X266300Y467072D01*
X266295Y467070D01*
X266288Y467069D01*
X266180Y467021D01*
X266074Y466976D01*
X266068Y466971D01*
X266064Y466969D01*
X266050Y466956D01*
X265943Y466871D01*
X247846Y448774D01*
X247846Y448773D01*
X246024Y446951D01*
X243783Y446023D01*
X239061Y446023D01*
X238971Y446009D01*
X238880Y446001D01*
X238850Y445989D01*
X238818Y445984D01*
X238737Y445941D01*
X238653Y445905D01*
X238621Y445879D01*
X238601Y445868D01*
X238578Y445845D01*
X238522Y445800D01*
X234920Y442198D01*
X234867Y442124D01*
X234807Y442054D01*
X234795Y442024D01*
X234776Y441998D01*
X234749Y441911D01*
X234715Y441826D01*
X234711Y441785D01*
X234704Y441763D01*
X234705Y441731D01*
X234697Y441659D01*
X234697Y367087D01*
X233769Y364846D01*
X219289Y350367D01*
X219264Y350351D01*
X219205Y350281D01*
X219142Y350216D01*
X219122Y350180D01*
X219107Y350162D01*
X219095Y350132D01*
X219061Y350069D01*
X218849Y349557D01*
X215847Y346555D01*
X211926Y344931D01*
X194474Y344931D01*
X190553Y346555D01*
X187551Y349557D01*
X185927Y353478D01*
X185927Y357722D01*
X187551Y361643D01*
X190553Y364645D01*
X194474Y366269D01*
X211926Y366269D01*
X215713Y364700D01*
X215827Y364673D01*
X215940Y364645D01*
X215947Y364645D01*
X215953Y364644D01*
X216069Y364655D01*
X216186Y364664D01*
X216191Y364666D01*
X216198Y364667D01*
X216305Y364715D01*
X216412Y364760D01*
X216418Y364765D01*
X216422Y364767D01*
X216436Y364780D01*
X216543Y364865D01*
X222280Y370602D01*
X222333Y370676D01*
X222393Y370746D01*
X222405Y370776D01*
X222424Y370802D01*
X222451Y370889D01*
X222485Y370974D01*
X222489Y371015D01*
X222496Y371037D01*
X222495Y371069D01*
X222503Y371141D01*
X222503Y445713D01*
X223431Y447954D01*
X232766Y457289D01*
X235007Y458217D01*
X239729Y458217D01*
X239819Y458231D01*
X239910Y458239D01*
X239940Y458251D01*
X239972Y458256D01*
X240053Y458299D01*
X240137Y458335D01*
X240169Y458361D01*
X240189Y458372D01*
X240212Y458395D01*
X240268Y458440D01*
X247126Y465298D01*
X247167Y465356D01*
X247217Y465408D01*
X247239Y465455D01*
X247269Y465497D01*
X247290Y465566D01*
X247321Y465631D01*
X247326Y465683D01*
X247342Y465733D01*
X247340Y465804D01*
X247348Y465875D01*
X247337Y465926D01*
X247335Y465978D01*
X247311Y466046D01*
X247295Y466116D01*
X247269Y466160D01*
X247251Y466209D01*
X247206Y466265D01*
X247169Y466327D01*
X247130Y466361D01*
X247097Y466401D01*
X247037Y466440D01*
X246982Y466487D01*
X246934Y466506D01*
X246890Y466534D01*
X246821Y466552D01*
X246754Y466579D01*
X246683Y466587D01*
X246652Y466595D01*
X246628Y466593D01*
X246587Y466597D01*
X242432Y466597D01*
X237484Y468647D01*
X233697Y472434D01*
X232294Y475820D01*
X232241Y475906D01*
X232193Y475995D01*
X232176Y476010D01*
X232165Y476029D01*
X232087Y476093D01*
X232013Y476162D01*
X231992Y476171D01*
X231975Y476186D01*
X231881Y476222D01*
X231788Y476264D01*
X231766Y476266D01*
X231746Y476274D01*
X231645Y476278D01*
X231544Y476288D01*
X231522Y476283D01*
X231500Y476284D01*
X231403Y476256D01*
X231304Y476233D01*
X231285Y476222D01*
X231264Y476216D01*
X231181Y476158D01*
X231094Y476105D01*
X231080Y476088D01*
X231062Y476075D01*
X231001Y475994D01*
X230936Y475916D01*
X230925Y475892D01*
X230915Y475878D01*
X230905Y475847D01*
X230867Y475764D01*
X230774Y475477D01*
X229921Y473803D01*
X228816Y472282D01*
X227488Y470954D01*
X225967Y469849D01*
X224293Y468996D01*
X222506Y468415D01*
X221233Y468214D01*
X221233Y479298D01*
X221230Y479318D01*
X221232Y479337D01*
X221210Y479439D01*
X221193Y479541D01*
X221184Y479558D01*
X221180Y479578D01*
X221127Y479667D01*
X221078Y479758D01*
X221064Y479772D01*
X221054Y479789D01*
X220975Y479856D01*
X220900Y479927D01*
X220882Y479936D01*
X220867Y479949D01*
X220771Y479987D01*
X220677Y480031D01*
X220657Y480033D01*
X220639Y480041D01*
X220472Y480059D01*
X218948Y480059D01*
X218928Y480056D01*
X218909Y480058D01*
X218807Y480036D01*
X218705Y480019D01*
X218688Y480010D01*
X218668Y480006D01*
X218579Y479953D01*
X218488Y479904D01*
X218474Y479890D01*
X218457Y479880D01*
X218390Y479801D01*
X218319Y479726D01*
X218310Y479708D01*
X218297Y479693D01*
X218258Y479597D01*
X218215Y479503D01*
X218213Y479483D01*
X218205Y479465D01*
X218187Y479298D01*
X218187Y468214D01*
X216914Y468415D01*
X215127Y468996D01*
X213453Y469849D01*
X211932Y470954D01*
X210604Y472282D01*
X209499Y473803D01*
X208646Y475477D01*
X208553Y475764D01*
X208506Y475854D01*
X208465Y475946D01*
X208450Y475962D01*
X208440Y475982D01*
X208367Y476053D01*
X208299Y476127D01*
X208279Y476138D01*
X208263Y476153D01*
X208172Y476197D01*
X208083Y476246D01*
X208061Y476250D01*
X208041Y476259D01*
X207941Y476272D01*
X207841Y476290D01*
X207819Y476286D01*
X207797Y476289D01*
X207698Y476269D01*
X207598Y476254D01*
X207578Y476244D01*
X207556Y476239D01*
X207469Y476188D01*
X207379Y476142D01*
X207363Y476126D01*
X207344Y476115D01*
X207277Y476039D01*
X207206Y475967D01*
X207193Y475943D01*
X207182Y475930D01*
X207170Y475900D01*
X207126Y475820D01*
X205723Y472434D01*
X201936Y468647D01*
X200877Y468208D01*
X200777Y468147D01*
X200677Y468087D01*
X200673Y468082D01*
X200668Y468078D01*
X200593Y467989D01*
X200517Y467900D01*
X200515Y467894D01*
X200511Y467889D01*
X200469Y467781D01*
X200425Y467671D01*
X200424Y467664D01*
X200423Y467659D01*
X200422Y467641D01*
X200407Y467505D01*
X200407Y443531D01*
X200421Y443441D01*
X200429Y443350D01*
X200441Y443320D01*
X200446Y443288D01*
X200489Y443207D01*
X200525Y443123D01*
X200551Y443091D01*
X200562Y443071D01*
X200585Y443048D01*
X200630Y442992D01*
X200930Y442692D01*
X201004Y442639D01*
X201074Y442579D01*
X201104Y442567D01*
X201130Y442548D01*
X201217Y442521D01*
X201302Y442487D01*
X201343Y442483D01*
X201365Y442476D01*
X201397Y442477D01*
X201469Y442469D01*
X211926Y442469D01*
X215847Y440845D01*
X218849Y437843D01*
X220473Y433922D01*
X220473Y429678D01*
X218849Y425757D01*
X215847Y422755D01*
X211926Y421131D01*
X194474Y421131D01*
X190553Y422755D01*
X187551Y425757D01*
X185927Y429678D01*
X185927Y433922D01*
X187551Y437843D01*
X188138Y438430D01*
X188207Y438525D01*
X188276Y438619D01*
X188278Y438625D01*
X188282Y438630D01*
X188316Y438741D01*
X188352Y438853D01*
X188352Y438859D01*
X188354Y438865D01*
X188351Y438982D01*
X188350Y439099D01*
X188348Y439106D01*
X188348Y439111D01*
X188341Y439128D01*
X188303Y439260D01*
X188213Y439477D01*
X188213Y467505D01*
X188194Y467620D01*
X188177Y467736D01*
X188175Y467741D01*
X188174Y467747D01*
X188119Y467850D01*
X188066Y467955D01*
X188061Y467959D01*
X188058Y467965D01*
X187974Y468045D01*
X187890Y468127D01*
X187884Y468131D01*
X187880Y468134D01*
X187863Y468142D01*
X187743Y468208D01*
X186684Y468647D01*
X185196Y470135D01*
X185138Y470176D01*
X185086Y470226D01*
X185039Y470248D01*
X184997Y470278D01*
X184928Y470299D01*
X184863Y470329D01*
X184811Y470335D01*
X184761Y470350D01*
X184690Y470349D01*
X184619Y470357D01*
X184568Y470345D01*
X184516Y470344D01*
X184448Y470319D01*
X184378Y470304D01*
X184333Y470278D01*
X184285Y470260D01*
X184229Y470215D01*
X184167Y470178D01*
X184133Y470139D01*
X184093Y470106D01*
X184054Y470046D01*
X184007Y469991D01*
X183988Y469943D01*
X183960Y469899D01*
X183942Y469830D01*
X183915Y469763D01*
X183907Y469692D01*
X183899Y469661D01*
X183901Y469637D01*
X183897Y469596D01*
X183897Y167941D01*
X183911Y167851D01*
X183919Y167760D01*
X183931Y167730D01*
X183936Y167698D01*
X183979Y167617D01*
X184015Y167533D01*
X184041Y167501D01*
X184052Y167481D01*
X184075Y167458D01*
X184120Y167402D01*
X189857Y161665D01*
X189951Y161597D01*
X190046Y161527D01*
X190052Y161525D01*
X190057Y161522D01*
X190168Y161487D01*
X190280Y161451D01*
X190286Y161451D01*
X190292Y161449D01*
X190409Y161452D01*
X190526Y161453D01*
X190533Y161455D01*
X190538Y161456D01*
X190555Y161462D01*
X190687Y161500D01*
X194474Y163069D01*
X211926Y163069D01*
X215847Y161445D01*
X218849Y158443D01*
X220473Y154522D01*
X220473Y150278D01*
X219240Y147301D01*
X219223Y147231D01*
X219198Y147164D01*
X219195Y147112D01*
X219183Y147061D01*
X219190Y146990D01*
X219187Y146918D01*
X219202Y146868D01*
X219207Y146816D01*
X219236Y146751D01*
X219256Y146682D01*
X219285Y146639D01*
X219307Y146592D01*
X219355Y146539D01*
X219396Y146480D01*
X219438Y146449D01*
X219473Y146411D01*
X219536Y146376D01*
X219593Y146333D01*
X219643Y146317D01*
X219688Y146292D01*
X219759Y146279D01*
X219827Y146257D01*
X219879Y146258D01*
X219930Y146248D01*
X220001Y146259D01*
X220073Y146259D01*
X220142Y146279D01*
X220174Y146284D01*
X220195Y146295D01*
X220234Y146306D01*
X223229Y147547D01*
X226351Y147547D01*
X229235Y146352D01*
X231442Y144145D01*
X232637Y141261D01*
X232637Y138139D01*
X231442Y135255D01*
X231110Y134923D01*
X231057Y134849D01*
X230997Y134779D01*
X230985Y134749D01*
X230966Y134723D01*
X230939Y134636D01*
X230905Y134551D01*
X230901Y134510D01*
X230894Y134488D01*
X230895Y134456D01*
X230887Y134384D01*
X230887Y106916D01*
X230901Y106825D01*
X230909Y106734D01*
X230921Y106705D01*
X230926Y106673D01*
X230969Y106592D01*
X231005Y106508D01*
X231031Y106476D01*
X231042Y106455D01*
X231065Y106433D01*
X231110Y106377D01*
X231442Y106045D01*
X232637Y103161D01*
X232637Y100039D01*
X231442Y97155D01*
X229235Y94948D01*
X226351Y93753D01*
X223229Y93753D01*
X220345Y94948D01*
X219831Y95462D01*
X219815Y95474D01*
X219802Y95489D01*
X219715Y95545D01*
X219631Y95606D01*
X219612Y95612D01*
X219595Y95622D01*
X219495Y95648D01*
X219396Y95678D01*
X219376Y95678D01*
X219357Y95683D01*
X219254Y95675D01*
X219150Y95672D01*
X219131Y95665D01*
X219111Y95663D01*
X219017Y95623D01*
X218919Y95587D01*
X218903Y95575D01*
X218885Y95567D01*
X218754Y95462D01*
X215847Y92555D01*
X211926Y90931D01*
X194474Y90931D01*
X190553Y92555D01*
X187551Y95557D01*
X185927Y99478D01*
X185927Y103722D01*
X187551Y107643D01*
X190553Y110645D01*
X194474Y112269D01*
X211926Y112269D01*
X215847Y110645D01*
X217394Y109098D01*
X217452Y109056D01*
X217504Y109007D01*
X217551Y108985D01*
X217593Y108955D01*
X217662Y108934D01*
X217727Y108903D01*
X217779Y108898D01*
X217829Y108882D01*
X217900Y108884D01*
X217971Y108876D01*
X218022Y108887D01*
X218074Y108889D01*
X218142Y108913D01*
X218212Y108928D01*
X218257Y108955D01*
X218305Y108973D01*
X218361Y109018D01*
X218423Y109055D01*
X218457Y109094D01*
X218497Y109127D01*
X218536Y109187D01*
X218583Y109242D01*
X218602Y109290D01*
X218630Y109334D01*
X218648Y109403D01*
X218675Y109470D01*
X218683Y109541D01*
X218691Y109572D01*
X218689Y109595D01*
X218693Y109636D01*
X218693Y118964D01*
X218682Y119034D01*
X218680Y119106D01*
X218662Y119155D01*
X218654Y119206D01*
X218620Y119270D01*
X218595Y119337D01*
X218563Y119378D01*
X218538Y119424D01*
X218486Y119473D01*
X218442Y119529D01*
X218398Y119557D01*
X218360Y119593D01*
X218295Y119623D01*
X218235Y119662D01*
X218184Y119675D01*
X218137Y119697D01*
X218066Y119705D01*
X217996Y119722D01*
X217944Y119718D01*
X217893Y119724D01*
X217822Y119709D01*
X217751Y119703D01*
X217703Y119683D01*
X217652Y119672D01*
X217591Y119635D01*
X217525Y119607D01*
X217469Y119562D01*
X217441Y119545D01*
X217426Y119528D01*
X217394Y119502D01*
X215847Y117955D01*
X211926Y116331D01*
X194474Y116331D01*
X190553Y117955D01*
X187551Y120957D01*
X185927Y124878D01*
X185927Y129122D01*
X187551Y133043D01*
X190553Y136045D01*
X194474Y137669D01*
X211926Y137669D01*
X215847Y136045D01*
X216493Y135399D01*
X216572Y135342D01*
X216647Y135280D01*
X216672Y135270D01*
X216693Y135255D01*
X216786Y135227D01*
X216877Y135192D01*
X216903Y135190D01*
X216928Y135183D01*
X217025Y135185D01*
X217123Y135181D01*
X217148Y135188D01*
X217174Y135189D01*
X217265Y135223D01*
X217359Y135250D01*
X217380Y135265D01*
X217405Y135274D01*
X217481Y135335D01*
X217561Y135390D01*
X217577Y135411D01*
X217597Y135427D01*
X217650Y135509D01*
X217708Y135587D01*
X217716Y135612D01*
X217730Y135634D01*
X217754Y135729D01*
X217784Y135821D01*
X217784Y135847D01*
X217790Y135873D01*
X217782Y135970D01*
X217782Y136067D01*
X217772Y136099D01*
X217771Y136118D01*
X217758Y136148D01*
X217735Y136228D01*
X216943Y138139D01*
X216943Y141261D01*
X217735Y143172D01*
X217757Y143267D01*
X217786Y143360D01*
X217785Y143386D01*
X217791Y143411D01*
X217782Y143508D01*
X217779Y143605D01*
X217770Y143630D01*
X217768Y143656D01*
X217728Y143745D01*
X217695Y143836D01*
X217678Y143857D01*
X217668Y143881D01*
X217602Y143952D01*
X217541Y144029D01*
X217519Y144043D01*
X217501Y144062D01*
X217416Y144109D01*
X217334Y144162D01*
X217309Y144168D01*
X217286Y144181D01*
X217190Y144198D01*
X217096Y144222D01*
X217070Y144220D01*
X217044Y144224D01*
X216947Y144210D01*
X216851Y144202D01*
X216827Y144192D01*
X216801Y144188D01*
X216714Y144144D01*
X216624Y144106D01*
X216599Y144086D01*
X216581Y144077D01*
X216558Y144053D01*
X216493Y144001D01*
X215847Y143355D01*
X211926Y141731D01*
X194474Y141731D01*
X190553Y143355D01*
X187551Y146357D01*
X187339Y146869D01*
X187291Y146946D01*
X187250Y147028D01*
X187227Y147050D01*
X187210Y147078D01*
X187154Y147124D01*
X172631Y161646D01*
X171703Y163887D01*
X171703Y406393D01*
X171688Y406489D01*
X171678Y406586D01*
X171668Y406610D01*
X171664Y406636D01*
X171618Y406722D01*
X171578Y406811D01*
X171561Y406830D01*
X171548Y406853D01*
X171478Y406920D01*
X171412Y406992D01*
X171389Y407005D01*
X171370Y407023D01*
X171282Y407064D01*
X171196Y407111D01*
X171171Y407115D01*
X171147Y407126D01*
X171050Y407137D01*
X170954Y407154D01*
X170928Y407150D01*
X170903Y407153D01*
X170807Y407133D01*
X170711Y407118D01*
X170688Y407107D01*
X170662Y407101D01*
X170578Y407051D01*
X170492Y407007D01*
X170473Y406988D01*
X170451Y406975D01*
X170388Y406901D01*
X170319Y406831D01*
X170304Y406803D01*
X170291Y406788D01*
X170285Y406773D01*
X127732Y364220D01*
X127679Y364146D01*
X127619Y364076D01*
X127607Y364046D01*
X127588Y364020D01*
X127561Y363933D01*
X127527Y363848D01*
X127523Y363807D01*
X127516Y363785D01*
X127517Y363753D01*
X127509Y363681D01*
X127509Y357531D01*
X121259Y351281D01*
X112421Y351281D01*
X106171Y357531D01*
X106171Y366369D01*
X112421Y372619D01*
X118571Y372619D01*
X118661Y372633D01*
X118752Y372641D01*
X118782Y372653D01*
X118814Y372658D01*
X118895Y372701D01*
X118979Y372737D01*
X119011Y372763D01*
X119031Y372774D01*
X119054Y372797D01*
X119110Y372842D01*
X158780Y412512D01*
X158833Y412586D01*
X158893Y412656D01*
X158905Y412686D01*
X158924Y412712D01*
X158951Y412799D01*
X158985Y412884D01*
X158989Y412925D01*
X158996Y412947D01*
X158995Y412979D01*
X159003Y413051D01*
X159003Y451884D01*
X158989Y451975D01*
X158981Y452065D01*
X158969Y452095D01*
X158964Y452127D01*
X158921Y452208D01*
X158885Y452292D01*
X158859Y452324D01*
X158848Y452345D01*
X158825Y452367D01*
X158780Y452423D01*
X158448Y452755D01*
X157253Y455639D01*
X157253Y458761D01*
X158448Y461645D01*
X160655Y463852D01*
X163539Y465047D01*
X166661Y465047D01*
X169545Y463852D01*
X170404Y462993D01*
X170462Y462951D01*
X170514Y462902D01*
X170561Y462880D01*
X170603Y462850D01*
X170672Y462829D01*
X170737Y462798D01*
X170789Y462793D01*
X170839Y462777D01*
X170910Y462779D01*
X170981Y462771D01*
X171032Y462782D01*
X171084Y462784D01*
X171152Y462808D01*
X171222Y462824D01*
X171267Y462850D01*
X171315Y462868D01*
X171371Y462913D01*
X171433Y462950D01*
X171467Y462989D01*
X171507Y463022D01*
X171546Y463082D01*
X171593Y463137D01*
X171612Y463185D01*
X171640Y463229D01*
X171658Y463298D01*
X171685Y463365D01*
X171693Y463436D01*
X171701Y463467D01*
X171699Y463491D01*
X171703Y463531D01*
X171703Y467059D01*
X171689Y467149D01*
X171681Y467240D01*
X171669Y467270D01*
X171664Y467302D01*
X171621Y467383D01*
X171585Y467467D01*
X171559Y467499D01*
X171548Y467519D01*
X171525Y467542D01*
X171480Y467598D01*
X162798Y476280D01*
X162724Y476333D01*
X162654Y476393D01*
X162624Y476405D01*
X162598Y476424D01*
X162511Y476451D01*
X162426Y476485D01*
X162385Y476489D01*
X162363Y476496D01*
X162331Y476495D01*
X162259Y476503D01*
X140116Y476503D01*
X140026Y476489D01*
X139935Y476481D01*
X139906Y476469D01*
X139874Y476464D01*
X139793Y476421D01*
X139709Y476385D01*
X139677Y476359D01*
X139656Y476348D01*
X139634Y476325D01*
X139578Y476280D01*
X135229Y471931D01*
X126391Y471931D01*
X120141Y478181D01*
X120141Y487019D01*
X121662Y488540D01*
X121704Y488598D01*
X121753Y488650D01*
X121775Y488697D01*
X121805Y488739D01*
X121827Y488808D01*
X121857Y488873D01*
X121862Y488925D01*
X121878Y488975D01*
X121876Y489046D01*
X121884Y489117D01*
X121873Y489168D01*
X121871Y489220D01*
X121847Y489288D01*
X121832Y489358D01*
X121805Y489403D01*
X121787Y489451D01*
X121742Y489507D01*
X121705Y489569D01*
X121666Y489603D01*
X121633Y489643D01*
X121573Y489682D01*
X121518Y489729D01*
X121470Y489748D01*
X121426Y489776D01*
X121357Y489794D01*
X121290Y489821D01*
X121219Y489829D01*
X121188Y489837D01*
X121165Y489835D01*
X121124Y489839D01*
X10922Y489839D01*
X10902Y489836D01*
X10883Y489838D01*
X10781Y489816D01*
X10679Y489800D01*
X10662Y489790D01*
X10642Y489786D01*
X10553Y489733D01*
X10462Y489684D01*
X10448Y489670D01*
X10431Y489660D01*
X10364Y489581D01*
X10292Y489506D01*
X10284Y489488D01*
X10271Y489473D01*
X10232Y489377D01*
X10189Y489283D01*
X10187Y489263D01*
X10179Y489245D01*
X10161Y489078D01*
X10161Y479732D01*
X10172Y479662D01*
X10174Y479590D01*
X10192Y479541D01*
X10200Y479490D01*
X10234Y479426D01*
X10259Y479359D01*
X10291Y479318D01*
X10316Y479272D01*
X10368Y479223D01*
X10412Y479167D01*
X10456Y479139D01*
X10494Y479103D01*
X10559Y479073D01*
X10619Y479034D01*
X10670Y479021D01*
X10717Y478999D01*
X10788Y478991D01*
X10858Y478974D01*
X10910Y478978D01*
X10961Y478972D01*
X11032Y478987D01*
X11103Y478993D01*
X11151Y479013D01*
X11202Y479024D01*
X11263Y479061D01*
X11329Y479089D01*
X11385Y479134D01*
X11413Y479151D01*
X11428Y479168D01*
X11460Y479194D01*
X12542Y480276D01*
X14063Y481381D01*
X15737Y482234D01*
X17524Y482815D01*
X18797Y483016D01*
X18797Y471932D01*
X18800Y471912D01*
X18798Y471893D01*
X18820Y471791D01*
X18837Y471689D01*
X18846Y471672D01*
X18850Y471652D01*
X18903Y471563D01*
X18952Y471472D01*
X18966Y471458D01*
X18976Y471441D01*
X19055Y471374D01*
X19130Y471303D01*
X19148Y471294D01*
X19163Y471281D01*
X19259Y471243D01*
X19353Y471199D01*
X19373Y471197D01*
X19391Y471189D01*
X19558Y471171D01*
X20321Y471171D01*
X20321Y471169D01*
X19558Y471169D01*
X19538Y471166D01*
X19519Y471168D01*
X19417Y471146D01*
X19315Y471129D01*
X19298Y471120D01*
X19278Y471116D01*
X19189Y471063D01*
X19098Y471014D01*
X19084Y471000D01*
X19067Y470990D01*
X19000Y470911D01*
X18929Y470836D01*
X18920Y470818D01*
X18907Y470803D01*
X18868Y470707D01*
X18825Y470613D01*
X18823Y470593D01*
X18815Y470575D01*
X18797Y470408D01*
X18797Y459324D01*
X17524Y459525D01*
X15737Y460106D01*
X14063Y460959D01*
X12542Y462064D01*
X11460Y463146D01*
X11402Y463188D01*
X11350Y463237D01*
X11303Y463259D01*
X11261Y463289D01*
X11192Y463310D01*
X11127Y463341D01*
X11075Y463346D01*
X11025Y463362D01*
X10954Y463360D01*
X10883Y463368D01*
X10832Y463357D01*
X10780Y463355D01*
X10712Y463331D01*
X10642Y463316D01*
X10597Y463289D01*
X10549Y463271D01*
X10493Y463226D01*
X10431Y463189D01*
X10397Y463150D01*
X10357Y463117D01*
X10318Y463057D01*
X10271Y463002D01*
X10252Y462954D01*
X10224Y462910D01*
X10206Y462841D01*
X10179Y462774D01*
X10171Y462703D01*
X10163Y462672D01*
X10165Y462648D01*
X10161Y462608D01*
X10161Y10922D01*
X10164Y10902D01*
X10162Y10883D01*
X10184Y10781D01*
X10200Y10679D01*
X10210Y10662D01*
X10214Y10642D01*
X10267Y10553D01*
X10316Y10462D01*
X10330Y10448D01*
X10340Y10431D01*
X10419Y10364D01*
X10494Y10292D01*
X10512Y10284D01*
X10527Y10271D01*
X10623Y10232D01*
X10717Y10189D01*
X10737Y10187D01*
X10755Y10179D01*
X10922Y10161D01*
X188607Y10161D01*
X188678Y10172D01*
G37*
%LPC*%
G36*
X280532Y13207D02*
X280532Y13207D01*
X275584Y15257D01*
X271797Y19044D01*
X269747Y23992D01*
X269747Y29348D01*
X271797Y34296D01*
X275584Y38083D01*
X280532Y40133D01*
X284687Y40133D01*
X284758Y40144D01*
X284830Y40146D01*
X284879Y40164D01*
X284930Y40172D01*
X284993Y40206D01*
X285061Y40231D01*
X285101Y40263D01*
X285148Y40288D01*
X285197Y40340D01*
X285253Y40384D01*
X285281Y40428D01*
X285317Y40466D01*
X285347Y40531D01*
X285386Y40591D01*
X285399Y40642D01*
X285421Y40689D01*
X285428Y40760D01*
X285446Y40830D01*
X285442Y40882D01*
X285448Y40933D01*
X285432Y41004D01*
X285427Y41075D01*
X285406Y41123D01*
X285395Y41174D01*
X285359Y41235D01*
X285330Y41301D01*
X285286Y41357D01*
X285269Y41385D01*
X285251Y41400D01*
X285226Y41432D01*
X245574Y81084D01*
X243751Y82906D01*
X242823Y85147D01*
X242823Y263859D01*
X242809Y263949D01*
X242801Y264040D01*
X242789Y264070D01*
X242784Y264102D01*
X242741Y264183D01*
X242705Y264267D01*
X242679Y264299D01*
X242668Y264319D01*
X242645Y264342D01*
X242600Y264398D01*
X233918Y273080D01*
X233844Y273133D01*
X233774Y273193D01*
X233744Y273205D01*
X233718Y273224D01*
X233631Y273251D01*
X233546Y273285D01*
X233505Y273289D01*
X233483Y273296D01*
X233451Y273295D01*
X233379Y273303D01*
X219110Y273303D01*
X219020Y273289D01*
X218929Y273281D01*
X218900Y273269D01*
X218868Y273264D01*
X218787Y273221D01*
X218703Y273185D01*
X218671Y273159D01*
X218650Y273148D01*
X218628Y273125D01*
X218572Y273080D01*
X215847Y270355D01*
X211926Y268731D01*
X194474Y268731D01*
X190553Y270355D01*
X187551Y273357D01*
X185927Y277278D01*
X185927Y281522D01*
X187551Y285443D01*
X190553Y288445D01*
X194474Y290069D01*
X211926Y290069D01*
X215847Y288445D01*
X218572Y285720D01*
X218646Y285667D01*
X218716Y285607D01*
X218746Y285595D01*
X218772Y285576D01*
X218859Y285549D01*
X218944Y285515D01*
X218985Y285511D01*
X219007Y285504D01*
X219039Y285505D01*
X219110Y285497D01*
X237433Y285497D01*
X239674Y284569D01*
X254089Y270154D01*
X255017Y267913D01*
X255017Y89201D01*
X255031Y89111D01*
X255039Y89020D01*
X255051Y88990D01*
X255056Y88958D01*
X255099Y88877D01*
X255135Y88793D01*
X255161Y88761D01*
X255172Y88741D01*
X255195Y88718D01*
X255240Y88662D01*
X304043Y39859D01*
X304137Y39791D01*
X304232Y39721D01*
X304238Y39719D01*
X304243Y39715D01*
X304354Y39681D01*
X304466Y39645D01*
X304472Y39645D01*
X304478Y39643D01*
X304595Y39646D01*
X304712Y39647D01*
X304719Y39649D01*
X304724Y39649D01*
X304741Y39656D01*
X304873Y39694D01*
X305932Y40133D01*
X311024Y40133D01*
X311069Y40140D01*
X311115Y40138D01*
X311190Y40160D01*
X311267Y40172D01*
X311307Y40194D01*
X311351Y40207D01*
X311415Y40251D01*
X311484Y40288D01*
X311516Y40321D01*
X311553Y40347D01*
X311600Y40409D01*
X311653Y40466D01*
X311673Y40508D01*
X311700Y40544D01*
X311724Y40618D01*
X311757Y40689D01*
X311762Y40735D01*
X311776Y40778D01*
X311776Y40856D01*
X311784Y40933D01*
X311774Y40978D01*
X311774Y41024D01*
X311736Y41156D01*
X311732Y41174D01*
X311729Y41178D01*
X311727Y41185D01*
X311403Y41967D01*
X311403Y197884D01*
X311389Y197975D01*
X311381Y198065D01*
X311369Y198095D01*
X311364Y198127D01*
X311321Y198208D01*
X311285Y198292D01*
X311259Y198324D01*
X311248Y198345D01*
X311225Y198367D01*
X311180Y198423D01*
X310848Y198755D01*
X309653Y201639D01*
X309653Y204761D01*
X310848Y207645D01*
X313055Y209852D01*
X315939Y211047D01*
X319061Y211047D01*
X321945Y209852D01*
X324152Y207645D01*
X325347Y204761D01*
X325347Y201639D01*
X324152Y198755D01*
X323820Y198423D01*
X323767Y198349D01*
X323707Y198279D01*
X323695Y198249D01*
X323676Y198223D01*
X323649Y198136D01*
X323615Y198051D01*
X323611Y198010D01*
X323604Y197988D01*
X323605Y197956D01*
X323597Y197884D01*
X323597Y46021D01*
X323611Y45931D01*
X323619Y45840D01*
X323631Y45810D01*
X323636Y45778D01*
X323679Y45697D01*
X323715Y45613D01*
X323741Y45581D01*
X323752Y45561D01*
X323775Y45538D01*
X323820Y45482D01*
X329443Y39859D01*
X329537Y39791D01*
X329632Y39721D01*
X329638Y39719D01*
X329643Y39715D01*
X329754Y39681D01*
X329866Y39645D01*
X329872Y39645D01*
X329878Y39643D01*
X329995Y39646D01*
X330112Y39647D01*
X330119Y39649D01*
X330124Y39649D01*
X330141Y39656D01*
X330273Y39694D01*
X331332Y40133D01*
X336688Y40133D01*
X341636Y38083D01*
X345423Y34296D01*
X346007Y32887D01*
X346044Y32826D01*
X346074Y32761D01*
X346109Y32722D01*
X346136Y32678D01*
X346192Y32632D01*
X346240Y32580D01*
X346286Y32555D01*
X346326Y32521D01*
X346393Y32496D01*
X346456Y32461D01*
X346507Y32452D01*
X346555Y32433D01*
X346627Y32430D01*
X346698Y32417D01*
X346749Y32425D01*
X346801Y32423D01*
X346870Y32443D01*
X346941Y32453D01*
X346987Y32477D01*
X347037Y32491D01*
X347096Y32532D01*
X347160Y32565D01*
X347197Y32602D01*
X347239Y32632D01*
X347282Y32689D01*
X347332Y32740D01*
X347367Y32803D01*
X347386Y32829D01*
X347393Y32851D01*
X347413Y32887D01*
X347997Y34296D01*
X351784Y38083D01*
X352208Y38259D01*
X352308Y38320D01*
X352408Y38380D01*
X352412Y38385D01*
X352417Y38389D01*
X352492Y38478D01*
X352568Y38567D01*
X352570Y38573D01*
X352574Y38578D01*
X352616Y38686D01*
X352660Y38796D01*
X352661Y38803D01*
X352662Y38808D01*
X352663Y38826D01*
X352678Y38962D01*
X352678Y48659D01*
X352664Y48750D01*
X352656Y48840D01*
X352644Y48870D01*
X352639Y48902D01*
X352596Y48983D01*
X352560Y49067D01*
X352534Y49099D01*
X352523Y49120D01*
X352500Y49142D01*
X352455Y49198D01*
X352123Y49530D01*
X350928Y52414D01*
X350928Y55536D01*
X352123Y58420D01*
X354330Y60627D01*
X357214Y61822D01*
X360336Y61822D01*
X363220Y60627D01*
X365427Y58420D01*
X366622Y55536D01*
X366622Y52414D01*
X365427Y49530D01*
X365095Y49198D01*
X365042Y49124D01*
X364982Y49054D01*
X364970Y49024D01*
X364951Y48998D01*
X364924Y48911D01*
X364890Y48826D01*
X364886Y48785D01*
X364879Y48763D01*
X364880Y48731D01*
X364872Y48659D01*
X364872Y39488D01*
X364891Y39373D01*
X364908Y39257D01*
X364910Y39252D01*
X364911Y39246D01*
X364966Y39143D01*
X365019Y39038D01*
X365024Y39034D01*
X365027Y39028D01*
X365111Y38948D01*
X365195Y38866D01*
X365201Y38862D01*
X365205Y38859D01*
X365222Y38851D01*
X365342Y38785D01*
X367036Y38083D01*
X370823Y34296D01*
X371407Y32887D01*
X371444Y32826D01*
X371474Y32761D01*
X371509Y32722D01*
X371536Y32678D01*
X371592Y32632D01*
X371640Y32580D01*
X371686Y32555D01*
X371726Y32521D01*
X371793Y32496D01*
X371856Y32461D01*
X371907Y32452D01*
X371955Y32433D01*
X372027Y32430D01*
X372098Y32417D01*
X372149Y32425D01*
X372201Y32423D01*
X372270Y32443D01*
X372341Y32453D01*
X372387Y32477D01*
X372437Y32491D01*
X372496Y32532D01*
X372560Y32565D01*
X372597Y32602D01*
X372639Y32632D01*
X372682Y32689D01*
X372732Y32740D01*
X372767Y32803D01*
X372786Y32829D01*
X372793Y32851D01*
X372813Y32887D01*
X373397Y34296D01*
X377184Y38083D01*
X382132Y40133D01*
X387488Y40133D01*
X392436Y38083D01*
X396223Y34296D01*
X397626Y30910D01*
X397679Y30824D01*
X397727Y30735D01*
X397744Y30720D01*
X397755Y30701D01*
X397833Y30637D01*
X397907Y30568D01*
X397928Y30559D01*
X397945Y30544D01*
X398039Y30508D01*
X398132Y30466D01*
X398154Y30464D01*
X398174Y30456D01*
X398275Y30452D01*
X398376Y30442D01*
X398398Y30447D01*
X398420Y30446D01*
X398517Y30474D01*
X398616Y30497D01*
X398635Y30508D01*
X398656Y30514D01*
X398739Y30572D01*
X398826Y30625D01*
X398840Y30642D01*
X398858Y30655D01*
X398919Y30736D01*
X398984Y30814D01*
X398995Y30838D01*
X399005Y30852D01*
X399015Y30883D01*
X399053Y30966D01*
X399146Y31253D01*
X399999Y32927D01*
X401104Y34448D01*
X402432Y35776D01*
X403953Y36881D01*
X405627Y37734D01*
X407414Y38315D01*
X408687Y38516D01*
X408687Y27432D01*
X408690Y27412D01*
X408688Y27393D01*
X408710Y27291D01*
X408727Y27189D01*
X408736Y27172D01*
X408740Y27152D01*
X408793Y27063D01*
X408842Y26972D01*
X408856Y26958D01*
X408866Y26941D01*
X408945Y26874D01*
X409020Y26803D01*
X409038Y26794D01*
X409053Y26781D01*
X409149Y26743D01*
X409243Y26699D01*
X409263Y26697D01*
X409281Y26689D01*
X409448Y26671D01*
X410211Y26671D01*
X410211Y26669D01*
X409448Y26669D01*
X409428Y26666D01*
X409409Y26668D01*
X409307Y26646D01*
X409205Y26629D01*
X409188Y26620D01*
X409168Y26616D01*
X409079Y26563D01*
X408988Y26514D01*
X408974Y26500D01*
X408957Y26490D01*
X408890Y26411D01*
X408819Y26336D01*
X408810Y26318D01*
X408797Y26303D01*
X408758Y26207D01*
X408715Y26113D01*
X408713Y26093D01*
X408705Y26075D01*
X408687Y25908D01*
X408687Y14824D01*
X407414Y15025D01*
X405627Y15606D01*
X403953Y16459D01*
X402432Y17564D01*
X401104Y18892D01*
X399999Y20413D01*
X399146Y22087D01*
X399053Y22374D01*
X399006Y22464D01*
X398965Y22556D01*
X398950Y22572D01*
X398940Y22592D01*
X398867Y22663D01*
X398799Y22737D01*
X398779Y22748D01*
X398763Y22763D01*
X398672Y22807D01*
X398583Y22856D01*
X398561Y22860D01*
X398541Y22869D01*
X398441Y22882D01*
X398341Y22900D01*
X398319Y22896D01*
X398297Y22899D01*
X398198Y22879D01*
X398098Y22864D01*
X398078Y22854D01*
X398056Y22849D01*
X397969Y22798D01*
X397879Y22752D01*
X397863Y22736D01*
X397844Y22725D01*
X397777Y22649D01*
X397706Y22577D01*
X397693Y22553D01*
X397682Y22540D01*
X397670Y22510D01*
X397626Y22430D01*
X396223Y19044D01*
X392436Y15257D01*
X387488Y13207D01*
X382132Y13207D01*
X377184Y15257D01*
X373397Y19044D01*
X372813Y20453D01*
X372775Y20514D01*
X372746Y20579D01*
X372711Y20618D01*
X372684Y20662D01*
X372628Y20708D01*
X372580Y20760D01*
X372534Y20785D01*
X372494Y20819D01*
X372427Y20844D01*
X372364Y20879D01*
X372313Y20888D01*
X372265Y20907D01*
X372193Y20910D01*
X372122Y20923D01*
X372071Y20915D01*
X372019Y20917D01*
X371950Y20897D01*
X371879Y20887D01*
X371833Y20863D01*
X371783Y20849D01*
X371724Y20808D01*
X371660Y20775D01*
X371623Y20738D01*
X371581Y20708D01*
X371538Y20651D01*
X371488Y20600D01*
X371453Y20537D01*
X371434Y20511D01*
X371427Y20489D01*
X371407Y20453D01*
X370823Y19044D01*
X367036Y15257D01*
X362088Y13207D01*
X356732Y13207D01*
X351784Y15257D01*
X347997Y19044D01*
X347413Y20453D01*
X347375Y20514D01*
X347346Y20579D01*
X347311Y20618D01*
X347284Y20662D01*
X347228Y20708D01*
X347180Y20760D01*
X347134Y20785D01*
X347094Y20819D01*
X347027Y20844D01*
X346964Y20879D01*
X346913Y20888D01*
X346865Y20907D01*
X346793Y20910D01*
X346722Y20923D01*
X346671Y20915D01*
X346619Y20917D01*
X346550Y20897D01*
X346479Y20887D01*
X346433Y20863D01*
X346383Y20849D01*
X346324Y20808D01*
X346260Y20775D01*
X346223Y20738D01*
X346181Y20708D01*
X346138Y20651D01*
X346088Y20600D01*
X346053Y20537D01*
X346034Y20511D01*
X346027Y20489D01*
X346007Y20453D01*
X345423Y19044D01*
X341636Y15257D01*
X336688Y13207D01*
X331332Y13207D01*
X326384Y15257D01*
X322597Y19044D01*
X322013Y20453D01*
X321975Y20514D01*
X321946Y20579D01*
X321911Y20618D01*
X321884Y20662D01*
X321828Y20708D01*
X321780Y20760D01*
X321734Y20785D01*
X321694Y20819D01*
X321627Y20844D01*
X321564Y20879D01*
X321513Y20888D01*
X321465Y20907D01*
X321393Y20910D01*
X321322Y20923D01*
X321271Y20915D01*
X321219Y20917D01*
X321150Y20897D01*
X321079Y20887D01*
X321033Y20863D01*
X320983Y20849D01*
X320924Y20808D01*
X320860Y20775D01*
X320823Y20738D01*
X320781Y20708D01*
X320738Y20651D01*
X320688Y20600D01*
X320653Y20537D01*
X320634Y20511D01*
X320627Y20489D01*
X320607Y20453D01*
X320023Y19044D01*
X316236Y15257D01*
X311288Y13207D01*
X305932Y13207D01*
X300984Y15257D01*
X297197Y19044D01*
X296613Y20453D01*
X296575Y20514D01*
X296546Y20579D01*
X296511Y20618D01*
X296484Y20662D01*
X296428Y20708D01*
X296380Y20760D01*
X296334Y20785D01*
X296294Y20819D01*
X296227Y20844D01*
X296164Y20879D01*
X296113Y20888D01*
X296065Y20907D01*
X295993Y20910D01*
X295922Y20923D01*
X295871Y20915D01*
X295819Y20917D01*
X295750Y20897D01*
X295679Y20887D01*
X295633Y20863D01*
X295583Y20849D01*
X295524Y20808D01*
X295460Y20775D01*
X295423Y20738D01*
X295381Y20708D01*
X295338Y20651D01*
X295288Y20600D01*
X295253Y20537D01*
X295234Y20511D01*
X295227Y20489D01*
X295207Y20453D01*
X294623Y19044D01*
X290836Y15257D01*
X285888Y13207D01*
X280532Y13207D01*
G37*
%LPD*%
%LPC*%
G36*
X49239Y17553D02*
X49239Y17553D01*
X46355Y18748D01*
X44148Y20955D01*
X42953Y23839D01*
X42953Y26961D01*
X44148Y29845D01*
X44480Y30177D01*
X44522Y30236D01*
X44570Y30286D01*
X44579Y30304D01*
X44593Y30321D01*
X44605Y30351D01*
X44624Y30377D01*
X44646Y30449D01*
X44674Y30509D01*
X44676Y30527D01*
X44685Y30549D01*
X44689Y30590D01*
X44696Y30612D01*
X44695Y30644D01*
X44703Y30716D01*
X44703Y147084D01*
X44689Y147175D01*
X44681Y147265D01*
X44669Y147295D01*
X44664Y147327D01*
X44621Y147408D01*
X44585Y147492D01*
X44559Y147524D01*
X44548Y147545D01*
X44525Y147567D01*
X44480Y147623D01*
X44148Y147955D01*
X42953Y150839D01*
X42953Y153961D01*
X44148Y156845D01*
X44480Y157177D01*
X44533Y157251D01*
X44593Y157321D01*
X44605Y157351D01*
X44624Y157377D01*
X44651Y157464D01*
X44685Y157549D01*
X44689Y157590D01*
X44696Y157612D01*
X44695Y157644D01*
X44703Y157716D01*
X44703Y233245D01*
X44684Y233360D01*
X44667Y233476D01*
X44665Y233482D01*
X44664Y233488D01*
X44609Y233591D01*
X44556Y233696D01*
X44551Y233700D01*
X44548Y233705D01*
X44464Y233785D01*
X44380Y233868D01*
X44374Y233871D01*
X44370Y233875D01*
X44353Y233883D01*
X44233Y233949D01*
X42545Y234648D01*
X40338Y236855D01*
X39938Y237821D01*
X39900Y237882D01*
X39871Y237948D01*
X39836Y237986D01*
X39808Y238030D01*
X39753Y238076D01*
X39704Y238129D01*
X39659Y238154D01*
X39619Y238187D01*
X39552Y238213D01*
X39489Y238248D01*
X39437Y238257D01*
X39389Y238275D01*
X39317Y238278D01*
X39247Y238291D01*
X39195Y238284D01*
X39143Y238286D01*
X39074Y238266D01*
X39003Y238255D01*
X38957Y238232D01*
X38907Y238217D01*
X38848Y238176D01*
X38784Y238144D01*
X38748Y238107D01*
X38705Y238077D01*
X38662Y238020D01*
X38612Y237968D01*
X38577Y237906D01*
X38558Y237880D01*
X38551Y237857D01*
X38531Y237821D01*
X36813Y233674D01*
X33026Y229887D01*
X29640Y228484D01*
X29554Y228431D01*
X29465Y228383D01*
X29450Y228366D01*
X29431Y228355D01*
X29367Y228277D01*
X29298Y228203D01*
X29289Y228182D01*
X29274Y228165D01*
X29238Y228071D01*
X29196Y227978D01*
X29194Y227956D01*
X29186Y227936D01*
X29182Y227835D01*
X29172Y227734D01*
X29177Y227712D01*
X29176Y227690D01*
X29204Y227593D01*
X29227Y227494D01*
X29238Y227475D01*
X29244Y227454D01*
X29302Y227370D01*
X29355Y227284D01*
X29372Y227270D01*
X29385Y227252D01*
X29466Y227191D01*
X29544Y227126D01*
X29568Y227115D01*
X29582Y227105D01*
X29613Y227095D01*
X29696Y227057D01*
X29983Y226964D01*
X31657Y226111D01*
X33178Y225006D01*
X34506Y223678D01*
X35611Y222157D01*
X36464Y220483D01*
X37045Y218696D01*
X37246Y217423D01*
X26162Y217423D01*
X26142Y217420D01*
X26123Y217422D01*
X26021Y217400D01*
X25919Y217383D01*
X25902Y217374D01*
X25882Y217370D01*
X25793Y217317D01*
X25702Y217268D01*
X25688Y217254D01*
X25671Y217244D01*
X25604Y217165D01*
X25533Y217090D01*
X25524Y217072D01*
X25511Y217057D01*
X25473Y216961D01*
X25429Y216867D01*
X25427Y216847D01*
X25419Y216829D01*
X25401Y216662D01*
X25401Y215899D01*
X25399Y215899D01*
X25399Y216662D01*
X25396Y216682D01*
X25398Y216701D01*
X25376Y216803D01*
X25359Y216905D01*
X25350Y216922D01*
X25346Y216942D01*
X25293Y217031D01*
X25244Y217122D01*
X25230Y217136D01*
X25220Y217153D01*
X25141Y217220D01*
X25066Y217291D01*
X25048Y217300D01*
X25033Y217313D01*
X24937Y217352D01*
X24843Y217395D01*
X24823Y217397D01*
X24805Y217405D01*
X24638Y217423D01*
X13554Y217423D01*
X13755Y218696D01*
X14336Y220483D01*
X15189Y222157D01*
X16294Y223678D01*
X17622Y225006D01*
X19143Y226111D01*
X20817Y226964D01*
X21104Y227057D01*
X21194Y227104D01*
X21286Y227145D01*
X21302Y227160D01*
X21322Y227170D01*
X21393Y227243D01*
X21467Y227311D01*
X21478Y227331D01*
X21493Y227347D01*
X21537Y227438D01*
X21586Y227527D01*
X21590Y227549D01*
X21599Y227569D01*
X21612Y227669D01*
X21630Y227769D01*
X21626Y227791D01*
X21629Y227813D01*
X21609Y227912D01*
X21594Y228012D01*
X21584Y228032D01*
X21579Y228054D01*
X21528Y228141D01*
X21482Y228231D01*
X21466Y228247D01*
X21455Y228266D01*
X21379Y228333D01*
X21307Y228404D01*
X21283Y228417D01*
X21270Y228428D01*
X21240Y228440D01*
X21160Y228484D01*
X17774Y229887D01*
X13987Y233674D01*
X11937Y238622D01*
X11937Y243978D01*
X13987Y248926D01*
X17774Y252713D01*
X19183Y253297D01*
X19244Y253334D01*
X19309Y253364D01*
X19348Y253399D01*
X19392Y253426D01*
X19438Y253482D01*
X19490Y253530D01*
X19515Y253576D01*
X19549Y253616D01*
X19574Y253683D01*
X19609Y253746D01*
X19618Y253797D01*
X19637Y253845D01*
X19640Y253917D01*
X19653Y253988D01*
X19645Y254039D01*
X19647Y254091D01*
X19627Y254160D01*
X19617Y254231D01*
X19593Y254277D01*
X19579Y254327D01*
X19538Y254386D01*
X19505Y254450D01*
X19468Y254487D01*
X19438Y254529D01*
X19381Y254572D01*
X19330Y254622D01*
X19267Y254657D01*
X19241Y254676D01*
X19219Y254683D01*
X19183Y254703D01*
X17774Y255287D01*
X13987Y259074D01*
X11937Y264022D01*
X11937Y269378D01*
X13987Y274326D01*
X17774Y278113D01*
X19183Y278697D01*
X19244Y278734D01*
X19309Y278764D01*
X19348Y278799D01*
X19392Y278826D01*
X19438Y278882D01*
X19490Y278930D01*
X19515Y278976D01*
X19549Y279016D01*
X19574Y279083D01*
X19609Y279146D01*
X19618Y279197D01*
X19637Y279245D01*
X19640Y279317D01*
X19653Y279388D01*
X19645Y279439D01*
X19647Y279491D01*
X19627Y279560D01*
X19617Y279631D01*
X19593Y279677D01*
X19579Y279727D01*
X19538Y279786D01*
X19505Y279850D01*
X19468Y279887D01*
X19438Y279929D01*
X19381Y279972D01*
X19330Y280022D01*
X19267Y280057D01*
X19241Y280076D01*
X19219Y280083D01*
X19183Y280103D01*
X17774Y280687D01*
X13987Y284474D01*
X11937Y289422D01*
X11937Y294778D01*
X13987Y299726D01*
X17774Y303513D01*
X19183Y304097D01*
X19244Y304134D01*
X19309Y304164D01*
X19348Y304199D01*
X19392Y304226D01*
X19438Y304282D01*
X19490Y304330D01*
X19515Y304376D01*
X19549Y304416D01*
X19574Y304483D01*
X19609Y304546D01*
X19618Y304597D01*
X19637Y304645D01*
X19640Y304717D01*
X19653Y304788D01*
X19645Y304839D01*
X19647Y304891D01*
X19627Y304960D01*
X19617Y305031D01*
X19593Y305077D01*
X19579Y305127D01*
X19538Y305186D01*
X19505Y305250D01*
X19468Y305287D01*
X19438Y305329D01*
X19381Y305372D01*
X19330Y305422D01*
X19267Y305457D01*
X19241Y305476D01*
X19219Y305483D01*
X19183Y305503D01*
X17774Y306087D01*
X13987Y309874D01*
X11937Y314822D01*
X11937Y320178D01*
X13987Y325126D01*
X17774Y328913D01*
X19183Y329497D01*
X19244Y329534D01*
X19309Y329564D01*
X19348Y329599D01*
X19392Y329626D01*
X19438Y329682D01*
X19490Y329730D01*
X19515Y329776D01*
X19549Y329816D01*
X19574Y329883D01*
X19609Y329946D01*
X19618Y329997D01*
X19637Y330045D01*
X19640Y330117D01*
X19653Y330188D01*
X19645Y330239D01*
X19647Y330291D01*
X19627Y330360D01*
X19617Y330431D01*
X19593Y330477D01*
X19579Y330527D01*
X19538Y330586D01*
X19505Y330650D01*
X19468Y330687D01*
X19438Y330729D01*
X19381Y330772D01*
X19330Y330822D01*
X19267Y330857D01*
X19241Y330876D01*
X19219Y330883D01*
X19183Y330903D01*
X17774Y331487D01*
X13987Y335274D01*
X11937Y340222D01*
X11937Y345578D01*
X13987Y350526D01*
X17774Y354313D01*
X19183Y354897D01*
X19244Y354934D01*
X19309Y354964D01*
X19348Y354999D01*
X19392Y355026D01*
X19438Y355082D01*
X19490Y355130D01*
X19515Y355176D01*
X19549Y355216D01*
X19574Y355283D01*
X19609Y355346D01*
X19618Y355397D01*
X19637Y355445D01*
X19640Y355517D01*
X19653Y355588D01*
X19645Y355639D01*
X19647Y355691D01*
X19627Y355760D01*
X19617Y355831D01*
X19593Y355877D01*
X19579Y355927D01*
X19538Y355986D01*
X19505Y356050D01*
X19468Y356087D01*
X19438Y356129D01*
X19381Y356172D01*
X19330Y356222D01*
X19267Y356257D01*
X19241Y356276D01*
X19219Y356283D01*
X19183Y356303D01*
X17774Y356887D01*
X13987Y360674D01*
X11937Y365622D01*
X11937Y370978D01*
X13987Y375926D01*
X17774Y379713D01*
X19183Y380297D01*
X19244Y380334D01*
X19309Y380364D01*
X19348Y380399D01*
X19392Y380426D01*
X19438Y380482D01*
X19490Y380530D01*
X19515Y380576D01*
X19549Y380616D01*
X19574Y380683D01*
X19609Y380746D01*
X19618Y380797D01*
X19637Y380845D01*
X19640Y380917D01*
X19653Y380988D01*
X19645Y381039D01*
X19647Y381091D01*
X19627Y381160D01*
X19617Y381231D01*
X19593Y381277D01*
X19579Y381327D01*
X19538Y381386D01*
X19505Y381450D01*
X19468Y381487D01*
X19438Y381529D01*
X19381Y381572D01*
X19330Y381622D01*
X19267Y381657D01*
X19241Y381676D01*
X19219Y381683D01*
X19183Y381703D01*
X17774Y382287D01*
X13987Y386074D01*
X11937Y391022D01*
X11937Y396378D01*
X13987Y401326D01*
X17774Y405113D01*
X19183Y405697D01*
X19244Y405734D01*
X19309Y405764D01*
X19348Y405799D01*
X19392Y405826D01*
X19438Y405882D01*
X19490Y405930D01*
X19515Y405976D01*
X19549Y406016D01*
X19574Y406083D01*
X19609Y406146D01*
X19618Y406197D01*
X19637Y406245D01*
X19640Y406317D01*
X19653Y406388D01*
X19645Y406439D01*
X19647Y406491D01*
X19627Y406560D01*
X19617Y406631D01*
X19593Y406677D01*
X19579Y406727D01*
X19538Y406786D01*
X19505Y406850D01*
X19468Y406887D01*
X19438Y406929D01*
X19381Y406972D01*
X19330Y407022D01*
X19267Y407057D01*
X19241Y407076D01*
X19219Y407083D01*
X19183Y407103D01*
X17774Y407687D01*
X13987Y411474D01*
X11937Y416422D01*
X11937Y421778D01*
X13987Y426726D01*
X17774Y430513D01*
X22722Y432563D01*
X28078Y432563D01*
X33026Y430513D01*
X36813Y426726D01*
X38863Y421778D01*
X38863Y416422D01*
X36813Y411474D01*
X33026Y407687D01*
X31617Y407103D01*
X31556Y407065D01*
X31491Y407036D01*
X31452Y407001D01*
X31408Y406974D01*
X31362Y406918D01*
X31310Y406870D01*
X31285Y406824D01*
X31251Y406784D01*
X31226Y406717D01*
X31191Y406654D01*
X31182Y406603D01*
X31163Y406555D01*
X31160Y406483D01*
X31147Y406412D01*
X31155Y406361D01*
X31153Y406309D01*
X31173Y406240D01*
X31183Y406169D01*
X31207Y406123D01*
X31221Y406073D01*
X31262Y406014D01*
X31295Y405950D01*
X31332Y405913D01*
X31362Y405871D01*
X31419Y405828D01*
X31470Y405778D01*
X31533Y405743D01*
X31559Y405724D01*
X31581Y405717D01*
X31617Y405697D01*
X33026Y405113D01*
X36813Y401326D01*
X38863Y396378D01*
X38863Y391022D01*
X36813Y386074D01*
X33026Y382287D01*
X31617Y381703D01*
X31556Y381665D01*
X31491Y381636D01*
X31452Y381601D01*
X31408Y381574D01*
X31362Y381518D01*
X31310Y381470D01*
X31285Y381424D01*
X31251Y381384D01*
X31226Y381317D01*
X31191Y381254D01*
X31182Y381203D01*
X31163Y381155D01*
X31160Y381083D01*
X31147Y381012D01*
X31155Y380961D01*
X31153Y380909D01*
X31173Y380840D01*
X31183Y380769D01*
X31207Y380723D01*
X31221Y380673D01*
X31262Y380614D01*
X31295Y380550D01*
X31332Y380513D01*
X31362Y380471D01*
X31419Y380428D01*
X31470Y380378D01*
X31533Y380343D01*
X31559Y380324D01*
X31581Y380317D01*
X31617Y380297D01*
X33026Y379713D01*
X36813Y375926D01*
X38863Y370978D01*
X38863Y365622D01*
X36813Y360674D01*
X33026Y356887D01*
X31617Y356303D01*
X31556Y356265D01*
X31491Y356236D01*
X31452Y356201D01*
X31408Y356174D01*
X31362Y356118D01*
X31310Y356070D01*
X31285Y356024D01*
X31251Y355984D01*
X31226Y355917D01*
X31191Y355854D01*
X31182Y355803D01*
X31163Y355755D01*
X31160Y355683D01*
X31147Y355612D01*
X31155Y355561D01*
X31153Y355509D01*
X31173Y355440D01*
X31183Y355369D01*
X31207Y355323D01*
X31221Y355273D01*
X31262Y355214D01*
X31295Y355150D01*
X31332Y355113D01*
X31362Y355071D01*
X31419Y355028D01*
X31470Y354978D01*
X31533Y354943D01*
X31559Y354924D01*
X31581Y354917D01*
X31617Y354897D01*
X33026Y354313D01*
X36813Y350526D01*
X38863Y345578D01*
X38863Y340222D01*
X36813Y335274D01*
X33026Y331487D01*
X31617Y330903D01*
X31556Y330865D01*
X31491Y330836D01*
X31452Y330801D01*
X31408Y330774D01*
X31362Y330718D01*
X31310Y330670D01*
X31285Y330624D01*
X31251Y330584D01*
X31226Y330517D01*
X31191Y330454D01*
X31182Y330403D01*
X31163Y330355D01*
X31160Y330283D01*
X31147Y330212D01*
X31155Y330161D01*
X31153Y330109D01*
X31173Y330040D01*
X31183Y329969D01*
X31207Y329923D01*
X31221Y329873D01*
X31262Y329814D01*
X31295Y329750D01*
X31332Y329713D01*
X31362Y329671D01*
X31419Y329628D01*
X31470Y329578D01*
X31533Y329543D01*
X31559Y329524D01*
X31581Y329517D01*
X31617Y329497D01*
X33026Y328913D01*
X36813Y325126D01*
X38863Y320178D01*
X38863Y314822D01*
X36813Y309874D01*
X33026Y306087D01*
X31617Y305503D01*
X31556Y305465D01*
X31491Y305436D01*
X31452Y305401D01*
X31408Y305374D01*
X31362Y305318D01*
X31310Y305270D01*
X31285Y305224D01*
X31251Y305184D01*
X31226Y305117D01*
X31191Y305054D01*
X31182Y305003D01*
X31163Y304955D01*
X31160Y304883D01*
X31147Y304812D01*
X31155Y304761D01*
X31153Y304709D01*
X31173Y304640D01*
X31183Y304569D01*
X31207Y304523D01*
X31221Y304473D01*
X31262Y304414D01*
X31295Y304350D01*
X31332Y304313D01*
X31362Y304271D01*
X31419Y304228D01*
X31470Y304178D01*
X31533Y304143D01*
X31559Y304124D01*
X31581Y304117D01*
X31617Y304097D01*
X33026Y303513D01*
X36813Y299726D01*
X38863Y294778D01*
X38863Y289422D01*
X36813Y284474D01*
X33026Y280687D01*
X31617Y280103D01*
X31556Y280065D01*
X31491Y280036D01*
X31452Y280001D01*
X31408Y279974D01*
X31362Y279918D01*
X31310Y279870D01*
X31285Y279824D01*
X31251Y279784D01*
X31226Y279717D01*
X31191Y279654D01*
X31182Y279603D01*
X31163Y279555D01*
X31160Y279483D01*
X31147Y279412D01*
X31155Y279361D01*
X31153Y279309D01*
X31173Y279240D01*
X31183Y279169D01*
X31207Y279123D01*
X31221Y279073D01*
X31262Y279014D01*
X31295Y278950D01*
X31332Y278913D01*
X31362Y278871D01*
X31419Y278828D01*
X31470Y278778D01*
X31533Y278743D01*
X31559Y278724D01*
X31581Y278717D01*
X31617Y278697D01*
X33026Y278113D01*
X36813Y274326D01*
X38863Y269378D01*
X38863Y264022D01*
X36813Y259074D01*
X33026Y255287D01*
X31617Y254703D01*
X31556Y254665D01*
X31491Y254636D01*
X31452Y254601D01*
X31408Y254574D01*
X31362Y254518D01*
X31310Y254470D01*
X31285Y254424D01*
X31251Y254384D01*
X31226Y254317D01*
X31191Y254254D01*
X31182Y254203D01*
X31163Y254155D01*
X31160Y254083D01*
X31147Y254012D01*
X31155Y253961D01*
X31153Y253909D01*
X31173Y253840D01*
X31183Y253769D01*
X31207Y253723D01*
X31221Y253673D01*
X31262Y253614D01*
X31295Y253550D01*
X31332Y253513D01*
X31362Y253471D01*
X31419Y253428D01*
X31470Y253378D01*
X31533Y253343D01*
X31559Y253324D01*
X31581Y253317D01*
X31617Y253297D01*
X33026Y252713D01*
X36813Y248926D01*
X38531Y244779D01*
X38569Y244718D01*
X38598Y244652D01*
X38633Y244614D01*
X38661Y244570D01*
X38716Y244524D01*
X38764Y244471D01*
X38810Y244446D01*
X38850Y244413D01*
X38917Y244387D01*
X38980Y244352D01*
X39031Y244343D01*
X39080Y244325D01*
X39151Y244322D01*
X39222Y244309D01*
X39273Y244316D01*
X39326Y244314D01*
X39394Y244334D01*
X39465Y244345D01*
X39512Y244368D01*
X39562Y244383D01*
X39621Y244424D01*
X39685Y244456D01*
X39721Y244493D01*
X39764Y244523D01*
X39807Y244580D01*
X39857Y244632D01*
X39891Y244694D01*
X39911Y244720D01*
X39918Y244743D01*
X39938Y244779D01*
X40338Y245745D01*
X40670Y246077D01*
X40724Y246151D01*
X40783Y246221D01*
X40795Y246251D01*
X40814Y246277D01*
X40841Y246364D01*
X40875Y246449D01*
X40879Y246490D01*
X40886Y246512D01*
X40885Y246544D01*
X40893Y246616D01*
X40893Y336493D01*
X41821Y338734D01*
X65590Y362502D01*
X65643Y362576D01*
X65703Y362646D01*
X65715Y362676D01*
X65734Y362702D01*
X65761Y362789D01*
X65795Y362874D01*
X65799Y362915D01*
X65806Y362937D01*
X65805Y362969D01*
X65813Y363041D01*
X65813Y363511D01*
X67008Y366395D01*
X69215Y368602D01*
X72099Y369797D01*
X75221Y369797D01*
X78105Y368602D01*
X80312Y366395D01*
X81507Y363511D01*
X81507Y360389D01*
X80312Y357505D01*
X78105Y355298D01*
X75221Y354103D01*
X74751Y354103D01*
X74661Y354089D01*
X74570Y354081D01*
X74540Y354069D01*
X74508Y354064D01*
X74427Y354021D01*
X74343Y353985D01*
X74311Y353959D01*
X74291Y353948D01*
X74268Y353925D01*
X74212Y353880D01*
X53310Y332978D01*
X53257Y332904D01*
X53197Y332834D01*
X53185Y332804D01*
X53166Y332778D01*
X53139Y332691D01*
X53105Y332606D01*
X53101Y332565D01*
X53094Y332543D01*
X53095Y332511D01*
X53087Y332439D01*
X53087Y246616D01*
X53101Y246525D01*
X53109Y246434D01*
X53121Y246405D01*
X53126Y246373D01*
X53169Y246292D01*
X53205Y246208D01*
X53231Y246176D01*
X53242Y246155D01*
X53265Y246133D01*
X53310Y246077D01*
X53642Y245745D01*
X54837Y242861D01*
X54837Y242391D01*
X54851Y242301D01*
X54859Y242210D01*
X54871Y242180D01*
X54876Y242148D01*
X54919Y242067D01*
X54955Y241983D01*
X54981Y241951D01*
X54992Y241931D01*
X55015Y241908D01*
X55060Y241852D01*
X55969Y240944D01*
X56897Y238703D01*
X56897Y157716D01*
X56911Y157625D01*
X56919Y157535D01*
X56931Y157505D01*
X56936Y157473D01*
X56979Y157392D01*
X57015Y157308D01*
X57041Y157276D01*
X57052Y157255D01*
X57075Y157233D01*
X57120Y157177D01*
X57452Y156845D01*
X58647Y153961D01*
X58647Y150839D01*
X57452Y147955D01*
X57120Y147623D01*
X57067Y147549D01*
X57007Y147479D01*
X56995Y147449D01*
X56976Y147423D01*
X56949Y147336D01*
X56915Y147251D01*
X56911Y147210D01*
X56904Y147188D01*
X56905Y147156D01*
X56897Y147084D01*
X56897Y30716D01*
X56901Y30692D01*
X56899Y30675D01*
X56913Y30612D01*
X56919Y30534D01*
X56931Y30505D01*
X56936Y30473D01*
X56947Y30453D01*
X56951Y30435D01*
X56986Y30377D01*
X57015Y30308D01*
X57041Y30276D01*
X57052Y30255D01*
X57067Y30241D01*
X57077Y30224D01*
X57094Y30209D01*
X57120Y30177D01*
X57452Y29845D01*
X58647Y26961D01*
X58647Y23839D01*
X57452Y20955D01*
X55245Y18748D01*
X52361Y17553D01*
X49239Y17553D01*
G37*
%LPD*%
%LPC*%
G36*
X469899Y189229D02*
X469899Y189229D01*
X469899Y189992D01*
X469896Y190012D01*
X469898Y190031D01*
X469876Y190133D01*
X469859Y190235D01*
X469850Y190252D01*
X469846Y190272D01*
X469793Y190361D01*
X469744Y190452D01*
X469730Y190466D01*
X469720Y190483D01*
X469641Y190550D01*
X469566Y190621D01*
X469548Y190630D01*
X469533Y190643D01*
X469437Y190682D01*
X469343Y190725D01*
X469323Y190727D01*
X469305Y190735D01*
X469138Y190753D01*
X458054Y190753D01*
X458255Y192026D01*
X458836Y193813D01*
X459689Y195487D01*
X460794Y197008D01*
X462122Y198336D01*
X463643Y199441D01*
X465317Y200294D01*
X465604Y200387D01*
X465694Y200434D01*
X465786Y200475D01*
X465802Y200490D01*
X465822Y200500D01*
X465893Y200573D01*
X465967Y200641D01*
X465978Y200661D01*
X465993Y200677D01*
X466037Y200768D01*
X466086Y200857D01*
X466090Y200879D01*
X466099Y200899D01*
X466112Y200999D01*
X466130Y201099D01*
X466126Y201121D01*
X466129Y201143D01*
X466109Y201242D01*
X466094Y201342D01*
X466084Y201362D01*
X466079Y201384D01*
X466028Y201471D01*
X465982Y201561D01*
X465966Y201577D01*
X465955Y201596D01*
X465879Y201663D01*
X465807Y201734D01*
X465783Y201747D01*
X465770Y201758D01*
X465740Y201770D01*
X465660Y201814D01*
X462274Y203217D01*
X458487Y207004D01*
X458048Y208063D01*
X457986Y208163D01*
X457927Y208263D01*
X457922Y208267D01*
X457918Y208272D01*
X457828Y208347D01*
X457740Y208423D01*
X457734Y208425D01*
X457729Y208429D01*
X457621Y208471D01*
X457511Y208515D01*
X457504Y208516D01*
X457499Y208517D01*
X457481Y208518D01*
X457345Y208533D01*
X457257Y208533D01*
X455016Y209461D01*
X401231Y263246D01*
X400303Y265487D01*
X400303Y350520D01*
X400300Y350540D01*
X400302Y350559D01*
X400280Y350661D01*
X400264Y350763D01*
X400254Y350780D01*
X400250Y350800D01*
X400197Y350889D01*
X400148Y350980D01*
X400134Y350994D01*
X400124Y351011D01*
X400045Y351078D01*
X399970Y351150D01*
X399952Y351158D01*
X399937Y351171D01*
X399841Y351210D01*
X399747Y351253D01*
X399727Y351255D01*
X399709Y351263D01*
X399542Y351281D01*
X399441Y351281D01*
X393191Y357531D01*
X393191Y366369D01*
X399441Y372619D01*
X399542Y372619D01*
X399562Y372622D01*
X399581Y372620D01*
X399683Y372642D01*
X399785Y372658D01*
X399802Y372668D01*
X399822Y372672D01*
X399911Y372725D01*
X400002Y372774D01*
X400016Y372788D01*
X400033Y372798D01*
X400100Y372877D01*
X400172Y372952D01*
X400180Y372970D01*
X400193Y372985D01*
X400232Y373081D01*
X400275Y373175D01*
X400277Y373195D01*
X400285Y373213D01*
X400303Y373380D01*
X400303Y413784D01*
X400289Y413875D01*
X400281Y413965D01*
X400269Y413995D01*
X400264Y414027D01*
X400221Y414108D01*
X400185Y414192D01*
X400159Y414224D01*
X400148Y414245D01*
X400125Y414267D01*
X400080Y414323D01*
X399748Y414655D01*
X398553Y417539D01*
X398553Y420661D01*
X399748Y423545D01*
X401955Y425752D01*
X402594Y426017D01*
X402677Y426068D01*
X402763Y426114D01*
X402781Y426133D01*
X402803Y426146D01*
X402865Y426221D01*
X402932Y426292D01*
X402943Y426316D01*
X402960Y426336D01*
X402995Y426427D01*
X403036Y426515D01*
X403039Y426541D01*
X403048Y426565D01*
X403052Y426663D01*
X403063Y426759D01*
X403057Y426785D01*
X403058Y426811D01*
X403031Y426905D01*
X403011Y427000D01*
X402997Y427022D01*
X402990Y427047D01*
X402934Y427127D01*
X402884Y427211D01*
X402865Y427228D01*
X402850Y427249D01*
X402772Y427307D01*
X402698Y427371D01*
X402673Y427381D01*
X402652Y427396D01*
X402560Y427426D01*
X402469Y427463D01*
X402437Y427466D01*
X402418Y427472D01*
X402385Y427472D01*
X402303Y427481D01*
X399441Y427481D01*
X393191Y433731D01*
X393191Y442569D01*
X399441Y448819D01*
X408279Y448819D01*
X414529Y442569D01*
X414529Y433731D01*
X408613Y427816D01*
X408587Y427778D01*
X408553Y427747D01*
X408515Y427679D01*
X408470Y427616D01*
X408456Y427572D01*
X408434Y427532D01*
X408420Y427455D01*
X408398Y427381D01*
X408399Y427335D01*
X408391Y427290D01*
X408402Y427213D01*
X408404Y427135D01*
X408420Y427092D01*
X408426Y427046D01*
X408462Y426977D01*
X408488Y426904D01*
X408517Y426868D01*
X408538Y426827D01*
X408593Y426773D01*
X408642Y426712D01*
X408681Y426687D01*
X408713Y426655D01*
X408833Y426589D01*
X408849Y426579D01*
X408854Y426578D01*
X408860Y426574D01*
X410845Y425752D01*
X413052Y423545D01*
X414247Y420661D01*
X414247Y417539D01*
X413052Y414655D01*
X412720Y414323D01*
X412667Y414249D01*
X412607Y414179D01*
X412595Y414149D01*
X412576Y414123D01*
X412549Y414036D01*
X412515Y413951D01*
X412511Y413910D01*
X412504Y413888D01*
X412505Y413856D01*
X412497Y413784D01*
X412497Y368716D01*
X412511Y368626D01*
X412519Y368535D01*
X412531Y368506D01*
X412536Y368474D01*
X412555Y368439D01*
X412557Y368430D01*
X412580Y368391D01*
X412615Y368309D01*
X412641Y368277D01*
X412652Y368256D01*
X412673Y368236D01*
X412683Y368219D01*
X412696Y368207D01*
X412720Y368178D01*
X414529Y366369D01*
X414529Y357531D01*
X412720Y355722D01*
X412667Y355648D01*
X412607Y355578D01*
X412595Y355548D01*
X412576Y355522D01*
X412549Y355435D01*
X412515Y355350D01*
X412511Y355309D01*
X412504Y355287D01*
X412505Y355255D01*
X412497Y355184D01*
X412497Y269541D01*
X412511Y269451D01*
X412519Y269360D01*
X412531Y269330D01*
X412536Y269298D01*
X412579Y269217D01*
X412615Y269133D01*
X412641Y269101D01*
X412652Y269081D01*
X412675Y269058D01*
X412720Y269002D01*
X458438Y223284D01*
X458454Y223272D01*
X458467Y223257D01*
X458554Y223201D01*
X458638Y223140D01*
X458657Y223135D01*
X458674Y223124D01*
X458774Y223098D01*
X458873Y223068D01*
X458893Y223069D01*
X458912Y223064D01*
X459015Y223072D01*
X459119Y223074D01*
X459138Y223081D01*
X459157Y223083D01*
X459252Y223123D01*
X459350Y223159D01*
X459366Y223171D01*
X459384Y223179D01*
X459515Y223284D01*
X462274Y226043D01*
X463683Y226627D01*
X463744Y226664D01*
X463809Y226694D01*
X463848Y226729D01*
X463892Y226756D01*
X463938Y226812D01*
X463990Y226860D01*
X464015Y226906D01*
X464049Y226946D01*
X464074Y227013D01*
X464109Y227076D01*
X464118Y227127D01*
X464137Y227175D01*
X464140Y227247D01*
X464153Y227318D01*
X464145Y227369D01*
X464147Y227421D01*
X464127Y227490D01*
X464117Y227561D01*
X464093Y227607D01*
X464079Y227657D01*
X464038Y227716D01*
X464005Y227780D01*
X463968Y227817D01*
X463938Y227859D01*
X463881Y227902D01*
X463830Y227952D01*
X463767Y227987D01*
X463741Y228006D01*
X463719Y228013D01*
X463683Y228033D01*
X462274Y228617D01*
X458487Y232404D01*
X456437Y237352D01*
X456437Y242708D01*
X458487Y247656D01*
X462274Y251443D01*
X463683Y252027D01*
X463744Y252064D01*
X463809Y252094D01*
X463848Y252129D01*
X463892Y252156D01*
X463938Y252212D01*
X463990Y252260D01*
X464015Y252306D01*
X464049Y252346D01*
X464074Y252413D01*
X464109Y252476D01*
X464118Y252527D01*
X464137Y252575D01*
X464140Y252647D01*
X464153Y252718D01*
X464145Y252769D01*
X464147Y252821D01*
X464127Y252890D01*
X464117Y252961D01*
X464093Y253007D01*
X464079Y253057D01*
X464038Y253116D01*
X464005Y253180D01*
X463968Y253217D01*
X463938Y253259D01*
X463881Y253302D01*
X463830Y253352D01*
X463767Y253387D01*
X463741Y253406D01*
X463719Y253413D01*
X463683Y253433D01*
X462274Y254017D01*
X458487Y257804D01*
X456437Y262752D01*
X456437Y268108D01*
X458487Y273056D01*
X462274Y276843D01*
X463683Y277427D01*
X463744Y277464D01*
X463809Y277494D01*
X463848Y277529D01*
X463892Y277556D01*
X463938Y277612D01*
X463990Y277660D01*
X464015Y277706D01*
X464049Y277746D01*
X464074Y277813D01*
X464109Y277876D01*
X464118Y277927D01*
X464137Y277975D01*
X464140Y278047D01*
X464153Y278118D01*
X464145Y278169D01*
X464147Y278221D01*
X464127Y278290D01*
X464117Y278361D01*
X464093Y278407D01*
X464079Y278457D01*
X464038Y278516D01*
X464005Y278580D01*
X463968Y278617D01*
X463938Y278659D01*
X463881Y278702D01*
X463830Y278752D01*
X463767Y278787D01*
X463741Y278806D01*
X463719Y278813D01*
X463683Y278833D01*
X462274Y279417D01*
X458487Y283204D01*
X456437Y288152D01*
X456437Y293508D01*
X458487Y298456D01*
X462274Y302243D01*
X465216Y303462D01*
X465277Y303500D01*
X465342Y303529D01*
X465381Y303564D01*
X465425Y303591D01*
X465471Y303647D01*
X465523Y303695D01*
X465549Y303741D01*
X465582Y303781D01*
X465607Y303848D01*
X465642Y303911D01*
X465651Y303962D01*
X465670Y304010D01*
X465673Y304082D01*
X465686Y304153D01*
X465678Y304204D01*
X465680Y304256D01*
X465660Y304325D01*
X465650Y304396D01*
X465626Y304442D01*
X465612Y304492D01*
X465571Y304551D01*
X465538Y304615D01*
X465501Y304652D01*
X465472Y304694D01*
X465414Y304737D01*
X465363Y304787D01*
X465300Y304822D01*
X465274Y304841D01*
X465252Y304848D01*
X465216Y304868D01*
X462274Y306087D01*
X458487Y309874D01*
X456437Y314822D01*
X456437Y320178D01*
X458487Y325126D01*
X462274Y328913D01*
X463683Y329497D01*
X463744Y329534D01*
X463809Y329564D01*
X463848Y329599D01*
X463892Y329626D01*
X463938Y329682D01*
X463990Y329730D01*
X464015Y329776D01*
X464049Y329816D01*
X464074Y329883D01*
X464109Y329946D01*
X464118Y329997D01*
X464137Y330045D01*
X464140Y330117D01*
X464153Y330188D01*
X464145Y330239D01*
X464147Y330291D01*
X464127Y330360D01*
X464117Y330431D01*
X464093Y330477D01*
X464079Y330527D01*
X464038Y330586D01*
X464005Y330650D01*
X463968Y330687D01*
X463938Y330729D01*
X463881Y330772D01*
X463830Y330822D01*
X463767Y330857D01*
X463741Y330876D01*
X463719Y330883D01*
X463683Y330903D01*
X462274Y331487D01*
X458487Y335274D01*
X456437Y340222D01*
X456437Y345578D01*
X458487Y350526D01*
X462274Y354313D01*
X463683Y354897D01*
X463744Y354934D01*
X463809Y354964D01*
X463848Y354999D01*
X463892Y355026D01*
X463938Y355082D01*
X463990Y355130D01*
X464015Y355176D01*
X464049Y355216D01*
X464074Y355283D01*
X464109Y355346D01*
X464118Y355397D01*
X464137Y355445D01*
X464140Y355517D01*
X464153Y355588D01*
X464145Y355639D01*
X464147Y355691D01*
X464127Y355760D01*
X464117Y355831D01*
X464093Y355877D01*
X464079Y355927D01*
X464038Y355986D01*
X464005Y356050D01*
X463968Y356087D01*
X463938Y356129D01*
X463881Y356172D01*
X463830Y356222D01*
X463767Y356257D01*
X463741Y356276D01*
X463719Y356283D01*
X463683Y356303D01*
X462274Y356887D01*
X458487Y360674D01*
X456437Y365622D01*
X456437Y370978D01*
X458487Y375926D01*
X462274Y379713D01*
X463683Y380297D01*
X463744Y380334D01*
X463809Y380364D01*
X463848Y380399D01*
X463892Y380426D01*
X463938Y380482D01*
X463990Y380530D01*
X464015Y380576D01*
X464049Y380616D01*
X464074Y380683D01*
X464109Y380746D01*
X464118Y380797D01*
X464137Y380845D01*
X464140Y380917D01*
X464153Y380988D01*
X464145Y381039D01*
X464147Y381091D01*
X464127Y381160D01*
X464117Y381231D01*
X464093Y381277D01*
X464079Y381327D01*
X464038Y381386D01*
X464005Y381450D01*
X463968Y381487D01*
X463938Y381529D01*
X463881Y381572D01*
X463830Y381622D01*
X463767Y381657D01*
X463741Y381676D01*
X463719Y381683D01*
X463683Y381703D01*
X462274Y382287D01*
X458487Y386074D01*
X456437Y391022D01*
X456437Y396378D01*
X458487Y401326D01*
X462274Y405113D01*
X463683Y405697D01*
X463744Y405734D01*
X463809Y405764D01*
X463848Y405799D01*
X463892Y405826D01*
X463938Y405882D01*
X463990Y405930D01*
X464015Y405976D01*
X464049Y406016D01*
X464074Y406083D01*
X464109Y406146D01*
X464118Y406197D01*
X464137Y406245D01*
X464140Y406317D01*
X464153Y406388D01*
X464145Y406439D01*
X464147Y406491D01*
X464127Y406560D01*
X464117Y406631D01*
X464093Y406677D01*
X464079Y406727D01*
X464038Y406786D01*
X464005Y406850D01*
X463968Y406887D01*
X463938Y406929D01*
X463881Y406972D01*
X463830Y407022D01*
X463767Y407057D01*
X463741Y407076D01*
X463719Y407083D01*
X463683Y407103D01*
X462274Y407687D01*
X458487Y411474D01*
X456437Y416422D01*
X456437Y421778D01*
X458487Y426726D01*
X462274Y430513D01*
X467222Y432563D01*
X472578Y432563D01*
X477526Y430513D01*
X481313Y426726D01*
X483363Y421778D01*
X483363Y416422D01*
X481313Y411474D01*
X477526Y407687D01*
X476117Y407103D01*
X476056Y407065D01*
X475991Y407036D01*
X475952Y407001D01*
X475908Y406974D01*
X475862Y406918D01*
X475810Y406870D01*
X475785Y406824D01*
X475751Y406784D01*
X475726Y406717D01*
X475691Y406654D01*
X475682Y406603D01*
X475663Y406555D01*
X475660Y406483D01*
X475647Y406412D01*
X475655Y406361D01*
X475653Y406309D01*
X475673Y406240D01*
X475683Y406169D01*
X475707Y406123D01*
X475721Y406073D01*
X475762Y406014D01*
X475795Y405950D01*
X475832Y405913D01*
X475862Y405871D01*
X475919Y405828D01*
X475970Y405778D01*
X476033Y405743D01*
X476059Y405724D01*
X476081Y405717D01*
X476117Y405697D01*
X477526Y405113D01*
X481313Y401326D01*
X483363Y396378D01*
X483363Y391022D01*
X481313Y386074D01*
X477526Y382287D01*
X476117Y381703D01*
X476056Y381665D01*
X475991Y381636D01*
X475952Y381601D01*
X475908Y381574D01*
X475862Y381518D01*
X475810Y381470D01*
X475785Y381424D01*
X475751Y381384D01*
X475726Y381317D01*
X475691Y381254D01*
X475682Y381203D01*
X475663Y381155D01*
X475660Y381083D01*
X475647Y381012D01*
X475655Y380961D01*
X475653Y380909D01*
X475673Y380840D01*
X475683Y380769D01*
X475707Y380723D01*
X475721Y380673D01*
X475762Y380614D01*
X475795Y380550D01*
X475832Y380513D01*
X475862Y380471D01*
X475919Y380428D01*
X475970Y380378D01*
X476033Y380343D01*
X476059Y380324D01*
X476081Y380317D01*
X476117Y380297D01*
X477526Y379713D01*
X481313Y375926D01*
X483363Y370978D01*
X483363Y365622D01*
X481313Y360674D01*
X477526Y356887D01*
X476117Y356303D01*
X476056Y356265D01*
X475991Y356236D01*
X475952Y356201D01*
X475908Y356174D01*
X475862Y356118D01*
X475810Y356070D01*
X475785Y356024D01*
X475751Y355984D01*
X475726Y355917D01*
X475691Y355854D01*
X475682Y355803D01*
X475663Y355755D01*
X475660Y355683D01*
X475647Y355612D01*
X475655Y355561D01*
X475653Y355509D01*
X475673Y355440D01*
X475683Y355369D01*
X475707Y355323D01*
X475721Y355273D01*
X475762Y355214D01*
X475795Y355150D01*
X475832Y355113D01*
X475862Y355071D01*
X475919Y355028D01*
X475970Y354978D01*
X476033Y354943D01*
X476059Y354924D01*
X476081Y354917D01*
X476117Y354897D01*
X477526Y354313D01*
X481313Y350526D01*
X483363Y345578D01*
X483363Y340222D01*
X481313Y335274D01*
X477526Y331487D01*
X476117Y330903D01*
X476056Y330865D01*
X475991Y330836D01*
X475952Y330801D01*
X475908Y330774D01*
X475862Y330718D01*
X475810Y330670D01*
X475785Y330624D01*
X475751Y330584D01*
X475726Y330517D01*
X475691Y330454D01*
X475682Y330403D01*
X475663Y330355D01*
X475660Y330283D01*
X475647Y330212D01*
X475655Y330161D01*
X475653Y330109D01*
X475673Y330040D01*
X475683Y329969D01*
X475707Y329923D01*
X475721Y329873D01*
X475762Y329814D01*
X475795Y329750D01*
X475832Y329713D01*
X475862Y329671D01*
X475919Y329628D01*
X475970Y329578D01*
X476033Y329543D01*
X476059Y329524D01*
X476081Y329517D01*
X476117Y329497D01*
X477526Y328913D01*
X481313Y325126D01*
X483363Y320178D01*
X483363Y314822D01*
X481313Y309874D01*
X477526Y306087D01*
X474584Y304868D01*
X474523Y304830D01*
X474458Y304801D01*
X474419Y304766D01*
X474375Y304739D01*
X474329Y304683D01*
X474277Y304635D01*
X474252Y304589D01*
X474218Y304549D01*
X474193Y304482D01*
X474158Y304419D01*
X474149Y304368D01*
X474130Y304320D01*
X474127Y304248D01*
X474114Y304177D01*
X474122Y304126D01*
X474120Y304074D01*
X474140Y304005D01*
X474150Y303934D01*
X474174Y303888D01*
X474188Y303838D01*
X474229Y303779D01*
X474262Y303715D01*
X474299Y303678D01*
X474328Y303636D01*
X474386Y303593D01*
X474437Y303543D01*
X474500Y303508D01*
X474526Y303489D01*
X474548Y303482D01*
X474584Y303462D01*
X477526Y302243D01*
X481313Y298456D01*
X483363Y293508D01*
X483363Y288152D01*
X481313Y283204D01*
X477526Y279417D01*
X476117Y278833D01*
X476056Y278795D01*
X475991Y278766D01*
X475952Y278731D01*
X475908Y278704D01*
X475862Y278648D01*
X475810Y278600D01*
X475785Y278554D01*
X475751Y278514D01*
X475726Y278447D01*
X475691Y278384D01*
X475682Y278333D01*
X475663Y278285D01*
X475660Y278213D01*
X475647Y278142D01*
X475655Y278091D01*
X475653Y278039D01*
X475673Y277970D01*
X475683Y277899D01*
X475707Y277853D01*
X475721Y277803D01*
X475762Y277744D01*
X475795Y277680D01*
X475832Y277643D01*
X475862Y277601D01*
X475919Y277558D01*
X475970Y277508D01*
X476031Y277474D01*
X476036Y277470D01*
X476039Y277469D01*
X476059Y277454D01*
X476081Y277447D01*
X476117Y277427D01*
X477526Y276843D01*
X481313Y273056D01*
X483363Y268108D01*
X483363Y262752D01*
X481313Y257804D01*
X477526Y254017D01*
X476117Y253433D01*
X476056Y253395D01*
X475991Y253366D01*
X475952Y253331D01*
X475908Y253304D01*
X475862Y253248D01*
X475810Y253200D01*
X475784Y253154D01*
X475751Y253114D01*
X475726Y253047D01*
X475691Y252984D01*
X475682Y252933D01*
X475663Y252885D01*
X475660Y252813D01*
X475647Y252742D01*
X475655Y252691D01*
X475653Y252639D01*
X475673Y252570D01*
X475683Y252499D01*
X475707Y252453D01*
X475721Y252403D01*
X475762Y252344D01*
X475795Y252280D01*
X475832Y252243D01*
X475862Y252201D01*
X475919Y252158D01*
X475970Y252108D01*
X476033Y252073D01*
X476059Y252054D01*
X476081Y252047D01*
X476117Y252027D01*
X477526Y251443D01*
X481313Y247656D01*
X483363Y242708D01*
X483363Y237352D01*
X481313Y232404D01*
X477526Y228617D01*
X476117Y228033D01*
X476056Y227995D01*
X475991Y227966D01*
X475952Y227931D01*
X475908Y227904D01*
X475862Y227848D01*
X475810Y227800D01*
X475785Y227754D01*
X475751Y227714D01*
X475726Y227647D01*
X475691Y227584D01*
X475682Y227533D01*
X475663Y227485D01*
X475660Y227413D01*
X475647Y227342D01*
X475655Y227291D01*
X475653Y227239D01*
X475673Y227170D01*
X475683Y227099D01*
X475707Y227053D01*
X475721Y227003D01*
X475762Y226944D01*
X475795Y226880D01*
X475832Y226843D01*
X475862Y226801D01*
X475919Y226758D01*
X475970Y226708D01*
X476033Y226673D01*
X476059Y226654D01*
X476081Y226647D01*
X476117Y226627D01*
X477526Y226043D01*
X481313Y222256D01*
X483363Y217308D01*
X483363Y211952D01*
X481313Y207004D01*
X477526Y203217D01*
X474140Y201814D01*
X474054Y201761D01*
X473965Y201713D01*
X473950Y201696D01*
X473931Y201685D01*
X473867Y201607D01*
X473798Y201533D01*
X473789Y201512D01*
X473774Y201495D01*
X473738Y201401D01*
X473696Y201308D01*
X473694Y201286D01*
X473686Y201266D01*
X473682Y201165D01*
X473672Y201064D01*
X473677Y201042D01*
X473676Y201020D01*
X473704Y200923D01*
X473727Y200824D01*
X473738Y200805D01*
X473744Y200784D01*
X473802Y200701D01*
X473855Y200614D01*
X473872Y200600D01*
X473885Y200582D01*
X473966Y200521D01*
X474044Y200456D01*
X474068Y200445D01*
X474082Y200435D01*
X474113Y200425D01*
X474196Y200387D01*
X474483Y200294D01*
X476157Y199441D01*
X477678Y198336D01*
X479006Y197008D01*
X480111Y195487D01*
X480964Y193813D01*
X481545Y192026D01*
X481746Y190753D01*
X470662Y190753D01*
X470642Y190750D01*
X470623Y190752D01*
X470521Y190730D01*
X470419Y190713D01*
X470402Y190704D01*
X470382Y190700D01*
X470293Y190647D01*
X470202Y190598D01*
X470188Y190584D01*
X470171Y190574D01*
X470104Y190495D01*
X470033Y190420D01*
X470024Y190402D01*
X470011Y190387D01*
X469973Y190291D01*
X469929Y190197D01*
X469927Y190177D01*
X469919Y190159D01*
X469901Y189992D01*
X469901Y189229D01*
X469899Y189229D01*
G37*
%LPD*%
%LPC*%
G36*
X91149Y167413D02*
X91149Y167413D01*
X88265Y168608D01*
X86058Y170815D01*
X84863Y173699D01*
X84863Y176821D01*
X86058Y179705D01*
X86390Y180037D01*
X86443Y180111D01*
X86503Y180181D01*
X86515Y180211D01*
X86534Y180237D01*
X86561Y180324D01*
X86595Y180409D01*
X86599Y180450D01*
X86606Y180472D01*
X86605Y180504D01*
X86613Y180576D01*
X86613Y456964D01*
X86599Y457055D01*
X86591Y457145D01*
X86579Y457175D01*
X86574Y457207D01*
X86531Y457288D01*
X86495Y457372D01*
X86469Y457404D01*
X86458Y457425D01*
X86435Y457447D01*
X86390Y457503D01*
X86058Y457835D01*
X84863Y460719D01*
X84863Y463841D01*
X86058Y466725D01*
X88265Y468932D01*
X91149Y470127D01*
X94271Y470127D01*
X97155Y468932D01*
X99362Y466725D01*
X100557Y463841D01*
X100557Y460719D01*
X99362Y457835D01*
X99030Y457503D01*
X98977Y457429D01*
X98917Y457359D01*
X98905Y457329D01*
X98886Y457303D01*
X98859Y457216D01*
X98825Y457131D01*
X98821Y457090D01*
X98814Y457068D01*
X98815Y457036D01*
X98807Y456964D01*
X98807Y180576D01*
X98821Y180485D01*
X98829Y180395D01*
X98841Y180365D01*
X98846Y180333D01*
X98889Y180252D01*
X98925Y180168D01*
X98951Y180136D01*
X98962Y180115D01*
X98985Y180093D01*
X99030Y180037D01*
X99362Y179705D01*
X100557Y176821D01*
X100557Y173699D01*
X99362Y170815D01*
X97155Y168608D01*
X94271Y167413D01*
X91149Y167413D01*
G37*
%LPD*%
%LPC*%
G36*
X111622Y11937D02*
X111622Y11937D01*
X106674Y13987D01*
X102887Y17774D01*
X100837Y22722D01*
X100837Y28078D01*
X102887Y33026D01*
X106674Y36813D01*
X110060Y38216D01*
X110146Y38269D01*
X110235Y38317D01*
X110250Y38334D01*
X110269Y38345D01*
X110333Y38423D01*
X110402Y38497D01*
X110411Y38518D01*
X110426Y38535D01*
X110462Y38629D01*
X110504Y38722D01*
X110506Y38744D01*
X110514Y38764D01*
X110518Y38865D01*
X110528Y38966D01*
X110523Y38988D01*
X110524Y39010D01*
X110496Y39107D01*
X110473Y39206D01*
X110462Y39225D01*
X110456Y39246D01*
X110398Y39329D01*
X110345Y39416D01*
X110328Y39430D01*
X110315Y39448D01*
X110234Y39509D01*
X110156Y39574D01*
X110132Y39585D01*
X110118Y39595D01*
X110087Y39605D01*
X110004Y39643D01*
X109717Y39736D01*
X108043Y40589D01*
X106522Y41694D01*
X105194Y43022D01*
X104089Y44543D01*
X103236Y46217D01*
X102655Y48004D01*
X102454Y49277D01*
X113538Y49277D01*
X113558Y49280D01*
X113577Y49278D01*
X113679Y49300D01*
X113781Y49317D01*
X113798Y49326D01*
X113818Y49330D01*
X113907Y49383D01*
X113998Y49432D01*
X114012Y49446D01*
X114029Y49456D01*
X114096Y49535D01*
X114167Y49610D01*
X114176Y49628D01*
X114189Y49643D01*
X114227Y49739D01*
X114271Y49833D01*
X114273Y49853D01*
X114281Y49871D01*
X114299Y50038D01*
X114299Y51562D01*
X114296Y51582D01*
X114298Y51601D01*
X114276Y51703D01*
X114259Y51805D01*
X114250Y51822D01*
X114246Y51842D01*
X114193Y51931D01*
X114144Y52022D01*
X114130Y52036D01*
X114120Y52053D01*
X114041Y52120D01*
X113966Y52191D01*
X113948Y52200D01*
X113933Y52213D01*
X113837Y52252D01*
X113743Y52295D01*
X113723Y52297D01*
X113705Y52305D01*
X113538Y52323D01*
X102454Y52323D01*
X102655Y53596D01*
X103236Y55383D01*
X104089Y57057D01*
X105194Y58578D01*
X106522Y59906D01*
X108043Y61011D01*
X109717Y61864D01*
X110004Y61957D01*
X110094Y62004D01*
X110186Y62045D01*
X110202Y62060D01*
X110222Y62070D01*
X110293Y62143D01*
X110367Y62211D01*
X110378Y62231D01*
X110393Y62247D01*
X110437Y62338D01*
X110486Y62427D01*
X110490Y62449D01*
X110499Y62469D01*
X110512Y62569D01*
X110530Y62669D01*
X110526Y62691D01*
X110529Y62713D01*
X110509Y62812D01*
X110494Y62912D01*
X110484Y62932D01*
X110479Y62954D01*
X110428Y63041D01*
X110382Y63131D01*
X110366Y63147D01*
X110355Y63166D01*
X110279Y63233D01*
X110207Y63304D01*
X110183Y63317D01*
X110170Y63328D01*
X110152Y63335D01*
X110149Y63338D01*
X110132Y63345D01*
X110060Y63384D01*
X106674Y64787D01*
X102887Y68574D01*
X100837Y73522D01*
X100837Y78878D01*
X102887Y83826D01*
X106674Y87613D01*
X108083Y88197D01*
X108144Y88235D01*
X108209Y88264D01*
X108248Y88299D01*
X108292Y88326D01*
X108338Y88382D01*
X108390Y88430D01*
X108415Y88476D01*
X108449Y88516D01*
X108474Y88583D01*
X108509Y88646D01*
X108518Y88697D01*
X108537Y88745D01*
X108540Y88817D01*
X108553Y88888D01*
X108545Y88939D01*
X108547Y88991D01*
X108527Y89060D01*
X108517Y89131D01*
X108493Y89177D01*
X108479Y89227D01*
X108438Y89286D01*
X108405Y89350D01*
X108368Y89387D01*
X108338Y89429D01*
X108281Y89472D01*
X108230Y89522D01*
X108167Y89557D01*
X108141Y89576D01*
X108119Y89583D01*
X108083Y89603D01*
X106674Y90187D01*
X102887Y93974D01*
X100837Y98922D01*
X100837Y104278D01*
X102887Y109226D01*
X106674Y113013D01*
X111622Y115063D01*
X116978Y115063D01*
X121926Y113013D01*
X125713Y109226D01*
X127763Y104278D01*
X127763Y98922D01*
X125713Y93974D01*
X121926Y90187D01*
X120517Y89603D01*
X120456Y89566D01*
X120391Y89536D01*
X120352Y89501D01*
X120308Y89474D01*
X120262Y89418D01*
X120210Y89370D01*
X120185Y89324D01*
X120151Y89284D01*
X120126Y89217D01*
X120091Y89154D01*
X120082Y89103D01*
X120063Y89055D01*
X120060Y88983D01*
X120047Y88912D01*
X120055Y88861D01*
X120053Y88809D01*
X120073Y88740D01*
X120083Y88669D01*
X120107Y88623D01*
X120121Y88573D01*
X120162Y88514D01*
X120195Y88450D01*
X120232Y88413D01*
X120262Y88371D01*
X120319Y88328D01*
X120370Y88278D01*
X120433Y88243D01*
X120459Y88224D01*
X120481Y88217D01*
X120517Y88197D01*
X121926Y87613D01*
X125713Y83826D01*
X127763Y78878D01*
X127763Y73522D01*
X125713Y68574D01*
X121926Y64787D01*
X118540Y63384D01*
X118454Y63331D01*
X118365Y63283D01*
X118350Y63266D01*
X118331Y63255D01*
X118267Y63177D01*
X118198Y63103D01*
X118189Y63082D01*
X118174Y63065D01*
X118138Y62971D01*
X118096Y62878D01*
X118094Y62856D01*
X118086Y62836D01*
X118082Y62735D01*
X118072Y62634D01*
X118077Y62612D01*
X118076Y62590D01*
X118104Y62493D01*
X118127Y62394D01*
X118138Y62375D01*
X118144Y62354D01*
X118202Y62271D01*
X118255Y62184D01*
X118272Y62170D01*
X118285Y62152D01*
X118366Y62091D01*
X118444Y62026D01*
X118468Y62015D01*
X118482Y62005D01*
X118513Y61995D01*
X118596Y61957D01*
X118883Y61864D01*
X120557Y61011D01*
X122078Y59906D01*
X123406Y58578D01*
X124511Y57057D01*
X125364Y55383D01*
X125457Y55096D01*
X125504Y55006D01*
X125545Y54914D01*
X125560Y54898D01*
X125570Y54878D01*
X125643Y54807D01*
X125711Y54733D01*
X125731Y54722D01*
X125747Y54707D01*
X125838Y54663D01*
X125927Y54614D01*
X125949Y54610D01*
X125969Y54601D01*
X126069Y54588D01*
X126169Y54570D01*
X126191Y54574D01*
X126213Y54571D01*
X126312Y54591D01*
X126412Y54606D01*
X126432Y54616D01*
X126454Y54621D01*
X126541Y54672D01*
X126631Y54718D01*
X126647Y54734D01*
X126666Y54745D01*
X126733Y54821D01*
X126804Y54893D01*
X126817Y54917D01*
X126828Y54930D01*
X126840Y54960D01*
X126884Y55040D01*
X128287Y58426D01*
X132074Y62213D01*
X137022Y64263D01*
X142378Y64263D01*
X147326Y62213D01*
X151113Y58426D01*
X153163Y53478D01*
X153163Y48122D01*
X151113Y43174D01*
X147326Y39387D01*
X143940Y37984D01*
X143854Y37931D01*
X143765Y37883D01*
X143750Y37866D01*
X143731Y37855D01*
X143667Y37777D01*
X143598Y37703D01*
X143589Y37682D01*
X143574Y37665D01*
X143538Y37571D01*
X143496Y37478D01*
X143494Y37456D01*
X143486Y37436D01*
X143482Y37335D01*
X143472Y37234D01*
X143477Y37212D01*
X143476Y37190D01*
X143504Y37093D01*
X143527Y36994D01*
X143538Y36975D01*
X143544Y36954D01*
X143602Y36871D01*
X143655Y36784D01*
X143672Y36770D01*
X143685Y36752D01*
X143766Y36691D01*
X143844Y36626D01*
X143868Y36615D01*
X143882Y36605D01*
X143913Y36595D01*
X143996Y36557D01*
X144283Y36464D01*
X145957Y35611D01*
X147478Y34506D01*
X148806Y33178D01*
X149911Y31657D01*
X150764Y29983D01*
X151345Y28196D01*
X151546Y26923D01*
X140462Y26923D01*
X140442Y26920D01*
X140423Y26922D01*
X140321Y26900D01*
X140219Y26883D01*
X140202Y26874D01*
X140182Y26870D01*
X140093Y26817D01*
X140002Y26768D01*
X139988Y26754D01*
X139971Y26744D01*
X139904Y26665D01*
X139833Y26590D01*
X139824Y26572D01*
X139811Y26557D01*
X139773Y26461D01*
X139729Y26367D01*
X139727Y26347D01*
X139719Y26329D01*
X139701Y26162D01*
X139701Y25399D01*
X138938Y25399D01*
X138918Y25396D01*
X138899Y25398D01*
X138797Y25376D01*
X138695Y25359D01*
X138678Y25350D01*
X138658Y25346D01*
X138569Y25293D01*
X138478Y25244D01*
X138464Y25230D01*
X138447Y25220D01*
X138380Y25141D01*
X138309Y25066D01*
X138300Y25048D01*
X138287Y25033D01*
X138248Y24937D01*
X138205Y24843D01*
X138203Y24823D01*
X138195Y24805D01*
X138177Y24638D01*
X138177Y13554D01*
X136904Y13755D01*
X135117Y14336D01*
X133443Y15189D01*
X131922Y16294D01*
X130594Y17622D01*
X129489Y19143D01*
X128636Y20817D01*
X128543Y21104D01*
X128496Y21194D01*
X128455Y21286D01*
X128440Y21302D01*
X128430Y21322D01*
X128357Y21393D01*
X128289Y21467D01*
X128269Y21478D01*
X128253Y21493D01*
X128162Y21537D01*
X128073Y21586D01*
X128051Y21590D01*
X128031Y21599D01*
X127931Y21612D01*
X127831Y21630D01*
X127809Y21626D01*
X127787Y21629D01*
X127688Y21609D01*
X127588Y21594D01*
X127568Y21584D01*
X127546Y21579D01*
X127459Y21528D01*
X127369Y21482D01*
X127353Y21466D01*
X127334Y21455D01*
X127267Y21379D01*
X127196Y21307D01*
X127183Y21283D01*
X127172Y21270D01*
X127160Y21240D01*
X127116Y21160D01*
X125713Y17774D01*
X121926Y13987D01*
X116978Y11937D01*
X111622Y11937D01*
G37*
%LPD*%
%LPC*%
G36*
X112739Y119153D02*
X112739Y119153D01*
X109855Y120348D01*
X107648Y122555D01*
X106453Y125439D01*
X106453Y128561D01*
X107648Y131445D01*
X107980Y131777D01*
X108033Y131851D01*
X108093Y131921D01*
X108105Y131951D01*
X108124Y131977D01*
X108151Y132064D01*
X108185Y132149D01*
X108189Y132190D01*
X108196Y132212D01*
X108195Y132244D01*
X108203Y132316D01*
X108203Y312184D01*
X108189Y312275D01*
X108181Y312365D01*
X108169Y312395D01*
X108164Y312427D01*
X108121Y312508D01*
X108085Y312592D01*
X108059Y312624D01*
X108048Y312645D01*
X108025Y312667D01*
X107980Y312723D01*
X107648Y313055D01*
X106453Y315939D01*
X106453Y319061D01*
X107648Y321945D01*
X109855Y324152D01*
X112739Y325347D01*
X115861Y325347D01*
X118745Y324152D01*
X120952Y321945D01*
X122147Y319061D01*
X122147Y315939D01*
X120952Y313055D01*
X120620Y312723D01*
X120567Y312649D01*
X120507Y312579D01*
X120495Y312549D01*
X120476Y312523D01*
X120449Y312436D01*
X120415Y312351D01*
X120411Y312310D01*
X120404Y312288D01*
X120405Y312256D01*
X120397Y312184D01*
X120397Y132316D01*
X120411Y132225D01*
X120419Y132135D01*
X120431Y132105D01*
X120436Y132073D01*
X120479Y131992D01*
X120515Y131908D01*
X120541Y131876D01*
X120552Y131855D01*
X120575Y131833D01*
X120620Y131777D01*
X120952Y131445D01*
X122147Y128561D01*
X122147Y125439D01*
X120952Y122555D01*
X118745Y120348D01*
X115861Y119153D01*
X112739Y119153D01*
G37*
%LPD*%
%LPC*%
G36*
X74639Y68353D02*
X74639Y68353D01*
X71755Y69548D01*
X69548Y71755D01*
X68353Y74639D01*
X68353Y77761D01*
X69548Y80645D01*
X69880Y80977D01*
X69933Y81051D01*
X69993Y81121D01*
X70005Y81151D01*
X70024Y81177D01*
X70051Y81264D01*
X70085Y81349D01*
X70089Y81390D01*
X70096Y81412D01*
X70095Y81444D01*
X70103Y81516D01*
X70103Y261384D01*
X70101Y261400D01*
X70102Y261413D01*
X70088Y261477D01*
X70081Y261565D01*
X70069Y261595D01*
X70064Y261627D01*
X70050Y261653D01*
X70049Y261655D01*
X70021Y261708D01*
X69985Y261792D01*
X69959Y261824D01*
X69948Y261845D01*
X69925Y261867D01*
X69880Y261923D01*
X69548Y262255D01*
X68353Y265139D01*
X68353Y268261D01*
X69548Y271145D01*
X71755Y273352D01*
X74639Y274547D01*
X77761Y274547D01*
X80645Y273352D01*
X82852Y271145D01*
X84047Y268261D01*
X84047Y265139D01*
X82852Y262255D01*
X82520Y261923D01*
X82467Y261849D01*
X82407Y261779D01*
X82395Y261749D01*
X82376Y261723D01*
X82349Y261636D01*
X82334Y261599D01*
X82325Y261578D01*
X82324Y261574D01*
X82315Y261551D01*
X82311Y261510D01*
X82304Y261488D01*
X82305Y261456D01*
X82297Y261384D01*
X82297Y81516D01*
X82311Y81425D01*
X82319Y81335D01*
X82331Y81305D01*
X82336Y81273D01*
X82379Y81192D01*
X82415Y81108D01*
X82441Y81076D01*
X82452Y81055D01*
X82475Y81033D01*
X82520Y80977D01*
X82852Y80645D01*
X84047Y77761D01*
X84047Y74639D01*
X82852Y71755D01*
X80645Y69548D01*
X77761Y68353D01*
X74639Y68353D01*
G37*
%LPD*%
%LPC*%
G36*
X444499Y25399D02*
X444499Y25399D01*
X444499Y26162D01*
X444497Y26176D01*
X444498Y26186D01*
X444497Y26192D01*
X444498Y26201D01*
X444476Y26303D01*
X444459Y26405D01*
X444450Y26422D01*
X444446Y26442D01*
X444393Y26531D01*
X444344Y26622D01*
X444330Y26636D01*
X444320Y26653D01*
X444241Y26720D01*
X444166Y26791D01*
X444148Y26800D01*
X444133Y26813D01*
X444037Y26852D01*
X443943Y26895D01*
X443923Y26897D01*
X443905Y26905D01*
X443738Y26923D01*
X432654Y26923D01*
X432855Y28196D01*
X433436Y29983D01*
X434289Y31657D01*
X435394Y33178D01*
X436722Y34506D01*
X438243Y35611D01*
X439917Y36464D01*
X440204Y36557D01*
X440294Y36604D01*
X440386Y36645D01*
X440402Y36660D01*
X440422Y36670D01*
X440493Y36743D01*
X440567Y36811D01*
X440578Y36831D01*
X440593Y36847D01*
X440637Y36938D01*
X440686Y37027D01*
X440690Y37048D01*
X440699Y37069D01*
X440712Y37169D01*
X440730Y37269D01*
X440726Y37291D01*
X440729Y37313D01*
X440708Y37412D01*
X440694Y37512D01*
X440684Y37532D01*
X440679Y37554D01*
X440628Y37641D01*
X440582Y37731D01*
X440566Y37747D01*
X440555Y37766D01*
X440479Y37832D01*
X440407Y37904D01*
X440383Y37917D01*
X440370Y37928D01*
X440340Y37940D01*
X440260Y37984D01*
X436874Y39387D01*
X433087Y43174D01*
X431037Y48122D01*
X431037Y53478D01*
X433087Y58426D01*
X436874Y62213D01*
X438283Y62797D01*
X438344Y62835D01*
X438409Y62864D01*
X438447Y62899D01*
X438492Y62926D01*
X438538Y62982D01*
X438590Y63030D01*
X438615Y63076D01*
X438649Y63116D01*
X438674Y63183D01*
X438709Y63246D01*
X438718Y63297D01*
X438737Y63345D01*
X438740Y63417D01*
X438753Y63488D01*
X438745Y63539D01*
X438747Y63591D01*
X438727Y63660D01*
X438717Y63731D01*
X438693Y63777D01*
X438679Y63827D01*
X438638Y63886D01*
X438605Y63950D01*
X438568Y63987D01*
X438538Y64029D01*
X438481Y64072D01*
X438430Y64122D01*
X438367Y64157D01*
X438341Y64176D01*
X438319Y64183D01*
X438283Y64203D01*
X436874Y64787D01*
X433087Y68574D01*
X431037Y73522D01*
X431037Y78878D01*
X433087Y83826D01*
X436874Y87613D01*
X438283Y88197D01*
X438344Y88234D01*
X438409Y88264D01*
X438448Y88299D01*
X438492Y88326D01*
X438538Y88382D01*
X438590Y88430D01*
X438615Y88476D01*
X438649Y88516D01*
X438674Y88583D01*
X438709Y88646D01*
X438718Y88697D01*
X438737Y88745D01*
X438740Y88817D01*
X438753Y88888D01*
X438745Y88939D01*
X438747Y88991D01*
X438727Y89060D01*
X438717Y89131D01*
X438693Y89177D01*
X438679Y89227D01*
X438638Y89286D01*
X438605Y89350D01*
X438568Y89387D01*
X438538Y89429D01*
X438481Y89472D01*
X438430Y89522D01*
X438367Y89557D01*
X438341Y89576D01*
X438319Y89583D01*
X438283Y89603D01*
X436874Y90187D01*
X433087Y93974D01*
X431037Y98922D01*
X431037Y104278D01*
X433087Y109226D01*
X436874Y113013D01*
X441822Y115063D01*
X447178Y115063D01*
X452126Y113013D01*
X455913Y109226D01*
X457963Y104278D01*
X457963Y98922D01*
X455913Y93974D01*
X452126Y90187D01*
X450717Y89603D01*
X450656Y89565D01*
X450591Y89536D01*
X450552Y89501D01*
X450508Y89474D01*
X450462Y89418D01*
X450410Y89370D01*
X450385Y89324D01*
X450351Y89284D01*
X450326Y89217D01*
X450291Y89154D01*
X450282Y89103D01*
X450263Y89055D01*
X450260Y88983D01*
X450247Y88912D01*
X450255Y88861D01*
X450253Y88809D01*
X450273Y88740D01*
X450283Y88669D01*
X450307Y88623D01*
X450321Y88573D01*
X450362Y88514D01*
X450395Y88450D01*
X450432Y88413D01*
X450462Y88371D01*
X450519Y88328D01*
X450570Y88278D01*
X450633Y88243D01*
X450659Y88224D01*
X450681Y88217D01*
X450717Y88197D01*
X452126Y87613D01*
X455913Y83826D01*
X457963Y78878D01*
X457963Y73522D01*
X455913Y68574D01*
X452126Y64787D01*
X450717Y64203D01*
X450656Y64165D01*
X450591Y64136D01*
X450552Y64101D01*
X450508Y64074D01*
X450462Y64018D01*
X450410Y63970D01*
X450385Y63924D01*
X450351Y63884D01*
X450326Y63817D01*
X450291Y63754D01*
X450282Y63703D01*
X450263Y63655D01*
X450260Y63583D01*
X450247Y63512D01*
X450255Y63461D01*
X450253Y63409D01*
X450273Y63340D01*
X450283Y63269D01*
X450307Y63223D01*
X450321Y63173D01*
X450362Y63114D01*
X450395Y63050D01*
X450432Y63013D01*
X450462Y62971D01*
X450519Y62928D01*
X450570Y62878D01*
X450633Y62843D01*
X450659Y62824D01*
X450681Y62817D01*
X450717Y62797D01*
X452126Y62213D01*
X455913Y58426D01*
X457963Y53478D01*
X457963Y48122D01*
X455913Y43174D01*
X452126Y39387D01*
X448740Y37984D01*
X448654Y37931D01*
X448565Y37883D01*
X448550Y37867D01*
X448531Y37855D01*
X448467Y37777D01*
X448398Y37703D01*
X448389Y37682D01*
X448374Y37665D01*
X448338Y37571D01*
X448296Y37479D01*
X448294Y37456D01*
X448286Y37436D01*
X448282Y37335D01*
X448272Y37234D01*
X448277Y37212D01*
X448276Y37190D01*
X448304Y37093D01*
X448327Y36994D01*
X448338Y36975D01*
X448344Y36954D01*
X448402Y36871D01*
X448455Y36784D01*
X448472Y36770D01*
X448485Y36752D01*
X448566Y36691D01*
X448644Y36626D01*
X448669Y36615D01*
X448682Y36605D01*
X448713Y36595D01*
X448796Y36557D01*
X449083Y36464D01*
X450757Y35611D01*
X452278Y34506D01*
X453606Y33178D01*
X454711Y31657D01*
X455564Y29983D01*
X456145Y28196D01*
X456346Y26923D01*
X445262Y26923D01*
X445242Y26920D01*
X445223Y26922D01*
X445121Y26900D01*
X445019Y26883D01*
X445002Y26874D01*
X444982Y26870D01*
X444893Y26817D01*
X444802Y26768D01*
X444788Y26754D01*
X444771Y26744D01*
X444704Y26665D01*
X444633Y26590D01*
X444624Y26572D01*
X444611Y26557D01*
X444573Y26461D01*
X444529Y26367D01*
X444527Y26347D01*
X444519Y26329D01*
X444501Y26162D01*
X444501Y25399D01*
X444499Y25399D01*
G37*
%LPD*%
%LPC*%
G36*
X150839Y150903D02*
X150839Y150903D01*
X147955Y152098D01*
X145748Y154305D01*
X144553Y157189D01*
X144553Y160311D01*
X145748Y163195D01*
X146080Y163527D01*
X146133Y163601D01*
X146193Y163671D01*
X146205Y163701D01*
X146224Y163727D01*
X146251Y163814D01*
X146285Y163899D01*
X146289Y163940D01*
X146296Y163962D01*
X146295Y163994D01*
X146303Y164066D01*
X146303Y286784D01*
X146289Y286875D01*
X146281Y286965D01*
X146269Y286995D01*
X146264Y287027D01*
X146221Y287108D01*
X146185Y287192D01*
X146159Y287224D01*
X146148Y287245D01*
X146125Y287267D01*
X146080Y287323D01*
X145748Y287655D01*
X144553Y290539D01*
X144553Y293661D01*
X145748Y296545D01*
X147955Y298752D01*
X150839Y299947D01*
X153961Y299947D01*
X156845Y298752D01*
X159052Y296545D01*
X160247Y293661D01*
X160247Y290539D01*
X159052Y287655D01*
X158720Y287323D01*
X158667Y287249D01*
X158607Y287179D01*
X158595Y287149D01*
X158576Y287123D01*
X158549Y287036D01*
X158515Y286951D01*
X158511Y286910D01*
X158504Y286888D01*
X158505Y286856D01*
X158497Y286784D01*
X158497Y164066D01*
X158511Y163975D01*
X158519Y163885D01*
X158531Y163855D01*
X158536Y163823D01*
X158579Y163742D01*
X158615Y163658D01*
X158641Y163626D01*
X158652Y163605D01*
X158675Y163583D01*
X158720Y163527D01*
X159052Y163195D01*
X160247Y160311D01*
X160247Y157189D01*
X159052Y154305D01*
X156845Y152098D01*
X153961Y150903D01*
X150839Y150903D01*
G37*
%LPD*%
%LPC*%
G36*
X22722Y11937D02*
X22722Y11937D01*
X17774Y13987D01*
X13987Y17774D01*
X11937Y22722D01*
X11937Y28078D01*
X13987Y33026D01*
X17774Y36813D01*
X21160Y38216D01*
X21246Y38269D01*
X21335Y38317D01*
X21350Y38334D01*
X21369Y38345D01*
X21433Y38423D01*
X21502Y38497D01*
X21511Y38518D01*
X21526Y38535D01*
X21562Y38629D01*
X21604Y38722D01*
X21606Y38744D01*
X21614Y38764D01*
X21618Y38865D01*
X21628Y38966D01*
X21623Y38988D01*
X21624Y39010D01*
X21596Y39107D01*
X21573Y39206D01*
X21562Y39225D01*
X21556Y39246D01*
X21498Y39329D01*
X21445Y39416D01*
X21428Y39430D01*
X21415Y39448D01*
X21334Y39509D01*
X21256Y39574D01*
X21232Y39585D01*
X21218Y39595D01*
X21187Y39605D01*
X21104Y39643D01*
X20817Y39736D01*
X19143Y40589D01*
X17622Y41694D01*
X16294Y43022D01*
X15189Y44543D01*
X14336Y46217D01*
X13755Y48004D01*
X13554Y49277D01*
X24638Y49277D01*
X24658Y49280D01*
X24677Y49278D01*
X24779Y49300D01*
X24881Y49317D01*
X24898Y49326D01*
X24918Y49330D01*
X25007Y49383D01*
X25098Y49432D01*
X25112Y49446D01*
X25129Y49456D01*
X25196Y49535D01*
X25267Y49610D01*
X25276Y49628D01*
X25289Y49643D01*
X25327Y49739D01*
X25371Y49833D01*
X25373Y49853D01*
X25381Y49871D01*
X25399Y50038D01*
X25399Y51562D01*
X25396Y51582D01*
X25398Y51601D01*
X25376Y51703D01*
X25359Y51805D01*
X25350Y51822D01*
X25346Y51842D01*
X25293Y51931D01*
X25244Y52022D01*
X25230Y52036D01*
X25220Y52053D01*
X25141Y52120D01*
X25066Y52191D01*
X25048Y52200D01*
X25033Y52213D01*
X24937Y52252D01*
X24843Y52295D01*
X24823Y52297D01*
X24805Y52305D01*
X24638Y52323D01*
X13554Y52323D01*
X13755Y53596D01*
X14336Y55383D01*
X15189Y57057D01*
X16294Y58578D01*
X17622Y59906D01*
X19143Y61011D01*
X20817Y61864D01*
X21104Y61957D01*
X21194Y62004D01*
X21286Y62045D01*
X21302Y62060D01*
X21322Y62070D01*
X21393Y62143D01*
X21467Y62211D01*
X21478Y62231D01*
X21493Y62247D01*
X21537Y62338D01*
X21586Y62427D01*
X21590Y62449D01*
X21599Y62469D01*
X21612Y62569D01*
X21630Y62669D01*
X21626Y62691D01*
X21629Y62713D01*
X21609Y62812D01*
X21594Y62912D01*
X21584Y62932D01*
X21579Y62954D01*
X21528Y63041D01*
X21482Y63131D01*
X21466Y63147D01*
X21455Y63166D01*
X21379Y63233D01*
X21307Y63304D01*
X21283Y63317D01*
X21270Y63328D01*
X21252Y63335D01*
X21249Y63338D01*
X21232Y63345D01*
X21160Y63384D01*
X17774Y64787D01*
X13987Y68574D01*
X11937Y73522D01*
X11937Y78878D01*
X13987Y83826D01*
X17774Y87613D01*
X22722Y89663D01*
X28078Y89663D01*
X33026Y87613D01*
X36813Y83826D01*
X38863Y78878D01*
X38863Y73522D01*
X36813Y68574D01*
X33026Y64787D01*
X29640Y63384D01*
X29554Y63331D01*
X29465Y63283D01*
X29450Y63266D01*
X29431Y63255D01*
X29367Y63177D01*
X29298Y63103D01*
X29289Y63082D01*
X29274Y63065D01*
X29238Y62971D01*
X29196Y62878D01*
X29194Y62856D01*
X29186Y62836D01*
X29182Y62735D01*
X29172Y62634D01*
X29177Y62612D01*
X29176Y62590D01*
X29204Y62493D01*
X29227Y62394D01*
X29238Y62375D01*
X29244Y62354D01*
X29302Y62271D01*
X29355Y62184D01*
X29372Y62170D01*
X29385Y62152D01*
X29466Y62091D01*
X29544Y62026D01*
X29568Y62015D01*
X29582Y62005D01*
X29613Y61995D01*
X29696Y61957D01*
X29983Y61864D01*
X31657Y61011D01*
X33178Y59906D01*
X34506Y58578D01*
X35611Y57057D01*
X36464Y55383D01*
X37045Y53596D01*
X37246Y52323D01*
X26162Y52323D01*
X26142Y52320D01*
X26123Y52322D01*
X26021Y52300D01*
X25919Y52283D01*
X25902Y52274D01*
X25882Y52270D01*
X25793Y52217D01*
X25702Y52168D01*
X25688Y52154D01*
X25671Y52144D01*
X25604Y52065D01*
X25533Y51990D01*
X25524Y51972D01*
X25511Y51957D01*
X25473Y51861D01*
X25429Y51767D01*
X25427Y51747D01*
X25419Y51729D01*
X25401Y51562D01*
X25401Y50038D01*
X25404Y50018D01*
X25402Y49999D01*
X25424Y49897D01*
X25441Y49795D01*
X25450Y49778D01*
X25454Y49758D01*
X25507Y49669D01*
X25556Y49578D01*
X25570Y49564D01*
X25580Y49547D01*
X25659Y49480D01*
X25734Y49409D01*
X25752Y49400D01*
X25767Y49387D01*
X25863Y49348D01*
X25957Y49305D01*
X25977Y49303D01*
X25995Y49295D01*
X26162Y49277D01*
X37246Y49277D01*
X37045Y48004D01*
X36464Y46217D01*
X35611Y44543D01*
X34506Y43022D01*
X33178Y41694D01*
X31657Y40589D01*
X29983Y39736D01*
X29696Y39643D01*
X29606Y39596D01*
X29514Y39555D01*
X29498Y39540D01*
X29478Y39530D01*
X29407Y39457D01*
X29333Y39389D01*
X29322Y39369D01*
X29307Y39353D01*
X29263Y39262D01*
X29214Y39173D01*
X29210Y39151D01*
X29201Y39131D01*
X29188Y39031D01*
X29170Y38931D01*
X29174Y38909D01*
X29171Y38887D01*
X29191Y38788D01*
X29206Y38688D01*
X29216Y38668D01*
X29221Y38646D01*
X29272Y38559D01*
X29318Y38469D01*
X29334Y38453D01*
X29345Y38434D01*
X29421Y38367D01*
X29493Y38296D01*
X29517Y38283D01*
X29530Y38272D01*
X29560Y38260D01*
X29640Y38216D01*
X33026Y36813D01*
X36813Y33026D01*
X38863Y28078D01*
X38863Y22722D01*
X36813Y17774D01*
X33026Y13987D01*
X28078Y11937D01*
X22722Y11937D01*
G37*
%LPD*%
%LPC*%
G36*
X366739Y68353D02*
X366739Y68353D01*
X363855Y69548D01*
X361648Y71755D01*
X360453Y74639D01*
X360453Y77761D01*
X361648Y80645D01*
X361980Y80977D01*
X362034Y81051D01*
X362093Y81121D01*
X362105Y81151D01*
X362124Y81177D01*
X362151Y81264D01*
X362185Y81349D01*
X362189Y81390D01*
X362196Y81412D01*
X362195Y81444D01*
X362203Y81516D01*
X362203Y173754D01*
X362189Y173845D01*
X362181Y173935D01*
X362169Y173965D01*
X362164Y173997D01*
X362121Y174078D01*
X362085Y174162D01*
X362059Y174194D01*
X362048Y174215D01*
X362025Y174237D01*
X361980Y174293D01*
X361648Y174625D01*
X360453Y177509D01*
X360453Y180631D01*
X361648Y183515D01*
X363855Y185722D01*
X366739Y186917D01*
X369861Y186917D01*
X372745Y185722D01*
X374952Y183515D01*
X376147Y180631D01*
X376147Y177509D01*
X374952Y174625D01*
X374620Y174293D01*
X374567Y174219D01*
X374507Y174149D01*
X374495Y174119D01*
X374476Y174093D01*
X374449Y174006D01*
X374415Y173921D01*
X374411Y173880D01*
X374404Y173858D01*
X374405Y173826D01*
X374397Y173754D01*
X374397Y81516D01*
X374411Y81425D01*
X374419Y81334D01*
X374431Y81305D01*
X374436Y81273D01*
X374479Y81192D01*
X374515Y81108D01*
X374541Y81076D01*
X374552Y81055D01*
X374575Y81033D01*
X374620Y80977D01*
X374952Y80645D01*
X376147Y77761D01*
X376147Y74639D01*
X374952Y71755D01*
X372745Y69548D01*
X369861Y68353D01*
X366739Y68353D01*
G37*
%LPD*%
%LPC*%
G36*
X341339Y119153D02*
X341339Y119153D01*
X338455Y120348D01*
X336248Y122555D01*
X335053Y125439D01*
X335053Y128561D01*
X336248Y131445D01*
X336580Y131777D01*
X336633Y131851D01*
X336693Y131921D01*
X336705Y131951D01*
X336724Y131977D01*
X336751Y132064D01*
X336785Y132149D01*
X336789Y132190D01*
X336796Y132212D01*
X336795Y132244D01*
X336803Y132316D01*
X336803Y197884D01*
X336789Y197975D01*
X336781Y198065D01*
X336769Y198095D01*
X336764Y198127D01*
X336721Y198208D01*
X336685Y198292D01*
X336659Y198324D01*
X336648Y198345D01*
X336625Y198367D01*
X336580Y198423D01*
X336248Y198755D01*
X335053Y201639D01*
X335053Y204761D01*
X336248Y207645D01*
X338455Y209852D01*
X341339Y211047D01*
X344461Y211047D01*
X347345Y209852D01*
X349552Y207645D01*
X350747Y204761D01*
X350747Y201639D01*
X349552Y198755D01*
X349220Y198423D01*
X349167Y198349D01*
X349107Y198279D01*
X349095Y198249D01*
X349076Y198223D01*
X349049Y198136D01*
X349015Y198051D01*
X349011Y198010D01*
X349004Y197988D01*
X349005Y197956D01*
X348997Y197884D01*
X348997Y132316D01*
X349011Y132225D01*
X349019Y132135D01*
X349031Y132105D01*
X349036Y132073D01*
X349079Y131992D01*
X349115Y131908D01*
X349141Y131876D01*
X349152Y131855D01*
X349175Y131833D01*
X349220Y131777D01*
X349552Y131445D01*
X350747Y128561D01*
X350747Y125439D01*
X349552Y122555D01*
X347345Y120348D01*
X344461Y119153D01*
X341339Y119153D01*
G37*
%LPD*%
%LPC*%
G36*
X391022Y88137D02*
X391022Y88137D01*
X386074Y90187D01*
X382287Y93974D01*
X380237Y98922D01*
X380237Y104278D01*
X382287Y109226D01*
X386074Y113013D01*
X387483Y113597D01*
X387544Y113634D01*
X387609Y113664D01*
X387648Y113699D01*
X387692Y113726D01*
X387738Y113782D01*
X387790Y113830D01*
X387815Y113876D01*
X387849Y113916D01*
X387874Y113983D01*
X387909Y114046D01*
X387918Y114097D01*
X387937Y114145D01*
X387940Y114217D01*
X387953Y114288D01*
X387945Y114339D01*
X387947Y114391D01*
X387927Y114460D01*
X387917Y114531D01*
X387893Y114577D01*
X387879Y114627D01*
X387838Y114686D01*
X387805Y114750D01*
X387768Y114787D01*
X387738Y114829D01*
X387681Y114872D01*
X387630Y114922D01*
X387567Y114957D01*
X387541Y114976D01*
X387519Y114983D01*
X387483Y115003D01*
X386074Y115587D01*
X382287Y119374D01*
X380237Y124322D01*
X380237Y129678D01*
X382287Y134626D01*
X386074Y138413D01*
X391022Y140463D01*
X396378Y140463D01*
X401326Y138413D01*
X405113Y134626D01*
X407163Y129678D01*
X407163Y124322D01*
X405113Y119374D01*
X401326Y115587D01*
X399917Y115003D01*
X399856Y114965D01*
X399791Y114936D01*
X399752Y114901D01*
X399708Y114874D01*
X399662Y114818D01*
X399610Y114770D01*
X399585Y114724D01*
X399551Y114684D01*
X399526Y114617D01*
X399491Y114554D01*
X399482Y114503D01*
X399463Y114455D01*
X399460Y114383D01*
X399447Y114312D01*
X399455Y114261D01*
X399453Y114209D01*
X399473Y114140D01*
X399483Y114069D01*
X399507Y114023D01*
X399521Y113973D01*
X399562Y113914D01*
X399595Y113850D01*
X399632Y113813D01*
X399662Y113771D01*
X399719Y113728D01*
X399770Y113678D01*
X399833Y113643D01*
X399859Y113624D01*
X399881Y113617D01*
X399917Y113597D01*
X401326Y113013D01*
X405113Y109226D01*
X407163Y104278D01*
X407163Y98922D01*
X405113Y93974D01*
X401326Y90187D01*
X396378Y88137D01*
X391022Y88137D01*
G37*
%LPD*%
%LPC*%
G36*
X270674Y294131D02*
X270674Y294131D01*
X266753Y295755D01*
X263751Y298757D01*
X262127Y302678D01*
X262127Y306922D01*
X263751Y310843D01*
X266753Y313845D01*
X270674Y315469D01*
X288126Y315469D01*
X292047Y313845D01*
X295049Y310843D01*
X296673Y306922D01*
X296673Y302678D01*
X295049Y298757D01*
X292047Y295755D01*
X288126Y294131D01*
X270674Y294131D01*
G37*
%LPD*%
%LPC*%
G36*
X194474Y395731D02*
X194474Y395731D01*
X190553Y397355D01*
X187551Y400357D01*
X185927Y404278D01*
X185927Y408522D01*
X187551Y412443D01*
X190553Y415445D01*
X194474Y417069D01*
X211926Y417069D01*
X215847Y415445D01*
X218849Y412443D01*
X220473Y408522D01*
X220473Y404278D01*
X218849Y400357D01*
X215847Y397355D01*
X211926Y395731D01*
X194474Y395731D01*
G37*
%LPD*%
%LPC*%
G36*
X194474Y294131D02*
X194474Y294131D01*
X190553Y295755D01*
X187551Y298757D01*
X185927Y302678D01*
X185927Y306922D01*
X187551Y310843D01*
X190553Y313845D01*
X194474Y315469D01*
X211926Y315469D01*
X215847Y313845D01*
X218849Y310843D01*
X220473Y306922D01*
X220473Y302678D01*
X218849Y298757D01*
X215847Y295755D01*
X211926Y294131D01*
X194474Y294131D01*
G37*
%LPD*%
%LPC*%
G36*
X270674Y116331D02*
X270674Y116331D01*
X266753Y117955D01*
X263751Y120957D01*
X262127Y124878D01*
X262127Y129122D01*
X263751Y133043D01*
X266753Y136045D01*
X270674Y137669D01*
X288126Y137669D01*
X292047Y136045D01*
X295049Y133043D01*
X296673Y129122D01*
X296673Y124878D01*
X295049Y120957D01*
X292047Y117955D01*
X288126Y116331D01*
X270674Y116331D01*
G37*
%LPD*%
%LPC*%
G36*
X270674Y319531D02*
X270674Y319531D01*
X266753Y321155D01*
X263751Y324157D01*
X262127Y328078D01*
X262127Y332322D01*
X263751Y336243D01*
X266753Y339245D01*
X270674Y340869D01*
X288126Y340869D01*
X292047Y339245D01*
X295049Y336243D01*
X296673Y332322D01*
X296673Y328078D01*
X295049Y324157D01*
X292047Y321155D01*
X288126Y319531D01*
X270674Y319531D01*
G37*
%LPD*%
%LPC*%
G36*
X270674Y90931D02*
X270674Y90931D01*
X266753Y92555D01*
X263751Y95557D01*
X262127Y99478D01*
X262127Y103722D01*
X263751Y107643D01*
X266753Y110645D01*
X270674Y112269D01*
X288126Y112269D01*
X292047Y110645D01*
X295049Y107643D01*
X296673Y103722D01*
X296673Y99478D01*
X295049Y95557D01*
X292047Y92555D01*
X288126Y90931D01*
X270674Y90931D01*
G37*
%LPD*%
%LPC*%
G36*
X270674Y141731D02*
X270674Y141731D01*
X266753Y143355D01*
X263751Y146357D01*
X262127Y150278D01*
X262127Y154522D01*
X263751Y158443D01*
X266753Y161445D01*
X270674Y163069D01*
X288126Y163069D01*
X292047Y161445D01*
X295049Y158443D01*
X296673Y154522D01*
X296673Y150278D01*
X295049Y146357D01*
X292047Y143355D01*
X288126Y141731D01*
X270674Y141731D01*
G37*
%LPD*%
%LPC*%
G36*
X270674Y268731D02*
X270674Y268731D01*
X266753Y270355D01*
X263751Y273357D01*
X262127Y277278D01*
X262127Y281522D01*
X263751Y285443D01*
X266753Y288445D01*
X270674Y290069D01*
X288126Y290069D01*
X292047Y288445D01*
X295049Y285443D01*
X296673Y281522D01*
X296673Y277278D01*
X295049Y273357D01*
X292047Y270355D01*
X288126Y268731D01*
X270674Y268731D01*
G37*
%LPD*%
%LPC*%
G36*
X270674Y167131D02*
X270674Y167131D01*
X266753Y168755D01*
X263751Y171757D01*
X262127Y175678D01*
X262127Y179922D01*
X263751Y183843D01*
X266753Y186845D01*
X270674Y188469D01*
X288126Y188469D01*
X292047Y186845D01*
X295049Y183843D01*
X296673Y179922D01*
X296673Y175678D01*
X295049Y171757D01*
X292047Y168755D01*
X288126Y167131D01*
X270674Y167131D01*
G37*
%LPD*%
%LPC*%
G36*
X194474Y167131D02*
X194474Y167131D01*
X190553Y168755D01*
X187551Y171757D01*
X185927Y175678D01*
X185927Y179922D01*
X187551Y183843D01*
X190553Y186845D01*
X194474Y188469D01*
X211926Y188469D01*
X215847Y186845D01*
X218849Y183843D01*
X220473Y179922D01*
X220473Y175678D01*
X218849Y171757D01*
X215847Y168755D01*
X211926Y167131D01*
X194474Y167131D01*
G37*
%LPD*%
%LPC*%
G36*
X194474Y370331D02*
X194474Y370331D01*
X190553Y371955D01*
X187551Y374957D01*
X185927Y378878D01*
X185927Y383122D01*
X187551Y387043D01*
X190553Y390045D01*
X194474Y391669D01*
X211926Y391669D01*
X215847Y390045D01*
X218849Y387043D01*
X220473Y383122D01*
X220473Y378878D01*
X218849Y374957D01*
X215847Y371955D01*
X211926Y370331D01*
X194474Y370331D01*
G37*
%LPD*%
%LPC*%
G36*
X270674Y243331D02*
X270674Y243331D01*
X266753Y244955D01*
X263751Y247957D01*
X262127Y251878D01*
X262127Y256122D01*
X263751Y260043D01*
X266753Y263045D01*
X270674Y264669D01*
X288126Y264669D01*
X292047Y263045D01*
X295049Y260043D01*
X296673Y256122D01*
X296673Y251878D01*
X295049Y247957D01*
X292047Y244955D01*
X288126Y243331D01*
X270674Y243331D01*
G37*
%LPD*%
%LPC*%
G36*
X270674Y370331D02*
X270674Y370331D01*
X266753Y371955D01*
X263751Y374957D01*
X262127Y378878D01*
X262127Y383122D01*
X263751Y387043D01*
X266753Y390045D01*
X270674Y391669D01*
X288126Y391669D01*
X292047Y390045D01*
X295049Y387043D01*
X296673Y383122D01*
X296673Y378878D01*
X295049Y374957D01*
X292047Y371955D01*
X288126Y370331D01*
X270674Y370331D01*
G37*
%LPD*%
%LPC*%
G36*
X270674Y344931D02*
X270674Y344931D01*
X266753Y346555D01*
X263751Y349557D01*
X262127Y353478D01*
X262127Y357722D01*
X263751Y361643D01*
X266753Y364645D01*
X270674Y366269D01*
X288126Y366269D01*
X292047Y364645D01*
X295049Y361643D01*
X296673Y357722D01*
X296673Y353478D01*
X295049Y349557D01*
X292047Y346555D01*
X288126Y344931D01*
X270674Y344931D01*
G37*
%LPD*%
%LPC*%
G36*
X194474Y192531D02*
X194474Y192531D01*
X190553Y194155D01*
X187551Y197157D01*
X185927Y201078D01*
X185927Y205322D01*
X187551Y209243D01*
X190553Y212245D01*
X194474Y213869D01*
X211926Y213869D01*
X215847Y212245D01*
X218849Y209243D01*
X220473Y205322D01*
X220473Y201078D01*
X218849Y197157D01*
X215847Y194155D01*
X211926Y192531D01*
X194474Y192531D01*
G37*
%LPD*%
%LPC*%
G36*
X270674Y217931D02*
X270674Y217931D01*
X266753Y219555D01*
X263751Y222557D01*
X262127Y226478D01*
X262127Y230722D01*
X263751Y234643D01*
X266753Y237645D01*
X270674Y239269D01*
X288126Y239269D01*
X292047Y237645D01*
X295049Y234643D01*
X296673Y230722D01*
X296673Y226478D01*
X295049Y222557D01*
X292047Y219555D01*
X288126Y217931D01*
X270674Y217931D01*
G37*
%LPD*%
%LPC*%
G36*
X194474Y217931D02*
X194474Y217931D01*
X190553Y219555D01*
X187551Y222557D01*
X185927Y226478D01*
X185927Y230722D01*
X187551Y234643D01*
X190553Y237645D01*
X194474Y239269D01*
X211926Y239269D01*
X215847Y237645D01*
X218849Y234643D01*
X220473Y230722D01*
X220473Y226478D01*
X218849Y222557D01*
X215847Y219555D01*
X211926Y217931D01*
X194474Y217931D01*
G37*
%LPD*%
%LPC*%
G36*
X68442Y457707D02*
X68442Y457707D01*
X63494Y459757D01*
X59707Y463544D01*
X57657Y468492D01*
X57657Y473848D01*
X59707Y478796D01*
X63494Y482583D01*
X68442Y484633D01*
X73798Y484633D01*
X78746Y482583D01*
X82533Y478796D01*
X84583Y473848D01*
X84583Y468492D01*
X82533Y463544D01*
X78746Y459757D01*
X73798Y457707D01*
X68442Y457707D01*
G37*
%LPD*%
%LPC*%
G36*
X426582Y457707D02*
X426582Y457707D01*
X421634Y459757D01*
X417847Y463544D01*
X415797Y468492D01*
X415797Y473848D01*
X417847Y478796D01*
X421634Y482583D01*
X426582Y484633D01*
X431938Y484633D01*
X436886Y482583D01*
X440673Y478796D01*
X442723Y473848D01*
X442723Y468492D01*
X440673Y463544D01*
X436886Y459757D01*
X431938Y457707D01*
X426582Y457707D01*
G37*
%LPD*%
%LPC*%
G36*
X156871Y120141D02*
X156871Y120141D01*
X150621Y126391D01*
X150621Y135229D01*
X156871Y141479D01*
X165709Y141479D01*
X171959Y135229D01*
X171959Y126391D01*
X165709Y120141D01*
X156871Y120141D01*
G37*
%LPD*%
%LPC*%
G36*
X384201Y446531D02*
X384201Y446531D01*
X377951Y452781D01*
X377951Y461619D01*
X384201Y467869D01*
X393039Y467869D01*
X399289Y461619D01*
X399289Y452781D01*
X393039Y446531D01*
X384201Y446531D01*
G37*
%LPD*%
%LPC*%
G36*
X126391Y446531D02*
X126391Y446531D01*
X120141Y452781D01*
X120141Y461619D01*
X126391Y467869D01*
X135229Y467869D01*
X141479Y461619D01*
X141479Y452781D01*
X135229Y446531D01*
X126391Y446531D01*
G37*
%LPD*%
%LPC*%
G36*
X140361Y427481D02*
X140361Y427481D01*
X134111Y433731D01*
X134111Y442569D01*
X140361Y448819D01*
X149199Y448819D01*
X155449Y442569D01*
X155449Y433731D01*
X149199Y427481D01*
X140361Y427481D01*
G37*
%LPD*%
%LPC*%
G36*
X313081Y217931D02*
X313081Y217931D01*
X306831Y224181D01*
X306831Y233019D01*
X313081Y239269D01*
X321919Y239269D01*
X328169Y233019D01*
X328169Y224181D01*
X321919Y217931D01*
X313081Y217931D01*
G37*
%LPD*%
%LPC*%
G36*
X368961Y427481D02*
X368961Y427481D01*
X362711Y433731D01*
X362711Y442569D01*
X368961Y448819D01*
X377799Y448819D01*
X384049Y442569D01*
X384049Y433731D01*
X377799Y427481D01*
X368961Y427481D01*
G37*
%LPD*%
%LPC*%
G36*
X112421Y427481D02*
X112421Y427481D01*
X106171Y433731D01*
X106171Y442569D01*
X112421Y448819D01*
X121259Y448819D01*
X127509Y442569D01*
X127509Y433731D01*
X121259Y427481D01*
X112421Y427481D01*
G37*
%LPD*%
%LPC*%
G36*
X204723Y255523D02*
X204723Y255523D01*
X204723Y263145D01*
X210705Y263145D01*
X212471Y262793D01*
X214136Y262104D01*
X215634Y261103D01*
X216907Y259830D01*
X217908Y258332D01*
X218597Y256667D01*
X218825Y255523D01*
X204723Y255523D01*
G37*
%LPD*%
%LPC*%
G36*
X280923Y407923D02*
X280923Y407923D01*
X280923Y415545D01*
X286905Y415545D01*
X288671Y415193D01*
X290336Y414504D01*
X291834Y413503D01*
X293107Y412230D01*
X294108Y410732D01*
X294797Y409067D01*
X295025Y407923D01*
X280923Y407923D01*
G37*
%LPD*%
%LPC*%
G36*
X280923Y204723D02*
X280923Y204723D01*
X280923Y212345D01*
X286905Y212345D01*
X288671Y211993D01*
X290336Y211304D01*
X291834Y210303D01*
X293107Y209030D01*
X294108Y207532D01*
X294797Y205867D01*
X295025Y204723D01*
X280923Y204723D01*
G37*
%LPD*%
%LPC*%
G36*
X187575Y255523D02*
X187575Y255523D01*
X187803Y256667D01*
X188492Y258332D01*
X189493Y259830D01*
X190766Y261103D01*
X192264Y262104D01*
X193929Y262793D01*
X195695Y263145D01*
X201677Y263145D01*
X201677Y255523D01*
X187575Y255523D01*
G37*
%LPD*%
%LPC*%
G36*
X263775Y204723D02*
X263775Y204723D01*
X264003Y205867D01*
X264692Y207532D01*
X265693Y209030D01*
X266966Y210303D01*
X268464Y211304D01*
X270129Y211993D01*
X271895Y212345D01*
X277877Y212345D01*
X277877Y204723D01*
X263775Y204723D01*
G37*
%LPD*%
%LPC*%
G36*
X263775Y407923D02*
X263775Y407923D01*
X264003Y409067D01*
X264692Y410732D01*
X265693Y412230D01*
X266966Y413503D01*
X268464Y414504D01*
X270129Y415193D01*
X271895Y415545D01*
X277877Y415545D01*
X277877Y407923D01*
X263775Y407923D01*
G37*
%LPD*%
%LPC*%
G36*
X204723Y244855D02*
X204723Y244855D01*
X204723Y252477D01*
X218825Y252477D01*
X218597Y251333D01*
X217908Y249668D01*
X216907Y248170D01*
X215634Y246897D01*
X214136Y245896D01*
X212471Y245207D01*
X210705Y244855D01*
X204723Y244855D01*
G37*
%LPD*%
%LPC*%
G36*
X280923Y397255D02*
X280923Y397255D01*
X280923Y404877D01*
X295025Y404877D01*
X294797Y403733D01*
X294108Y402068D01*
X293107Y400570D01*
X291834Y399297D01*
X290336Y398296D01*
X288671Y397607D01*
X286905Y397255D01*
X280923Y397255D01*
G37*
%LPD*%
%LPC*%
G36*
X280923Y194055D02*
X280923Y194055D01*
X280923Y201677D01*
X295025Y201677D01*
X294797Y200533D01*
X294108Y198868D01*
X293107Y197370D01*
X291834Y196097D01*
X290336Y195096D01*
X288671Y194407D01*
X286905Y194055D01*
X280923Y194055D01*
G37*
%LPD*%
%LPC*%
G36*
X271895Y397255D02*
X271895Y397255D01*
X270129Y397607D01*
X268464Y398296D01*
X266966Y399297D01*
X265693Y400570D01*
X264692Y402068D01*
X264003Y403733D01*
X263775Y404877D01*
X277877Y404877D01*
X277877Y397255D01*
X271895Y397255D01*
G37*
%LPD*%
%LPC*%
G36*
X271895Y194055D02*
X271895Y194055D01*
X270129Y194407D01*
X268464Y195096D01*
X266966Y196097D01*
X265693Y197370D01*
X264692Y198868D01*
X264003Y200533D01*
X263775Y201677D01*
X277877Y201677D01*
X277877Y194055D01*
X271895Y194055D01*
G37*
%LPD*%
%LPC*%
G36*
X195695Y244855D02*
X195695Y244855D01*
X193929Y245207D01*
X192264Y245896D01*
X190766Y246897D01*
X189493Y248170D01*
X188492Y249668D01*
X187803Y251333D01*
X187575Y252477D01*
X201677Y252477D01*
X201677Y244855D01*
X195695Y244855D01*
G37*
%LPD*%
%LPC*%
G36*
X26923Y192023D02*
X26923Y192023D01*
X26923Y202346D01*
X28196Y202145D01*
X29983Y201564D01*
X31657Y200711D01*
X33178Y199606D01*
X34506Y198278D01*
X35611Y196757D01*
X36464Y195083D01*
X37045Y193296D01*
X37246Y192023D01*
X26923Y192023D01*
G37*
%LPD*%
%LPC*%
G36*
X21843Y472693D02*
X21843Y472693D01*
X21843Y483016D01*
X23116Y482815D01*
X24903Y482234D01*
X26577Y481381D01*
X28098Y480276D01*
X29426Y478948D01*
X30531Y477427D01*
X31384Y475753D01*
X31965Y473966D01*
X32166Y472693D01*
X21843Y472693D01*
G37*
%LPD*%
%LPC*%
G36*
X411733Y28193D02*
X411733Y28193D01*
X411733Y38516D01*
X413006Y38315D01*
X414793Y37734D01*
X416467Y36881D01*
X417988Y35776D01*
X419316Y34448D01*
X420421Y32927D01*
X421274Y31253D01*
X421855Y29466D01*
X422056Y28193D01*
X411733Y28193D01*
G37*
%LPD*%
%LPC*%
G36*
X26923Y214377D02*
X26923Y214377D01*
X37246Y214377D01*
X37045Y213104D01*
X36464Y211317D01*
X35611Y209643D01*
X34506Y208122D01*
X33178Y206794D01*
X31657Y205689D01*
X29983Y204836D01*
X28196Y204255D01*
X26923Y204054D01*
X26923Y214377D01*
G37*
%LPD*%
%LPC*%
G36*
X446023Y23877D02*
X446023Y23877D01*
X456346Y23877D01*
X456145Y22604D01*
X455564Y20817D01*
X454711Y19143D01*
X453606Y17622D01*
X452278Y16294D01*
X450757Y15189D01*
X449083Y14336D01*
X447296Y13755D01*
X446023Y13554D01*
X446023Y23877D01*
G37*
%LPD*%
%LPC*%
G36*
X471423Y187707D02*
X471423Y187707D01*
X481746Y187707D01*
X481545Y186434D01*
X480964Y184647D01*
X480111Y182973D01*
X479006Y181452D01*
X477678Y180124D01*
X476157Y179019D01*
X474483Y178166D01*
X472696Y177585D01*
X471423Y177384D01*
X471423Y187707D01*
G37*
%LPD*%
%LPC*%
G36*
X26923Y188977D02*
X26923Y188977D01*
X37246Y188977D01*
X37045Y187704D01*
X36464Y185917D01*
X35611Y184243D01*
X34506Y182722D01*
X33178Y181394D01*
X31657Y180289D01*
X29983Y179436D01*
X28196Y178855D01*
X26923Y178654D01*
X26923Y188977D01*
G37*
%LPD*%
%LPC*%
G36*
X141223Y23877D02*
X141223Y23877D01*
X151546Y23877D01*
X151345Y22604D01*
X150764Y20817D01*
X149911Y19143D01*
X148806Y17622D01*
X147478Y16294D01*
X145957Y15189D01*
X144283Y14336D01*
X142496Y13755D01*
X141223Y13554D01*
X141223Y23877D01*
G37*
%LPD*%
%LPC*%
G36*
X411733Y25147D02*
X411733Y25147D01*
X422056Y25147D01*
X421855Y23874D01*
X421274Y22087D01*
X420421Y20413D01*
X419316Y18892D01*
X417988Y17564D01*
X416467Y16459D01*
X414793Y15606D01*
X413006Y15025D01*
X411733Y14824D01*
X411733Y25147D01*
G37*
%LPD*%
%LPC*%
G36*
X21843Y469647D02*
X21843Y469647D01*
X32166Y469647D01*
X31965Y468374D01*
X31384Y466587D01*
X30531Y464913D01*
X29426Y463392D01*
X28098Y462064D01*
X26577Y460959D01*
X24903Y460106D01*
X23116Y459525D01*
X21843Y459324D01*
X21843Y469647D01*
G37*
%LPD*%
%LPC*%
G36*
X13554Y192023D02*
X13554Y192023D01*
X13755Y193296D01*
X14336Y195083D01*
X15189Y196757D01*
X16294Y198278D01*
X17622Y199606D01*
X19143Y200711D01*
X20817Y201564D01*
X22604Y202145D01*
X23877Y202346D01*
X23877Y192023D01*
X13554Y192023D01*
G37*
%LPD*%
%LPC*%
G36*
X468214Y472693D02*
X468214Y472693D01*
X468415Y473966D01*
X468996Y475753D01*
X469849Y477427D01*
X470954Y478948D01*
X472282Y480276D01*
X473803Y481381D01*
X475477Y482234D01*
X477264Y482815D01*
X478537Y483016D01*
X478537Y472693D01*
X468214Y472693D01*
G37*
%LPD*%
%LPC*%
G36*
X22604Y204255D02*
X22604Y204255D01*
X20817Y204836D01*
X19143Y205689D01*
X17622Y206794D01*
X16294Y208122D01*
X15189Y209643D01*
X14336Y211317D01*
X13755Y213104D01*
X13554Y214377D01*
X23877Y214377D01*
X23877Y204054D01*
X22604Y204255D01*
G37*
%LPD*%
%LPC*%
G36*
X22604Y178855D02*
X22604Y178855D01*
X20817Y179436D01*
X19143Y180289D01*
X17622Y181394D01*
X16294Y182722D01*
X15189Y184243D01*
X14336Y185917D01*
X13755Y187704D01*
X13554Y188977D01*
X23877Y188977D01*
X23877Y178654D01*
X22604Y178855D01*
G37*
%LPD*%
%LPC*%
G36*
X477264Y459525D02*
X477264Y459525D01*
X475477Y460106D01*
X473803Y460959D01*
X472282Y462064D01*
X470954Y463392D01*
X469849Y464913D01*
X468996Y466587D01*
X468415Y468374D01*
X468214Y469647D01*
X478537Y469647D01*
X478537Y459324D01*
X477264Y459525D01*
G37*
%LPD*%
%LPC*%
G36*
X441704Y13755D02*
X441704Y13755D01*
X439917Y14336D01*
X438243Y15189D01*
X436722Y16294D01*
X435394Y17622D01*
X434289Y19143D01*
X433436Y20817D01*
X432855Y22604D01*
X432654Y23877D01*
X442977Y23877D01*
X442977Y13554D01*
X441704Y13755D01*
G37*
%LPD*%
%LPC*%
G36*
X467104Y177585D02*
X467104Y177585D01*
X465317Y178166D01*
X463643Y179019D01*
X462122Y180124D01*
X460794Y181452D01*
X459689Y182973D01*
X458836Y184647D01*
X458255Y186434D01*
X458054Y187707D01*
X468377Y187707D01*
X468377Y177384D01*
X467104Y177585D01*
G37*
%LPD*%
%LPC*%
G36*
X146303Y363473D02*
X146303Y363473D01*
X146303Y371095D01*
X148568Y371095D01*
X153925Y365738D01*
X153925Y363473D01*
X146303Y363473D01*
G37*
%LPD*%
%LPC*%
G36*
X331723Y407923D02*
X331723Y407923D01*
X331723Y415545D01*
X333988Y415545D01*
X339345Y410188D01*
X339345Y407923D01*
X331723Y407923D01*
G37*
%LPD*%
%LPC*%
G36*
X344423Y230123D02*
X344423Y230123D01*
X344423Y237745D01*
X346688Y237745D01*
X352045Y232388D01*
X352045Y230123D01*
X344423Y230123D01*
G37*
%LPD*%
%LPC*%
G36*
X137413Y132333D02*
X137413Y132333D01*
X137413Y139955D01*
X139678Y139955D01*
X145035Y134598D01*
X145035Y132333D01*
X137413Y132333D01*
G37*
%LPD*%
%LPC*%
G36*
X374903Y363473D02*
X374903Y363473D01*
X374903Y371095D01*
X377168Y371095D01*
X382525Y365738D01*
X382525Y363473D01*
X374903Y363473D01*
G37*
%LPD*%
%LPC*%
G36*
X333755Y230123D02*
X333755Y230123D01*
X333755Y232388D01*
X339112Y237745D01*
X341377Y237745D01*
X341377Y230123D01*
X333755Y230123D01*
G37*
%LPD*%
%LPC*%
G36*
X126745Y132333D02*
X126745Y132333D01*
X126745Y134598D01*
X132102Y139955D01*
X134367Y139955D01*
X134367Y132333D01*
X126745Y132333D01*
G37*
%LPD*%
%LPC*%
G36*
X344423Y219455D02*
X344423Y219455D01*
X344423Y227077D01*
X352045Y227077D01*
X352045Y224812D01*
X346688Y219455D01*
X344423Y219455D01*
G37*
%LPD*%
%LPC*%
G36*
X146303Y352805D02*
X146303Y352805D01*
X146303Y360427D01*
X153925Y360427D01*
X153925Y358162D01*
X148568Y352805D01*
X146303Y352805D01*
G37*
%LPD*%
%LPC*%
G36*
X374903Y352805D02*
X374903Y352805D01*
X374903Y360427D01*
X382525Y360427D01*
X382525Y358162D01*
X377168Y352805D01*
X374903Y352805D01*
G37*
%LPD*%
%LPC*%
G36*
X331723Y397255D02*
X331723Y397255D01*
X331723Y404877D01*
X339345Y404877D01*
X339345Y402612D01*
X333988Y397255D01*
X331723Y397255D01*
G37*
%LPD*%
%LPC*%
G36*
X364235Y363473D02*
X364235Y363473D01*
X364235Y365738D01*
X369592Y371095D01*
X371857Y371095D01*
X371857Y363473D01*
X364235Y363473D01*
G37*
%LPD*%
%LPC*%
G36*
X321055Y407923D02*
X321055Y407923D01*
X321055Y410188D01*
X326412Y415545D01*
X328677Y415545D01*
X328677Y407923D01*
X321055Y407923D01*
G37*
%LPD*%
%LPC*%
G36*
X137413Y121665D02*
X137413Y121665D01*
X137413Y129287D01*
X145035Y129287D01*
X145035Y127022D01*
X139678Y121665D01*
X137413Y121665D01*
G37*
%LPD*%
%LPC*%
G36*
X135635Y363473D02*
X135635Y363473D01*
X135635Y365738D01*
X140992Y371095D01*
X143257Y371095D01*
X143257Y363473D01*
X135635Y363473D01*
G37*
%LPD*%
%LPC*%
G36*
X369592Y352805D02*
X369592Y352805D01*
X364235Y358162D01*
X364235Y360427D01*
X371857Y360427D01*
X371857Y352805D01*
X369592Y352805D01*
G37*
%LPD*%
%LPC*%
G36*
X140992Y352805D02*
X140992Y352805D01*
X135635Y358162D01*
X135635Y360427D01*
X143257Y360427D01*
X143257Y352805D01*
X140992Y352805D01*
G37*
%LPD*%
%LPC*%
G36*
X326412Y397255D02*
X326412Y397255D01*
X321055Y402612D01*
X321055Y404877D01*
X328677Y404877D01*
X328677Y397255D01*
X326412Y397255D01*
G37*
%LPD*%
%LPC*%
G36*
X339112Y219455D02*
X339112Y219455D01*
X333755Y224812D01*
X333755Y227077D01*
X341377Y227077D01*
X341377Y219455D01*
X339112Y219455D01*
G37*
%LPD*%
%LPC*%
G36*
X132102Y121665D02*
X132102Y121665D01*
X126745Y127022D01*
X126745Y129287D01*
X134367Y129287D01*
X134367Y121665D01*
X132102Y121665D01*
G37*
%LPD*%
%LPC*%
G36*
X203199Y253999D02*
X203199Y253999D01*
X203199Y254001D01*
X203201Y254001D01*
X203201Y253999D01*
X203199Y253999D01*
G37*
%LPD*%
%LPC*%
G36*
X330199Y406399D02*
X330199Y406399D01*
X330199Y406401D01*
X330201Y406401D01*
X330201Y406399D01*
X330199Y406399D01*
G37*
%LPD*%
%LPC*%
G36*
X279399Y406399D02*
X279399Y406399D01*
X279399Y406401D01*
X279401Y406401D01*
X279401Y406399D01*
X279399Y406399D01*
G37*
%LPD*%
%LPC*%
G36*
X279399Y203199D02*
X279399Y203199D01*
X279399Y203201D01*
X279401Y203201D01*
X279401Y203199D01*
X279399Y203199D01*
G37*
%LPD*%
%LPC*%
G36*
X25399Y190499D02*
X25399Y190499D01*
X25399Y190501D01*
X25401Y190501D01*
X25401Y190499D01*
X25399Y190499D01*
G37*
%LPD*%
%LPC*%
G36*
X144779Y361949D02*
X144779Y361949D01*
X144779Y361951D01*
X144781Y361951D01*
X144781Y361949D01*
X144779Y361949D01*
G37*
%LPD*%
%LPC*%
G36*
X373379Y361949D02*
X373379Y361949D01*
X373379Y361951D01*
X373381Y361951D01*
X373381Y361949D01*
X373379Y361949D01*
G37*
%LPD*%
%LPC*%
G36*
X342899Y228599D02*
X342899Y228599D01*
X342899Y228601D01*
X342901Y228601D01*
X342901Y228599D01*
X342899Y228599D01*
G37*
%LPD*%
%LPC*%
G36*
X135889Y130809D02*
X135889Y130809D01*
X135889Y130811D01*
X135891Y130811D01*
X135891Y130809D01*
X135889Y130809D01*
G37*
%LPD*%
D10*
X161290Y130810D03*
X135890Y130810D03*
D11*
X317500Y228600D03*
X342900Y228600D03*
D12*
X330200Y431800D03*
X330200Y406400D03*
X388620Y482600D03*
X388620Y457200D03*
X130810Y482600D03*
X130810Y457200D03*
D13*
X373380Y361950D03*
X373380Y438150D03*
X144780Y361950D03*
X144780Y438150D03*
D12*
X403860Y438150D03*
X403860Y361950D03*
X116840Y438150D03*
X116840Y361950D03*
D14*
X196596Y431800D02*
X209804Y431800D01*
X209804Y406400D02*
X196596Y406400D01*
X196596Y381000D02*
X209804Y381000D01*
X209804Y355600D02*
X196596Y355600D01*
X196596Y330200D02*
X209804Y330200D01*
X209804Y304800D02*
X196596Y304800D01*
X196596Y279400D02*
X209804Y279400D01*
X209804Y254000D02*
X196596Y254000D01*
X196596Y228600D02*
X209804Y228600D01*
X209804Y203200D02*
X196596Y203200D01*
X196596Y177800D02*
X209804Y177800D01*
X209804Y152400D02*
X196596Y152400D01*
X196596Y127000D02*
X209804Y127000D01*
X209804Y101600D02*
X196596Y101600D01*
X272796Y101600D02*
X286004Y101600D01*
X286004Y127000D02*
X272796Y127000D01*
X272796Y152400D02*
X286004Y152400D01*
X286004Y177800D02*
X272796Y177800D01*
X272796Y203200D02*
X286004Y203200D01*
X286004Y228600D02*
X272796Y228600D01*
X272796Y254000D02*
X286004Y254000D01*
X286004Y279400D02*
X272796Y279400D01*
X272796Y304800D02*
X286004Y304800D01*
X286004Y330200D02*
X272796Y330200D01*
X272796Y355600D02*
X286004Y355600D01*
X286004Y381000D02*
X272796Y381000D01*
X272796Y406400D02*
X286004Y406400D01*
X286004Y431800D02*
X272796Y431800D01*
D15*
X393700Y127000D03*
X393700Y101600D03*
X469900Y419100D03*
X469900Y393700D03*
X469900Y368300D03*
X469900Y342900D03*
X469900Y317500D03*
X469900Y290830D03*
X469900Y265430D03*
X469900Y240030D03*
X469900Y214630D03*
X469900Y189230D03*
X25400Y292100D03*
X25400Y266700D03*
X25400Y241300D03*
X25400Y215900D03*
X25400Y190500D03*
X25400Y419100D03*
X25400Y393700D03*
X25400Y368300D03*
X25400Y342900D03*
X25400Y317500D03*
X25400Y76200D03*
X25400Y25400D03*
X25400Y50800D03*
X139700Y25400D03*
X139700Y50800D03*
D16*
X220980Y20330D03*
X195980Y20330D03*
X245980Y20330D03*
X246480Y53330D03*
X220980Y53330D03*
X195980Y53330D03*
D15*
X114300Y25400D03*
X114300Y50800D03*
X114300Y76200D03*
X114300Y101600D03*
X194310Y480060D03*
X219710Y480060D03*
X245110Y480060D03*
X270510Y480060D03*
X295910Y480060D03*
X410210Y26670D03*
X384810Y26670D03*
X359410Y26670D03*
X334010Y26670D03*
X308610Y26670D03*
X283210Y26670D03*
X429260Y471170D03*
X480060Y471170D03*
X71120Y471170D03*
X20320Y471170D03*
X444500Y25400D03*
X444500Y50800D03*
X444500Y76200D03*
X444500Y101600D03*
D17*
X195980Y53330D02*
X195980Y20330D01*
D18*
X330200Y482600D03*
D17*
X330200Y431800D01*
D18*
X50800Y25400D03*
D17*
X157480Y130810D02*
X161290Y130810D01*
D18*
X46990Y241300D03*
D17*
X50800Y152400D02*
X50800Y25400D01*
X50800Y152400D02*
X50800Y237490D01*
X46990Y241300D01*
D18*
X50800Y152400D03*
X406400Y419100D03*
D17*
X406400Y364490D01*
X403860Y361950D01*
X46990Y335280D02*
X46990Y241300D01*
X46990Y335280D02*
X73660Y361950D01*
D18*
X73660Y361950D03*
X165100Y457200D03*
D17*
X165100Y410210D01*
X116840Y361950D01*
X403860Y361950D02*
X406400Y359410D01*
X406400Y266700D01*
X458470Y214630D01*
X469900Y214630D01*
X246480Y53330D02*
X245980Y52830D01*
X245980Y20330D01*
D18*
X358775Y53975D03*
D17*
X358775Y27305D01*
X359410Y26670D01*
X220980Y20330D02*
X220980Y53330D01*
D18*
X222250Y76200D03*
D17*
X222250Y54600D01*
X220980Y53330D01*
D18*
X76200Y76200D03*
D17*
X76200Y266700D01*
D18*
X76200Y266700D03*
X368300Y76200D03*
D17*
X368300Y179070D01*
D18*
X368300Y179070D03*
D17*
X242570Y452120D02*
X270510Y480060D01*
X215900Y355600D02*
X203200Y355600D01*
X215900Y355600D02*
X228600Y368300D01*
X228600Y444500D01*
X236220Y452120D01*
X242570Y452120D01*
X194310Y440690D02*
X194310Y480060D01*
X194310Y440690D02*
X203200Y431800D01*
X254000Y438150D02*
X295910Y480060D01*
X254000Y438150D02*
X254000Y330200D01*
X203200Y330200D01*
X203200Y152400D02*
X190500Y152400D01*
X177800Y165100D01*
X177800Y469900D01*
X165100Y482600D01*
X130810Y482600D01*
D18*
X92710Y462280D03*
X92710Y175260D03*
D17*
X92710Y462280D01*
X248920Y86360D02*
X308610Y26670D01*
X248920Y86360D02*
X248920Y266700D01*
X236220Y279400D02*
X203200Y279400D01*
X236220Y279400D02*
X248920Y266700D01*
X317500Y43180D02*
X334010Y26670D01*
X317500Y43180D02*
X317500Y203200D01*
D18*
X317500Y203200D03*
X342900Y127000D03*
D17*
X342900Y203200D01*
D18*
X342900Y203200D03*
X152400Y292100D03*
X152400Y158750D03*
X224790Y139700D03*
D17*
X224790Y101600D01*
D18*
X224790Y101600D03*
D17*
X152400Y158750D02*
X152400Y292100D01*
D18*
X114300Y127000D03*
D17*
X114300Y317500D01*
D18*
X114300Y317500D03*
M02*
